<ttFont>
    <TTGlyph name=".notdef" xMin="53" yMin="74" xMax="287" yMax="399">
      <contour>
        <pt x="53" y="100" on="1"/>
        <pt x="53" y="108" on="0"/>
        <pt x="57" y="115" on="1"/>
        <pt x="137" y="236" on="1"/>
        <pt x="57" y="358" on="1"/>
        <pt x="53" y="365" on="0"/>
        <pt x="53" y="372" on="1"/>
        <pt x="53" y="384" on="0"/>
        <pt x="70" y="399" on="0"/>
        <pt x="82" y="399" on="1"/>
        <pt x="95" y="399" on="0"/>
        <pt x="104" y="388" on="1"/>
        <pt x="170" y="282" on="1"/>
        <pt x="237" y="388" on="1"/>
        <pt x="245" y="399" on="0"/>
        <pt x="258" y="399" on="1"/>
        <pt x="270" y="399" on="0"/>
        <pt x="287" y="384" on="0"/>
        <pt x="287" y="372" on="1"/>
        <pt x="287" y="365" on="0"/>
        <pt x="283" y="358" on="1"/>
        <pt x="203" y="236" on="1"/>
        <pt x="282" y="115" on="1"/>
        <pt x="287" y="107" on="0"/>
        <pt x="287" y="100" on="1"/>
        <pt x="287" y="89" on="0"/>
        <pt x="270" y="74" on="0"/>
        <pt x="258" y="74" on="1"/>
        <pt x="244" y="74" on="0"/>
        <pt x="236" y="85" on="1"/>
        <pt x="170" y="189" on="1"/>
        <pt x="104" y="85" on="1"/>
        <pt x="95" y="74" on="0"/>
        <pt x="82" y="74" on="1"/>
        <pt x="70" y="74" on="0"/>
        <pt x="53" y="89" on="0"/>
      </contour>
    </TTGlyph>
    <TTGlyph name="A" xMin="21" yMin="0" xMax="519" yMax="737">
      <contour>
        <pt x="21" y="28" on="1"/>
        <pt x="21" y="33" on="0"/>
        <pt x="22" y="35" on="1"/>
        <pt x="231" y="714" on="1"/>
        <pt x="238" y="737" on="0"/>
        <pt x="302" y="737" on="0"/>
        <pt x="310" y="714" on="1"/>
        <pt x="518" y="35" on="1"/>
        <pt x="518" y="34" on="0"/>
        <pt x="519" y="30" on="0"/>
        <pt x="519" y="29" on="1"/>
        <pt x="519" y="17" on="0"/>
        <pt x="493" y="0" on="0"/>
        <pt x="479" y="0" on="1"/>
        <pt x="460" y="0" on="0"/>
        <pt x="454" y="17" on="1"/>
        <pt x="408" y="171" on="1"/>
        <pt x="131" y="171" on="1"/>
        <pt x="85" y="17" on="1"/>
        <pt x="81" y="0" on="0"/>
        <pt x="59" y="0" on="1"/>
        <pt x="45" y="0" on="0"/>
        <pt x="21" y="16" on="0"/>
      </contour>
      <contour>
        <pt x="148" y="228" on="1"/>
        <pt x="391" y="228" on="1"/>
        <pt x="270" y="631" on="1"/>
      </contour>
    </TTGlyph>
    <TTGlyph name="AE" xMin="73" yMin="0" xMax="691" yMax="731">
      <contour>
        <pt x="73" y="31" on="1"/>
        <pt x="73" y="518" on="1"/>
        <pt x="73" y="628" on="0"/>
        <pt x="186" y="731" on="0"/>
        <pt x="279" y="731" on="1"/>
        <pt x="667" y="731" on="1"/>
        <pt x="691" y="731" on="0"/>
        <pt x="691" y="702" on="1"/>
        <pt x="691" y="689" on="0"/>
        <pt x="678" y="670" on="0"/>
        <pt x="667" y="670" on="1"/>
        <pt x="432" y="670" on="1"/>
        <pt x="432" y="395" on="1"/>
        <pt x="579" y="395" on="1"/>
        <pt x="591" y="395" on="0"/>
        <pt x="604" y="378" on="0"/>
        <pt x="604" y="365" on="1"/>
        <pt x="604" y="338" on="0"/>
        <pt x="579" y="338" on="1"/>
        <pt x="432" y="338" on="1"/>
        <pt x="432" y="61" on="1"/>
        <pt x="667" y="61" on="1"/>
        <pt x="678" y="61" on="0"/>
        <pt x="691" y="43" on="0"/>
        <pt x="691" y="30" on="1"/>
        <pt x="691" y="0" on="0"/>
        <pt x="667" y="0" on="1"/>
        <pt x="397" y="0" on="1"/>
        <pt x="385" y="0" on="0"/>
        <pt x="366" y="14" on="0"/>
        <pt x="366" y="26" on="1"/>
        <pt x="366" y="338" on="1"/>
        <pt x="137" y="338" on="1"/>
        <pt x="137" y="31" on="1"/>
        <pt x="137" y="15" on="0"/>
        <pt x="124" y="0" on="0"/>
        <pt x="104" y="0" on="1"/>
        <pt x="73" y="0" on="0"/>
      </contour>
      <contour>
        <pt x="137" y="395" on="1"/>
        <pt x="366" y="395" on="1"/>
        <pt x="366" y="670" on="1"/>
        <pt x="279" y="670" on="1"/>
        <pt x="137" y="670" on="0"/>
        <pt x="137" y="518" on="1"/>
      </contour>
    </TTGlyph>
    <TTGlyph name="AEacute" xMin="73" yMin="0" xMax="691" yMax="954">
      <contour>
        <pt x="73" y="31" on="1"/>
        <pt x="73" y="518" on="1"/>
        <pt x="73" y="628" on="0"/>
        <pt x="186" y="731" on="0"/>
        <pt x="279" y="731" on="1"/>
        <pt x="667" y="731" on="1"/>
        <pt x="691" y="731" on="0"/>
        <pt x="691" y="702" on="1"/>
        <pt x="691" y="689" on="0"/>
        <pt x="678" y="670" on="0"/>
        <pt x="667" y="670" on="1"/>
        <pt x="432" y="670" on="1"/>
        <pt x="432" y="395" on="1"/>
        <pt x="579" y="395" on="1"/>
        <pt x="591" y="395" on="0"/>
        <pt x="604" y="378" on="0"/>
        <pt x="604" y="365" on="1"/>
        <pt x="604" y="338" on="0"/>
        <pt x="579" y="338" on="1"/>
        <pt x="432" y="338" on="1"/>
        <pt x="432" y="61" on="1"/>
        <pt x="667" y="61" on="1"/>
        <pt x="678" y="61" on="0"/>
        <pt x="691" y="43" on="0"/>
        <pt x="691" y="30" on="1"/>
        <pt x="691" y="0" on="0"/>
        <pt x="667" y="0" on="1"/>
        <pt x="397" y="0" on="1"/>
        <pt x="385" y="0" on="0"/>
        <pt x="366" y="14" on="0"/>
        <pt x="366" y="26" on="1"/>
        <pt x="366" y="338" on="1"/>
        <pt x="137" y="338" on="1"/>
        <pt x="137" y="31" on="1"/>
        <pt x="137" y="15" on="0"/>
        <pt x="124" y="0" on="0"/>
        <pt x="104" y="0" on="1"/>
        <pt x="73" y="0" on="0"/>
      </contour>
      <contour>
        <pt x="137" y="395" on="1"/>
        <pt x="366" y="395" on="1"/>
        <pt x="366" y="670" on="1"/>
        <pt x="279" y="670" on="1"/>
        <pt x="137" y="670" on="0"/>
        <pt x="137" y="518" on="1"/>
      </contour>
      <contour>
        <pt x="305" y="872" on="1"/>
        <pt x="305" y="884" on="0"/>
        <pt x="316" y="890" on="1"/>
        <pt x="428" y="951" on="1"/>
        <pt x="431" y="954" on="0"/>
        <pt x="436" y="954" on="1"/>
        <pt x="447" y="954" on="0"/>
        <pt x="460" y="937" on="0"/>
        <pt x="460" y="926" on="1"/>
        <pt x="460" y="910" on="0"/>
        <pt x="448" y="904" on="1"/>
        <pt x="341" y="847" on="1"/>
        <pt x="336" y="844" on="0"/>
        <pt x="331" y="844" on="1"/>
        <pt x="321" y="844" on="0"/>
        <pt x="305" y="861" on="0"/>
      </contour>
    </TTGlyph>
    <TTGlyph name="Aacute" xMin="21" yMin="0" xMax="519" yMax="955">
      <contour>
        <pt x="21" y="28" on="1"/>
        <pt x="21" y="33" on="0"/>
        <pt x="22" y="35" on="1"/>
        <pt x="231" y="714" on="1"/>
        <pt x="238" y="737" on="0"/>
        <pt x="302" y="737" on="0"/>
        <pt x="310" y="714" on="1"/>
        <pt x="518" y="35" on="1"/>
        <pt x="518" y="34" on="0"/>
        <pt x="519" y="30" on="0"/>
        <pt x="519" y="29" on="1"/>
        <pt x="519" y="17" on="0"/>
        <pt x="493" y="0" on="0"/>
        <pt x="479" y="0" on="1"/>
        <pt x="460" y="0" on="0"/>
        <pt x="454" y="17" on="1"/>
        <pt x="408" y="171" on="1"/>
        <pt x="131" y="171" on="1"/>
        <pt x="85" y="17" on="1"/>
        <pt x="81" y="0" on="0"/>
        <pt x="59" y="0" on="1"/>
        <pt x="45" y="0" on="0"/>
        <pt x="21" y="16" on="0"/>
      </contour>
      <contour>
        <pt x="148" y="228" on="1"/>
        <pt x="391" y="228" on="1"/>
        <pt x="270" y="631" on="1"/>
      </contour>
      <contour>
        <pt x="202" y="873" on="1"/>
        <pt x="202" y="886" on="0"/>
        <pt x="213" y="891" on="1"/>
        <pt x="325" y="952" on="1"/>
        <pt x="328" y="955" on="0"/>
        <pt x="333" y="955" on="1"/>
        <pt x="344" y="955" on="0"/>
        <pt x="357" y="938" on="0"/>
        <pt x="357" y="927" on="1"/>
        <pt x="357" y="911" on="0"/>
        <pt x="345" y="905" on="1"/>
        <pt x="238" y="848" on="1"/>
        <pt x="234" y="845" on="0"/>
        <pt x="228" y="845" on="1"/>
        <pt x="218" y="845" on="0"/>
        <pt x="202" y="862" on="0"/>
      </contour>
    </TTGlyph>
    <TTGlyph name="Abreve" xMin="21" yMin="0" xMax="519" yMax="968">
      <contour>
        <pt x="21" y="28" on="1"/>
        <pt x="21" y="33" on="0"/>
        <pt x="22" y="35" on="1"/>
        <pt x="231" y="714" on="1"/>
        <pt x="238" y="737" on="0"/>
        <pt x="302" y="737" on="0"/>
        <pt x="310" y="714" on="1"/>
        <pt x="518" y="35" on="1"/>
        <pt x="518" y="34" on="0"/>
        <pt x="519" y="30" on="0"/>
        <pt x="519" y="29" on="1"/>
        <pt x="519" y="17" on="0"/>
        <pt x="493" y="0" on="0"/>
        <pt x="479" y="0" on="1"/>
        <pt x="460" y="0" on="0"/>
        <pt x="454" y="17" on="1"/>
        <pt x="408" y="171" on="1"/>
        <pt x="131" y="171" on="1"/>
        <pt x="85" y="17" on="1"/>
        <pt x="81" y="0" on="0"/>
        <pt x="59" y="0" on="1"/>
        <pt x="45" y="0" on="0"/>
        <pt x="21" y="16" on="0"/>
      </contour>
      <contour>
        <pt x="148" y="228" on="1"/>
        <pt x="391" y="228" on="1"/>
        <pt x="270" y="631" on="1"/>
      </contour>
      <contour>
        <pt x="153" y="968" on="1"/>
        <pt x="197" y="968" on="1"/>
        <pt x="197" y="934" on="0"/>
        <pt x="240" y="887" on="0"/>
        <pt x="270" y="887" on="1"/>
        <pt x="299" y="887" on="0"/>
        <pt x="342" y="934" on="0"/>
        <pt x="342" y="968" on="1"/>
        <pt x="386" y="968" on="1"/>
        <pt x="386" y="921" on="0"/>
        <pt x="315" y="851" on="0"/>
        <pt x="270" y="851" on="1"/>
        <pt x="223" y="851" on="0"/>
        <pt x="153" y="921" on="0"/>
      </contour>
    </TTGlyph>
    <TTGlyph name="Acircumflex" xMin="21" yMin="0" xMax="519" yMax="955">
      <contour>
        <pt x="21" y="28" on="1"/>
        <pt x="21" y="33" on="0"/>
        <pt x="22" y="35" on="1"/>
        <pt x="231" y="714" on="1"/>
        <pt x="238" y="737" on="0"/>
        <pt x="302" y="737" on="0"/>
        <pt x="310" y="714" on="1"/>
        <pt x="518" y="35" on="1"/>
        <pt x="518" y="34" on="0"/>
        <pt x="519" y="30" on="0"/>
        <pt x="519" y="29" on="1"/>
        <pt x="519" y="17" on="0"/>
        <pt x="493" y="0" on="0"/>
        <pt x="479" y="0" on="1"/>
        <pt x="460" y="0" on="0"/>
        <pt x="454" y="17" on="1"/>
        <pt x="408" y="171" on="1"/>
        <pt x="131" y="171" on="1"/>
        <pt x="85" y="17" on="1"/>
        <pt x="81" y="0" on="0"/>
        <pt x="59" y="0" on="1"/>
        <pt x="45" y="0" on="0"/>
        <pt x="21" y="16" on="0"/>
      </contour>
      <contour>
        <pt x="135" y="872" on="1"/>
        <pt x="135" y="887" on="0"/>
        <pt x="148" y="894" on="1"/>
        <pt x="252" y="950" on="1"/>
        <pt x="260" y="955" on="0"/>
        <pt x="278" y="955" on="0"/>
        <pt x="286" y="950" on="1"/>
        <pt x="390" y="894" on="1"/>
        <pt x="403" y="888" on="0"/>
        <pt x="403" y="871" on="1"/>
        <pt x="403" y="861" on="0"/>
        <pt x="391" y="847" on="0"/>
        <pt x="383" y="847" on="1"/>
        <pt x="382" y="847" on="0"/>
        <pt x="373" y="850" on="1"/>
        <pt x="269" y="905" on="1"/>
        <pt x="165" y="849" on="1"/>
        <pt x="156" y="846" on="1"/>
        <pt x="148" y="846" on="0"/>
        <pt x="135" y="862" on="0"/>
      </contour>
      <contour>
        <pt x="148" y="228" on="1"/>
        <pt x="391" y="228" on="1"/>
        <pt x="270" y="631" on="1"/>
      </contour>
    </TTGlyph>
    <TTGlyph name="Adieresis" xMin="21" yMin="0" xMax="519" yMax="920">
      <contour>
        <pt x="21" y="28" on="1"/>
        <pt x="21" y="33" on="0"/>
        <pt x="22" y="35" on="1"/>
        <pt x="231" y="714" on="1"/>
        <pt x="238" y="737" on="0"/>
        <pt x="302" y="737" on="0"/>
        <pt x="310" y="714" on="1"/>
        <pt x="518" y="35" on="1"/>
        <pt x="518" y="34" on="0"/>
        <pt x="519" y="30" on="0"/>
        <pt x="519" y="29" on="1"/>
        <pt x="519" y="17" on="0"/>
        <pt x="493" y="0" on="0"/>
        <pt x="479" y="0" on="1"/>
        <pt x="460" y="0" on="0"/>
        <pt x="454" y="17" on="1"/>
        <pt x="408" y="171" on="1"/>
        <pt x="131" y="171" on="1"/>
        <pt x="85" y="17" on="1"/>
        <pt x="81" y="0" on="0"/>
        <pt x="59" y="0" on="1"/>
        <pt x="45" y="0" on="0"/>
        <pt x="21" y="16" on="0"/>
      </contour>
      <contour>
        <pt x="148" y="228" on="1"/>
        <pt x="391" y="228" on="1"/>
        <pt x="270" y="631" on="1"/>
      </contour>
      <contour>
        <pt x="172" y="884" on="1"/>
        <pt x="172" y="900" on="0"/>
        <pt x="193" y="920" on="0"/>
        <pt x="209" y="920" on="1"/>
        <pt x="224" y="920" on="0"/>
        <pt x="245" y="900" on="0"/>
        <pt x="245" y="884" on="1"/>
        <pt x="245" y="869" on="0"/>
        <pt x="224" y="847" on="0"/>
        <pt x="209" y="847" on="1"/>
        <pt x="193" y="847" on="0"/>
        <pt x="172" y="869" on="0"/>
      </contour>
      <contour>
        <pt x="295" y="884" on="1"/>
        <pt x="295" y="900" on="0"/>
        <pt x="316" y="920" on="0"/>
        <pt x="348" y="920" on="0"/>
        <pt x="368" y="900" on="0"/>
        <pt x="368" y="884" on="1"/>
        <pt x="368" y="869" on="0"/>
        <pt x="347" y="847" on="0"/>
        <pt x="332" y="847" on="1"/>
        <pt x="316" y="847" on="0"/>
        <pt x="295" y="869" on="0"/>
      </contour>
    </TTGlyph>
    <TTGlyph name="Agrave" xMin="21" yMin="0" xMax="519" yMax="955">
      <contour>
        <pt x="21" y="28" on="1"/>
        <pt x="21" y="33" on="0"/>
        <pt x="22" y="35" on="1"/>
        <pt x="231" y="714" on="1"/>
        <pt x="238" y="737" on="0"/>
        <pt x="302" y="737" on="0"/>
        <pt x="310" y="714" on="1"/>
        <pt x="518" y="35" on="1"/>
        <pt x="518" y="34" on="0"/>
        <pt x="519" y="30" on="0"/>
        <pt x="519" y="29" on="1"/>
        <pt x="519" y="17" on="0"/>
        <pt x="493" y="0" on="0"/>
        <pt x="479" y="0" on="1"/>
        <pt x="460" y="0" on="0"/>
        <pt x="454" y="17" on="1"/>
        <pt x="408" y="171" on="1"/>
        <pt x="131" y="171" on="1"/>
        <pt x="85" y="17" on="1"/>
        <pt x="81" y="0" on="0"/>
        <pt x="59" y="0" on="1"/>
        <pt x="45" y="0" on="0"/>
        <pt x="21" y="16" on="0"/>
      </contour>
      <contour>
        <pt x="148" y="228" on="1"/>
        <pt x="391" y="228" on="1"/>
        <pt x="270" y="631" on="1"/>
      </contour>
      <contour>
        <pt x="188" y="927" on="1"/>
        <pt x="188" y="937" on="0"/>
        <pt x="202" y="955" on="0"/>
        <pt x="212" y="955" on="1"/>
        <pt x="216" y="955" on="0"/>
        <pt x="221" y="952" on="1"/>
        <pt x="332" y="891" on="1"/>
        <pt x="343" y="886" on="0"/>
        <pt x="343" y="873" on="1"/>
        <pt x="343" y="862" on="0"/>
        <pt x="327" y="845" on="0"/>
        <pt x="317" y="845" on="1"/>
        <pt x="312" y="845" on="0"/>
        <pt x="307" y="848" on="1"/>
        <pt x="201" y="905" on="1"/>
        <pt x="188" y="911" on="0"/>
      </contour>
    </TTGlyph>
    <TTGlyph name="Amacron" xMin="21" yMin="0" xMax="519" yMax="940">
      <contour>
        <pt x="21" y="28" on="1"/>
        <pt x="21" y="33" on="0"/>
        <pt x="22" y="35" on="1"/>
        <pt x="231" y="714" on="1"/>
        <pt x="238" y="737" on="0"/>
        <pt x="302" y="737" on="0"/>
        <pt x="310" y="714" on="1"/>
        <pt x="518" y="35" on="1"/>
        <pt x="518" y="34" on="0"/>
        <pt x="519" y="30" on="0"/>
        <pt x="519" y="29" on="1"/>
        <pt x="519" y="17" on="0"/>
        <pt x="493" y="0" on="0"/>
        <pt x="479" y="0" on="1"/>
        <pt x="460" y="0" on="0"/>
        <pt x="454" y="17" on="1"/>
        <pt x="408" y="171" on="1"/>
        <pt x="131" y="171" on="1"/>
        <pt x="85" y="17" on="1"/>
        <pt x="81" y="0" on="0"/>
        <pt x="59" y="0" on="1"/>
        <pt x="45" y="0" on="0"/>
        <pt x="21" y="16" on="0"/>
      </contour>
      <contour>
        <pt x="137" y="903" on="0"/>
        <pt x="137" y="925" on="0"/>
        <pt x="151" y="940" on="0"/>
        <pt x="162" y="940" on="1"/>
        <pt x="377" y="940" on="1"/>
        <pt x="386" y="940" on="0"/>
        <pt x="402" y="925" on="0"/>
        <pt x="402" y="914" on="1"/>
        <pt x="402" y="904" on="0"/>
        <pt x="386" y="889" on="0"/>
        <pt x="377" y="889" on="1"/>
        <pt x="162" y="889" on="1"/>
        <pt x="151" y="889" on="0"/>
      </contour>
      <contour>
        <pt x="148" y="228" on="1"/>
        <pt x="391" y="228" on="1"/>
        <pt x="270" y="631" on="1"/>
      </contour>
    </TTGlyph>
    <TTGlyph name="Aogonek" xMin="21" yMin="-201" xMax="519" yMax="737">
      <contour>
        <pt x="21" y="28" on="1"/>
        <pt x="21" y="33" on="0"/>
        <pt x="22" y="35" on="1"/>
        <pt x="231" y="714" on="1"/>
        <pt x="238" y="737" on="0"/>
        <pt x="302" y="737" on="0"/>
        <pt x="310" y="714" on="1"/>
        <pt x="518" y="35" on="1"/>
        <pt x="518" y="34" on="0"/>
        <pt x="519" y="30" on="0"/>
        <pt x="519" y="29" on="1"/>
        <pt x="519" y="13" on="0"/>
        <pt x="496" y="3" on="1"/>
        <pt x="423" y="-59" on="0"/>
        <pt x="423" y="-121" on="1"/>
        <pt x="423" y="-166" on="0"/>
        <pt x="485" y="-166" on="1"/>
        <pt x="505" y="-166" on="0"/>
        <pt x="505" y="-184" on="1"/>
        <pt x="505" y="-201" on="0"/>
        <pt x="480" y="-201" on="1"/>
        <pt x="439" y="-201" on="0"/>
        <pt x="383" y="-164" on="0"/>
        <pt x="383" y="-126" on="1"/>
        <pt x="383" y="-52" on="0"/>
        <pt x="455" y="13" on="1"/>
        <pt x="455" y="14" on="0"/>
        <pt x="454" y="16" on="0"/>
        <pt x="454" y="17" on="1"/>
        <pt x="408" y="171" on="1"/>
        <pt x="131" y="171" on="1"/>
        <pt x="85" y="17" on="1"/>
        <pt x="81" y="0" on="0"/>
        <pt x="59" y="0" on="1"/>
        <pt x="45" y="0" on="0"/>
        <pt x="21" y="16" on="0"/>
      </contour>
      <contour>
        <pt x="148" y="228" on="1"/>
        <pt x="391" y="228" on="1"/>
        <pt x="270" y="631" on="1"/>
      </contour>
    </TTGlyph>
    <TTGlyph name="Aring" xMin="21" yMin="0" xMax="519" yMax="1022">
      <contour>
        <pt x="21" y="28" on="1"/>
        <pt x="21" y="33" on="0"/>
        <pt x="22" y="35" on="1"/>
        <pt x="231" y="714" on="1"/>
        <pt x="238" y="737" on="0"/>
        <pt x="302" y="737" on="0"/>
        <pt x="310" y="714" on="1"/>
        <pt x="518" y="35" on="1"/>
        <pt x="518" y="34" on="0"/>
        <pt x="519" y="30" on="0"/>
        <pt x="519" y="29" on="1"/>
        <pt x="519" y="17" on="0"/>
        <pt x="493" y="0" on="0"/>
        <pt x="479" y="0" on="1"/>
        <pt x="460" y="0" on="0"/>
        <pt x="454" y="17" on="1"/>
        <pt x="408" y="171" on="1"/>
        <pt x="131" y="171" on="1"/>
        <pt x="85" y="17" on="1"/>
        <pt x="81" y="0" on="0"/>
        <pt x="59" y="0" on="1"/>
        <pt x="45" y="0" on="0"/>
        <pt x="21" y="16" on="0"/>
      </contour>
      <contour>
        <pt x="148" y="228" on="1"/>
        <pt x="391" y="228" on="1"/>
        <pt x="270" y="631" on="1"/>
      </contour>
      <contour>
        <pt x="177" y="929" on="1"/>
        <pt x="177" y="966" on="0"/>
        <pt x="231" y="1022" on="0"/>
        <pt x="269" y="1022" on="1"/>
        <pt x="306" y="1022" on="0"/>
        <pt x="362" y="966" on="0"/>
        <pt x="362" y="929" on="1"/>
        <pt x="362" y="891" on="0"/>
        <pt x="306" y="833" on="0"/>
        <pt x="232" y="833" on="0"/>
        <pt x="177" y="891" on="0"/>
      </contour>
      <contour>
        <pt x="210" y="929" on="1"/>
        <pt x="210" y="905" on="0"/>
        <pt x="246" y="866" on="0"/>
        <pt x="270" y="866" on="1"/>
        <pt x="293" y="866" on="0"/>
        <pt x="328" y="905" on="0"/>
        <pt x="328" y="929" on="1"/>
        <pt x="328" y="951" on="0"/>
        <pt x="293" y="987" on="0"/>
        <pt x="270" y="987" on="1"/>
        <pt x="245" y="987" on="0"/>
        <pt x="210" y="951" on="0"/>
      </contour>
    </TTGlyph>
    <TTGlyph name="Atilde" xMin="21" yMin="0" xMax="519" yMax="948">
      <contour>
        <pt x="21" y="28" on="1"/>
        <pt x="21" y="33" on="0"/>
        <pt x="22" y="35" on="1"/>
        <pt x="231" y="714" on="1"/>
        <pt x="238" y="737" on="0"/>
        <pt x="302" y="737" on="0"/>
        <pt x="310" y="714" on="1"/>
        <pt x="518" y="35" on="1"/>
        <pt x="518" y="34" on="0"/>
        <pt x="519" y="30" on="0"/>
        <pt x="519" y="29" on="1"/>
        <pt x="519" y="17" on="0"/>
        <pt x="493" y="0" on="0"/>
        <pt x="479" y="0" on="1"/>
        <pt x="460" y="0" on="0"/>
        <pt x="454" y="17" on="1"/>
        <pt x="408" y="171" on="1"/>
        <pt x="131" y="171" on="1"/>
        <pt x="85" y="17" on="1"/>
        <pt x="81" y="0" on="0"/>
        <pt x="59" y="0" on="1"/>
        <pt x="45" y="0" on="0"/>
        <pt x="21" y="16" on="0"/>
      </contour>
      <contour>
        <pt x="115" y="866" on="0"/>
        <pt x="115" y="916" on="0"/>
        <pt x="174" y="948" on="0"/>
        <pt x="203" y="948" on="1"/>
        <pt x="229" y="948" on="0"/>
        <pt x="309" y="914" on="0"/>
        <pt x="361" y="914" on="0"/>
        <pt x="399" y="943" on="0"/>
        <pt x="405" y="943" on="1"/>
        <pt x="414" y="943" on="0"/>
        <pt x="425" y="928" on="0"/>
        <pt x="425" y="920" on="1"/>
        <pt x="425" y="892" on="0"/>
        <pt x="369" y="863" on="0"/>
        <pt x="341" y="863" on="1"/>
        <pt x="314" y="863" on="0"/>
        <pt x="235" y="898" on="0"/>
        <pt x="208" y="898" on="1"/>
        <pt x="183" y="898" on="0"/>
        <pt x="139" y="866" on="0"/>
        <pt x="134" y="866" on="1"/>
      </contour>
      <contour>
        <pt x="148" y="228" on="1"/>
        <pt x="391" y="228" on="1"/>
        <pt x="270" y="631" on="1"/>
      </contour>
    </TTGlyph>
    <TTGlyph name="B" xMin="76" yMin="0" xMax="492" yMax="731">
      <contour>
        <pt x="76" y="25" on="1"/>
        <pt x="76" y="706" on="1"/>
        <pt x="76" y="718" on="0"/>
        <pt x="94" y="731" on="0"/>
        <pt x="106" y="731" on="1"/>
        <pt x="270" y="731" on="1"/>
        <pt x="316" y="731" on="0"/>
        <pt x="384" y="717" on="0"/>
        <pt x="443" y="681" on="0"/>
        <pt x="474" y="612" on="0"/>
        <pt x="474" y="561" on="1"/>
        <pt x="474" y="499" on="0"/>
        <pt x="428" y="413" on="0"/>
        <pt x="389" y="396" on="1"/>
        <pt x="439" y="376" on="0"/>
        <pt x="492" y="296" on="0"/>
        <pt x="492" y="224" on="1"/>
        <pt x="492" y="206" on="1"/>
        <pt x="492" y="98" on="0"/>
        <pt x="384" y="0" on="0"/>
        <pt x="294" y="0" on="1"/>
        <pt x="106" y="0" on="1"/>
        <pt x="92" y="0" on="0"/>
        <pt x="76" y="15" on="0"/>
      </contour>
      <contour>
        <pt x="141" y="61" on="1"/>
        <pt x="286" y="61" on="1"/>
        <pt x="426" y="61" on="0"/>
        <pt x="426" y="209" on="1"/>
        <pt x="426" y="226" on="1"/>
        <pt x="426" y="368" on="0"/>
        <pt x="286" y="368" on="1"/>
        <pt x="141" y="368" on="1"/>
      </contour>
      <contour>
        <pt x="141" y="425" on="1"/>
        <pt x="272" y="425" on="1"/>
        <pt x="343" y="425" on="0"/>
        <pt x="408" y="484" on="0"/>
        <pt x="408" y="554" on="1"/>
        <pt x="408" y="619" on="0"/>
        <pt x="336" y="670" on="0"/>
        <pt x="268" y="670" on="1"/>
        <pt x="141" y="670" on="1"/>
      </contour>
    </TTGlyph>
    <TTGlyph name="C" xMin="68" yMin="-6" xMax="484" yMax="731">
      <contour>
        <pt x="68" y="208" on="1"/>
        <pt x="68" y="518" on="1"/>
        <pt x="68" y="627" on="0"/>
        <pt x="185" y="731" on="0"/>
        <pt x="278" y="731" on="1"/>
        <pt x="373" y="731" on="0"/>
        <pt x="484" y="634" on="0"/>
        <pt x="484" y="564" on="1"/>
        <pt x="484" y="540" on="0"/>
        <pt x="469" y="524" on="0"/>
        <pt x="451" y="524" on="1"/>
        <pt x="420" y="524" on="0"/>
        <pt x="418" y="549" on="1"/>
        <pt x="417" y="564" on="0"/>
        <pt x="411" y="592" on="0"/>
        <pt x="393" y="627" on="0"/>
        <pt x="364" y="653" on="0"/>
        <pt x="312" y="670" on="0"/>
        <pt x="278" y="670" on="1"/>
        <pt x="134" y="670" on="0"/>
        <pt x="134" y="518" on="1"/>
        <pt x="134" y="208" on="1"/>
        <pt x="134" y="55" on="0"/>
        <pt x="282" y="55" on="1"/>
        <pt x="324" y="55" on="0"/>
        <pt x="380" y="78" on="0"/>
        <pt x="406" y="122" on="0"/>
        <pt x="415" y="153" on="0"/>
        <pt x="418" y="178" on="1"/>
        <pt x="421" y="204" on="0"/>
        <pt x="451" y="204" on="1"/>
        <pt x="469" y="204" on="0"/>
        <pt x="484" y="187" on="0"/>
        <pt x="484" y="163" on="1"/>
        <pt x="484" y="92" on="0"/>
        <pt x="371" y="-6" on="0"/>
        <pt x="275" y="-6" on="1"/>
        <pt x="183" y="-6" on="0"/>
        <pt x="68" y="98" on="0"/>
      </contour>
    </TTGlyph>
    <TTGlyph name="Cacute" xMin="68" yMin="-6" xMax="484" yMax="955">
      <contour>
        <pt x="68" y="208" on="1"/>
        <pt x="68" y="518" on="1"/>
        <pt x="68" y="627" on="0"/>
        <pt x="185" y="731" on="0"/>
        <pt x="278" y="731" on="1"/>
        <pt x="373" y="731" on="0"/>
        <pt x="484" y="634" on="0"/>
        <pt x="484" y="564" on="1"/>
        <pt x="484" y="540" on="0"/>
        <pt x="469" y="524" on="0"/>
        <pt x="451" y="524" on="1"/>
        <pt x="420" y="524" on="0"/>
        <pt x="418" y="549" on="1"/>
        <pt x="417" y="564" on="0"/>
        <pt x="411" y="592" on="0"/>
        <pt x="393" y="627" on="0"/>
        <pt x="364" y="653" on="0"/>
        <pt x="312" y="670" on="0"/>
        <pt x="278" y="670" on="1"/>
        <pt x="134" y="670" on="0"/>
        <pt x="134" y="518" on="1"/>
        <pt x="134" y="208" on="1"/>
        <pt x="134" y="55" on="0"/>
        <pt x="282" y="55" on="1"/>
        <pt x="324" y="55" on="0"/>
        <pt x="380" y="78" on="0"/>
        <pt x="406" y="122" on="0"/>
        <pt x="415" y="153" on="0"/>
        <pt x="418" y="178" on="1"/>
        <pt x="421" y="204" on="0"/>
        <pt x="451" y="204" on="1"/>
        <pt x="469" y="204" on="0"/>
        <pt x="484" y="187" on="0"/>
        <pt x="484" y="163" on="1"/>
        <pt x="484" y="92" on="0"/>
        <pt x="371" y="-6" on="0"/>
        <pt x="275" y="-6" on="1"/>
        <pt x="183" y="-6" on="0"/>
        <pt x="68" y="98" on="0"/>
      </contour>
      <contour>
        <pt x="205" y="873" on="1"/>
        <pt x="205" y="886" on="0"/>
        <pt x="216" y="891" on="1"/>
        <pt x="328" y="952" on="1"/>
        <pt x="331" y="955" on="0"/>
        <pt x="336" y="955" on="1"/>
        <pt x="347" y="955" on="0"/>
        <pt x="360" y="938" on="0"/>
        <pt x="360" y="927" on="1"/>
        <pt x="360" y="911" on="0"/>
        <pt x="348" y="905" on="1"/>
        <pt x="241" y="848" on="1"/>
        <pt x="236" y="845" on="0"/>
        <pt x="231" y="845" on="1"/>
        <pt x="221" y="845" on="0"/>
        <pt x="205" y="862" on="0"/>
      </contour>
    </TTGlyph>
    <TTGlyph name="Ccaron" xMin="68" yMin="-6" xMax="484" yMax="985">
      <contour>
        <pt x="68" y="208" on="1"/>
        <pt x="68" y="518" on="1"/>
        <pt x="68" y="627" on="0"/>
        <pt x="185" y="731" on="0"/>
        <pt x="278" y="731" on="1"/>
        <pt x="373" y="731" on="0"/>
        <pt x="484" y="634" on="0"/>
        <pt x="484" y="564" on="1"/>
        <pt x="484" y="540" on="0"/>
        <pt x="469" y="524" on="0"/>
        <pt x="451" y="524" on="1"/>
        <pt x="420" y="524" on="0"/>
        <pt x="418" y="549" on="1"/>
        <pt x="417" y="564" on="0"/>
        <pt x="411" y="592" on="0"/>
        <pt x="393" y="627" on="0"/>
        <pt x="364" y="653" on="0"/>
        <pt x="312" y="670" on="0"/>
        <pt x="278" y="670" on="1"/>
        <pt x="134" y="670" on="0"/>
        <pt x="134" y="518" on="1"/>
        <pt x="134" y="208" on="1"/>
        <pt x="134" y="55" on="0"/>
        <pt x="282" y="55" on="1"/>
        <pt x="324" y="55" on="0"/>
        <pt x="380" y="78" on="0"/>
        <pt x="406" y="122" on="0"/>
        <pt x="415" y="153" on="0"/>
        <pt x="418" y="178" on="1"/>
        <pt x="421" y="204" on="0"/>
        <pt x="451" y="204" on="1"/>
        <pt x="469" y="204" on="0"/>
        <pt x="484" y="187" on="0"/>
        <pt x="484" y="163" on="1"/>
        <pt x="484" y="92" on="0"/>
        <pt x="371" y="-6" on="0"/>
        <pt x="275" y="-6" on="1"/>
        <pt x="183" y="-6" on="0"/>
        <pt x="68" y="98" on="0"/>
      </contour>
      <contour>
        <pt x="141" y="963" on="1"/>
        <pt x="141" y="972" on="0"/>
        <pt x="152" y="985" on="0"/>
        <pt x="160" y="985" on="1"/>
        <pt x="169" y="985" on="0"/>
        <pt x="175" y="979" on="1"/>
        <pt x="275" y="887" on="1"/>
        <pt x="374" y="979" on="1"/>
        <pt x="380" y="985" on="0"/>
        <pt x="389" y="985" on="1"/>
        <pt x="397" y="985" on="0"/>
        <pt x="408" y="972" on="0"/>
        <pt x="408" y="963" on="1"/>
        <pt x="408" y="950" on="0"/>
        <pt x="396" y="940" on="1"/>
        <pt x="295" y="850" on="1"/>
        <pt x="283" y="840" on="0"/>
        <pt x="275" y="840" on="1"/>
        <pt x="265" y="840" on="0"/>
        <pt x="255" y="850" on="1"/>
        <pt x="154" y="940" on="1"/>
        <pt x="141" y="950" on="0"/>
      </contour>
    </TTGlyph>
    <TTGlyph name="Ccedilla" xMin="68" yMin="-210" xMax="484" yMax="731">
      <contour>
        <pt x="68" y="208" on="1"/>
        <pt x="68" y="518" on="1"/>
        <pt x="68" y="627" on="0"/>
        <pt x="185" y="731" on="0"/>
        <pt x="278" y="731" on="1"/>
        <pt x="373" y="731" on="0"/>
        <pt x="484" y="634" on="0"/>
        <pt x="484" y="564" on="1"/>
        <pt x="484" y="540" on="0"/>
        <pt x="469" y="524" on="0"/>
        <pt x="451" y="524" on="1"/>
        <pt x="420" y="524" on="0"/>
        <pt x="418" y="549" on="1"/>
        <pt x="417" y="564" on="0"/>
        <pt x="411" y="592" on="0"/>
        <pt x="393" y="627" on="0"/>
        <pt x="364" y="653" on="0"/>
        <pt x="312" y="670" on="0"/>
        <pt x="278" y="670" on="1"/>
        <pt x="134" y="670" on="0"/>
        <pt x="134" y="518" on="1"/>
        <pt x="134" y="208" on="1"/>
        <pt x="134" y="55" on="0"/>
        <pt x="282" y="55" on="1"/>
        <pt x="324" y="55" on="0"/>
        <pt x="380" y="78" on="0"/>
        <pt x="406" y="122" on="0"/>
        <pt x="415" y="153" on="0"/>
        <pt x="418" y="178" on="1"/>
        <pt x="421" y="204" on="0"/>
        <pt x="451" y="204" on="1"/>
        <pt x="469" y="204" on="0"/>
        <pt x="484" y="187" on="0"/>
        <pt x="484" y="163" on="1"/>
        <pt x="484" y="99" on="0"/>
        <pt x="391" y="6" on="0"/>
        <pt x="311" y="-3" on="1"/>
        <pt x="296" y="-61" on="1"/>
        <pt x="344" y="-62" on="0"/>
        <pt x="392" y="-103" on="0"/>
        <pt x="392" y="-163" on="0"/>
        <pt x="346" y="-210" on="0"/>
        <pt x="303" y="-210" on="1"/>
        <pt x="278" y="-210" on="0"/>
        <pt x="225" y="-196" on="0"/>
        <pt x="225" y="-184" on="1"/>
        <pt x="225" y="-178" on="0"/>
        <pt x="234" y="-160" on="0"/>
        <pt x="241" y="-160" on="1"/>
        <pt x="242" y="-160" on="0"/>
        <pt x="277" y="-174" on="0"/>
        <pt x="297" y="-174" on="1"/>
        <pt x="350" y="-174" on="0"/>
        <pt x="350" y="-135" on="1"/>
        <pt x="350" y="-98" on="0"/>
        <pt x="287" y="-93" on="1"/>
        <pt x="249" y="-90" on="1"/>
        <pt x="271" y="-6" on="1"/>
        <pt x="180" y="-4" on="0"/>
        <pt x="68" y="99" on="0"/>
      </contour>
    </TTGlyph>
    <TTGlyph name="Ccircumflex" xMin="68" yMin="-6" xMax="484" yMax="955">
      <contour>
        <pt x="68" y="208" on="1"/>
        <pt x="68" y="518" on="1"/>
        <pt x="68" y="627" on="0"/>
        <pt x="185" y="731" on="0"/>
        <pt x="278" y="731" on="1"/>
        <pt x="373" y="731" on="0"/>
        <pt x="484" y="634" on="0"/>
        <pt x="484" y="564" on="1"/>
        <pt x="484" y="540" on="0"/>
        <pt x="469" y="524" on="0"/>
        <pt x="451" y="524" on="1"/>
        <pt x="420" y="524" on="0"/>
        <pt x="418" y="549" on="1"/>
        <pt x="417" y="564" on="0"/>
        <pt x="411" y="592" on="0"/>
        <pt x="393" y="627" on="0"/>
        <pt x="364" y="653" on="0"/>
        <pt x="312" y="670" on="0"/>
        <pt x="278" y="670" on="1"/>
        <pt x="134" y="670" on="0"/>
        <pt x="134" y="518" on="1"/>
        <pt x="134" y="208" on="1"/>
        <pt x="134" y="55" on="0"/>
        <pt x="282" y="55" on="1"/>
        <pt x="324" y="55" on="0"/>
        <pt x="380" y="78" on="0"/>
        <pt x="406" y="122" on="0"/>
        <pt x="415" y="153" on="0"/>
        <pt x="418" y="178" on="1"/>
        <pt x="421" y="204" on="0"/>
        <pt x="451" y="204" on="1"/>
        <pt x="469" y="204" on="0"/>
        <pt x="484" y="187" on="0"/>
        <pt x="484" y="163" on="1"/>
        <pt x="484" y="92" on="0"/>
        <pt x="371" y="-6" on="0"/>
        <pt x="275" y="-6" on="1"/>
        <pt x="183" y="-6" on="0"/>
        <pt x="68" y="98" on="0"/>
      </contour>
      <contour>
        <pt x="142" y="872" on="1"/>
        <pt x="142" y="887" on="0"/>
        <pt x="155" y="894" on="1"/>
        <pt x="259" y="950" on="1"/>
        <pt x="267" y="955" on="0"/>
        <pt x="285" y="955" on="0"/>
        <pt x="293" y="950" on="1"/>
        <pt x="397" y="894" on="1"/>
        <pt x="410" y="888" on="0"/>
        <pt x="410" y="871" on="1"/>
        <pt x="410" y="861" on="0"/>
        <pt x="398" y="847" on="0"/>
        <pt x="390" y="847" on="1"/>
        <pt x="389" y="847" on="0"/>
        <pt x="380" y="850" on="1"/>
        <pt x="276" y="905" on="1"/>
        <pt x="172" y="849" on="1"/>
        <pt x="163" y="846" on="1"/>
        <pt x="155" y="846" on="0"/>
        <pt x="142" y="862" on="0"/>
      </contour>
    </TTGlyph>
    <TTGlyph name="Cdotaccent" xMin="68" yMin="-6" xMax="484" yMax="920">
      <contour>
        <pt x="68" y="208" on="1"/>
        <pt x="68" y="518" on="1"/>
        <pt x="68" y="627" on="0"/>
        <pt x="185" y="731" on="0"/>
        <pt x="278" y="731" on="1"/>
        <pt x="373" y="731" on="0"/>
        <pt x="484" y="634" on="0"/>
        <pt x="484" y="564" on="1"/>
        <pt x="484" y="540" on="0"/>
        <pt x="469" y="524" on="0"/>
        <pt x="451" y="524" on="1"/>
        <pt x="420" y="524" on="0"/>
        <pt x="418" y="549" on="1"/>
        <pt x="417" y="564" on="0"/>
        <pt x="411" y="592" on="0"/>
        <pt x="393" y="627" on="0"/>
        <pt x="364" y="653" on="0"/>
        <pt x="312" y="670" on="0"/>
        <pt x="278" y="670" on="1"/>
        <pt x="134" y="670" on="0"/>
        <pt x="134" y="518" on="1"/>
        <pt x="134" y="208" on="1"/>
        <pt x="134" y="55" on="0"/>
        <pt x="282" y="55" on="1"/>
        <pt x="324" y="55" on="0"/>
        <pt x="380" y="78" on="0"/>
        <pt x="406" y="122" on="0"/>
        <pt x="415" y="153" on="0"/>
        <pt x="418" y="178" on="1"/>
        <pt x="421" y="204" on="0"/>
        <pt x="451" y="204" on="1"/>
        <pt x="469" y="204" on="0"/>
        <pt x="484" y="187" on="0"/>
        <pt x="484" y="163" on="1"/>
        <pt x="484" y="92" on="0"/>
        <pt x="371" y="-6" on="0"/>
        <pt x="275" y="-6" on="1"/>
        <pt x="183" y="-6" on="0"/>
        <pt x="68" y="98" on="0"/>
      </contour>
      <contour>
        <pt x="240" y="884" on="1"/>
        <pt x="240" y="900" on="0"/>
        <pt x="261" y="920" on="0"/>
        <pt x="277" y="920" on="1"/>
        <pt x="292" y="920" on="0"/>
        <pt x="313" y="900" on="0"/>
        <pt x="313" y="884" on="1"/>
        <pt x="313" y="869" on="0"/>
        <pt x="292" y="847" on="0"/>
        <pt x="277" y="847" on="1"/>
        <pt x="261" y="847" on="0"/>
        <pt x="240" y="869" on="0"/>
      </contour>
    </TTGlyph>
    <TTGlyph name="D" xMin="76" yMin="0" xMax="492" yMax="731">
      <contour>
        <pt x="76" y="25" on="1"/>
        <pt x="76" y="707" on="1"/>
        <pt x="76" y="717" on="0"/>
        <pt x="93" y="731" on="0"/>
        <pt x="106" y="731" on="1"/>
        <pt x="283" y="731" on="1"/>
        <pt x="378" y="731" on="0"/>
        <pt x="492" y="628" on="0"/>
        <pt x="492" y="518" on="1"/>
        <pt x="492" y="214" on="1"/>
        <pt x="492" y="103" on="0"/>
        <pt x="378" y="0" on="0"/>
        <pt x="283" y="0" on="1"/>
        <pt x="106" y="0" on="1"/>
        <pt x="93" y="0" on="0"/>
        <pt x="76" y="15" on="0"/>
      </contour>
      <contour>
        <pt x="142" y="61" on="1"/>
        <pt x="283" y="61" on="1"/>
        <pt x="351" y="61" on="0"/>
        <pt x="426" y="138" on="0"/>
        <pt x="426" y="214" on="1"/>
        <pt x="426" y="518" on="1"/>
        <pt x="426" y="594" on="0"/>
        <pt x="351" y="670" on="0"/>
        <pt x="283" y="670" on="1"/>
        <pt x="142" y="670" on="1"/>
      </contour>
    </TTGlyph>
    <TTGlyph name="Dcaron" xMin="76" yMin="0" xMax="492" yMax="985">
      <contour>
        <pt x="76" y="25" on="1"/>
        <pt x="76" y="707" on="1"/>
        <pt x="76" y="717" on="0"/>
        <pt x="93" y="731" on="0"/>
        <pt x="106" y="731" on="1"/>
        <pt x="283" y="731" on="1"/>
        <pt x="378" y="731" on="0"/>
        <pt x="492" y="628" on="0"/>
        <pt x="492" y="518" on="1"/>
        <pt x="492" y="214" on="1"/>
        <pt x="492" y="103" on="0"/>
        <pt x="378" y="0" on="0"/>
        <pt x="283" y="0" on="1"/>
        <pt x="106" y="0" on="1"/>
        <pt x="93" y="0" on="0"/>
        <pt x="76" y="15" on="0"/>
      </contour>
      <contour>
        <pt x="142" y="61" on="1"/>
        <pt x="283" y="61" on="1"/>
        <pt x="351" y="61" on="0"/>
        <pt x="426" y="138" on="0"/>
        <pt x="426" y="214" on="1"/>
        <pt x="426" y="518" on="1"/>
        <pt x="426" y="594" on="0"/>
        <pt x="351" y="670" on="0"/>
        <pt x="283" y="670" on="1"/>
        <pt x="142" y="670" on="1"/>
      </contour>
      <contour>
        <pt x="143" y="963" on="1"/>
        <pt x="143" y="972" on="0"/>
        <pt x="154" y="985" on="0"/>
        <pt x="162" y="985" on="1"/>
        <pt x="171" y="985" on="0"/>
        <pt x="177" y="979" on="1"/>
        <pt x="277" y="887" on="1"/>
        <pt x="376" y="979" on="1"/>
        <pt x="382" y="985" on="0"/>
        <pt x="391" y="985" on="1"/>
        <pt x="399" y="985" on="0"/>
        <pt x="410" y="972" on="0"/>
        <pt x="410" y="963" on="1"/>
        <pt x="410" y="950" on="0"/>
        <pt x="398" y="940" on="1"/>
        <pt x="297" y="850" on="1"/>
        <pt x="285" y="840" on="0"/>
        <pt x="277" y="840" on="1"/>
        <pt x="267" y="840" on="0"/>
        <pt x="257" y="850" on="1"/>
        <pt x="156" y="940" on="1"/>
        <pt x="143" y="950" on="0"/>
      </contour>
    </TTGlyph>
    <TTGlyph name="Dcroat" xMin="-1" yMin="0" xMax="501" yMax="731">
      <contour>
        <pt x="-1" y="384" on="1"/>
        <pt x="-1" y="395" on="0"/>
        <pt x="12" y="411" on="0"/>
        <pt x="22" y="411" on="1"/>
        <pt x="85" y="411" on="1"/>
        <pt x="85" y="707" on="1"/>
        <pt x="85" y="717" on="0"/>
        <pt x="102" y="731" on="0"/>
        <pt x="115" y="731" on="1"/>
        <pt x="292" y="731" on="1"/>
        <pt x="387" y="731" on="0"/>
        <pt x="501" y="628" on="0"/>
        <pt x="501" y="518" on="1"/>
        <pt x="501" y="214" on="1"/>
        <pt x="501" y="103" on="0"/>
        <pt x="387" y="0" on="0"/>
        <pt x="292" y="0" on="1"/>
        <pt x="115" y="0" on="1"/>
        <pt x="102" y="0" on="0"/>
        <pt x="85" y="15" on="0"/>
        <pt x="85" y="25" on="1"/>
        <pt x="85" y="357" on="1"/>
        <pt x="22" y="357" on="1"/>
        <pt x="12" y="357" on="0"/>
        <pt x="-1" y="372" on="0"/>
      </contour>
      <contour>
        <pt x="151" y="61" on="1"/>
        <pt x="292" y="61" on="1"/>
        <pt x="360" y="61" on="0"/>
        <pt x="435" y="138" on="0"/>
        <pt x="435" y="214" on="1"/>
        <pt x="435" y="518" on="1"/>
        <pt x="435" y="594" on="0"/>
        <pt x="360" y="670" on="0"/>
        <pt x="292" y="670" on="1"/>
        <pt x="151" y="670" on="1"/>
        <pt x="151" y="411" on="1"/>
        <pt x="264" y="411" on="1"/>
        <pt x="274" y="411" on="0"/>
        <pt x="287" y="395" on="0"/>
        <pt x="287" y="373" on="0"/>
        <pt x="274" y="357" on="0"/>
        <pt x="264" y="357" on="1"/>
        <pt x="151" y="357" on="1"/>
      </contour>
    </TTGlyph>
    <TTGlyph name="E" xMin="76" yMin="0" xMax="487" yMax="731">
      <contour>
        <pt x="76" y="26" on="1"/>
        <pt x="76" y="706" on="1"/>
        <pt x="76" y="718" on="0"/>
        <pt x="94" y="731" on="0"/>
        <pt x="106" y="731" on="1"/>
        <pt x="462" y="731" on="1"/>
        <pt x="487" y="731" on="0"/>
        <pt x="487" y="702" on="1"/>
        <pt x="487" y="689" on="0"/>
        <pt x="474" y="670" on="0"/>
        <pt x="462" y="670" on="1"/>
        <pt x="142" y="670" on="1"/>
        <pt x="142" y="395" on="1"/>
        <pt x="299" y="395" on="1"/>
        <pt x="311" y="395" on="0"/>
        <pt x="324" y="378" on="0"/>
        <pt x="324" y="365" on="1"/>
        <pt x="324" y="338" on="0"/>
        <pt x="299" y="338" on="1"/>
        <pt x="142" y="338" on="1"/>
        <pt x="142" y="61" on="1"/>
        <pt x="462" y="61" on="1"/>
        <pt x="473" y="61" on="0"/>
        <pt x="487" y="43" on="0"/>
        <pt x="487" y="30" on="1"/>
        <pt x="487" y="0" on="0"/>
        <pt x="462" y="0" on="1"/>
        <pt x="106" y="0" on="1"/>
        <pt x="94" y="0" on="0"/>
        <pt x="76" y="14" on="0"/>
      </contour>
    </TTGlyph>
    <TTGlyph name="Eacute" xMin="76" yMin="0" xMax="487" yMax="955">
      <contour>
        <pt x="76" y="26" on="1"/>
        <pt x="76" y="706" on="1"/>
        <pt x="76" y="718" on="0"/>
        <pt x="94" y="731" on="0"/>
        <pt x="106" y="731" on="1"/>
        <pt x="462" y="731" on="1"/>
        <pt x="487" y="731" on="0"/>
        <pt x="487" y="702" on="1"/>
        <pt x="487" y="689" on="0"/>
        <pt x="474" y="670" on="0"/>
        <pt x="462" y="670" on="1"/>
        <pt x="142" y="670" on="1"/>
        <pt x="142" y="395" on="1"/>
        <pt x="299" y="395" on="1"/>
        <pt x="311" y="395" on="0"/>
        <pt x="324" y="378" on="0"/>
        <pt x="324" y="365" on="1"/>
        <pt x="324" y="338" on="0"/>
        <pt x="299" y="338" on="1"/>
        <pt x="142" y="338" on="1"/>
        <pt x="142" y="61" on="1"/>
        <pt x="462" y="61" on="1"/>
        <pt x="473" y="61" on="0"/>
        <pt x="487" y="43" on="0"/>
        <pt x="487" y="30" on="1"/>
        <pt x="487" y="0" on="0"/>
        <pt x="462" y="0" on="1"/>
        <pt x="106" y="0" on="1"/>
        <pt x="94" y="0" on="0"/>
        <pt x="76" y="14" on="0"/>
      </contour>
      <contour>
        <pt x="210" y="873" on="1"/>
        <pt x="210" y="886" on="0"/>
        <pt x="221" y="891" on="1"/>
        <pt x="333" y="952" on="1"/>
        <pt x="336" y="955" on="0"/>
        <pt x="341" y="955" on="1"/>
        <pt x="352" y="955" on="0"/>
        <pt x="365" y="938" on="0"/>
        <pt x="365" y="927" on="1"/>
        <pt x="365" y="911" on="0"/>
        <pt x="353" y="905" on="1"/>
        <pt x="246" y="848" on="1"/>
        <pt x="242" y="845" on="0"/>
        <pt x="236" y="845" on="1"/>
        <pt x="226" y="845" on="0"/>
        <pt x="210" y="862" on="0"/>
      </contour>
    </TTGlyph>
    <TTGlyph name="Ebreve" xMin="76" yMin="0" xMax="487" yMax="968">
      <contour>
        <pt x="76" y="26" on="1"/>
        <pt x="76" y="706" on="1"/>
        <pt x="76" y="718" on="0"/>
        <pt x="94" y="731" on="0"/>
        <pt x="106" y="731" on="1"/>
        <pt x="462" y="731" on="1"/>
        <pt x="487" y="731" on="0"/>
        <pt x="487" y="702" on="1"/>
        <pt x="487" y="689" on="0"/>
        <pt x="474" y="670" on="0"/>
        <pt x="462" y="670" on="1"/>
        <pt x="142" y="670" on="1"/>
        <pt x="142" y="395" on="1"/>
        <pt x="299" y="395" on="1"/>
        <pt x="311" y="395" on="0"/>
        <pt x="324" y="378" on="0"/>
        <pt x="324" y="365" on="1"/>
        <pt x="324" y="338" on="0"/>
        <pt x="299" y="338" on="1"/>
        <pt x="142" y="338" on="1"/>
        <pt x="142" y="61" on="1"/>
        <pt x="462" y="61" on="1"/>
        <pt x="473" y="61" on="0"/>
        <pt x="487" y="43" on="0"/>
        <pt x="487" y="30" on="1"/>
        <pt x="487" y="0" on="0"/>
        <pt x="462" y="0" on="1"/>
        <pt x="106" y="0" on="1"/>
        <pt x="94" y="0" on="0"/>
        <pt x="76" y="14" on="0"/>
      </contour>
      <contour>
        <pt x="164" y="968" on="1"/>
        <pt x="208" y="968" on="1"/>
        <pt x="208" y="934" on="0"/>
        <pt x="251" y="887" on="0"/>
        <pt x="281" y="887" on="1"/>
        <pt x="310" y="887" on="0"/>
        <pt x="353" y="934" on="0"/>
        <pt x="353" y="968" on="1"/>
        <pt x="397" y="968" on="1"/>
        <pt x="397" y="921" on="0"/>
        <pt x="326" y="851" on="0"/>
        <pt x="281" y="851" on="1"/>
        <pt x="234" y="851" on="0"/>
        <pt x="164" y="921" on="0"/>
      </contour>
    </TTGlyph>
    <TTGlyph name="Ecaron" xMin="76" yMin="0" xMax="487" yMax="985">
      <contour>
        <pt x="76" y="26" on="1"/>
        <pt x="76" y="706" on="1"/>
        <pt x="76" y="718" on="0"/>
        <pt x="94" y="731" on="0"/>
        <pt x="106" y="731" on="1"/>
        <pt x="462" y="731" on="1"/>
        <pt x="487" y="731" on="0"/>
        <pt x="487" y="702" on="1"/>
        <pt x="487" y="689" on="0"/>
        <pt x="474" y="670" on="0"/>
        <pt x="462" y="670" on="1"/>
        <pt x="142" y="670" on="1"/>
        <pt x="142" y="395" on="1"/>
        <pt x="299" y="395" on="1"/>
        <pt x="311" y="395" on="0"/>
        <pt x="324" y="378" on="0"/>
        <pt x="324" y="365" on="1"/>
        <pt x="324" y="338" on="0"/>
        <pt x="299" y="338" on="1"/>
        <pt x="142" y="338" on="1"/>
        <pt x="142" y="61" on="1"/>
        <pt x="462" y="61" on="1"/>
        <pt x="473" y="61" on="0"/>
        <pt x="487" y="43" on="0"/>
        <pt x="487" y="30" on="1"/>
        <pt x="487" y="0" on="0"/>
        <pt x="462" y="0" on="1"/>
        <pt x="106" y="0" on="1"/>
        <pt x="94" y="0" on="0"/>
        <pt x="76" y="14" on="0"/>
      </contour>
      <contour>
        <pt x="146" y="963" on="1"/>
        <pt x="146" y="972" on="0"/>
        <pt x="157" y="985" on="0"/>
        <pt x="165" y="985" on="1"/>
        <pt x="174" y="985" on="0"/>
        <pt x="180" y="979" on="1"/>
        <pt x="280" y="887" on="1"/>
        <pt x="379" y="979" on="1"/>
        <pt x="385" y="985" on="0"/>
        <pt x="394" y="985" on="1"/>
        <pt x="402" y="985" on="0"/>
        <pt x="413" y="972" on="0"/>
        <pt x="413" y="963" on="1"/>
        <pt x="413" y="950" on="0"/>
        <pt x="401" y="940" on="1"/>
        <pt x="300" y="850" on="1"/>
        <pt x="288" y="840" on="0"/>
        <pt x="280" y="840" on="1"/>
        <pt x="270" y="840" on="0"/>
        <pt x="260" y="850" on="1"/>
        <pt x="159" y="940" on="1"/>
        <pt x="146" y="950" on="0"/>
      </contour>
    </TTGlyph>
    <TTGlyph name="Ecircumflex" xMin="76" yMin="0" xMax="487" yMax="955">
      <contour>
        <pt x="76" y="26" on="1"/>
        <pt x="76" y="706" on="1"/>
        <pt x="76" y="718" on="0"/>
        <pt x="94" y="731" on="0"/>
        <pt x="106" y="731" on="1"/>
        <pt x="462" y="731" on="1"/>
        <pt x="487" y="731" on="0"/>
        <pt x="487" y="702" on="1"/>
        <pt x="487" y="689" on="0"/>
        <pt x="474" y="670" on="0"/>
        <pt x="462" y="670" on="1"/>
        <pt x="142" y="670" on="1"/>
        <pt x="142" y="395" on="1"/>
        <pt x="299" y="395" on="1"/>
        <pt x="311" y="395" on="0"/>
        <pt x="324" y="378" on="0"/>
        <pt x="324" y="365" on="1"/>
        <pt x="324" y="338" on="0"/>
        <pt x="299" y="338" on="1"/>
        <pt x="142" y="338" on="1"/>
        <pt x="142" y="61" on="1"/>
        <pt x="462" y="61" on="1"/>
        <pt x="473" y="61" on="0"/>
        <pt x="487" y="43" on="0"/>
        <pt x="487" y="30" on="1"/>
        <pt x="487" y="0" on="0"/>
        <pt x="462" y="0" on="1"/>
        <pt x="106" y="0" on="1"/>
        <pt x="94" y="0" on="0"/>
        <pt x="76" y="14" on="0"/>
      </contour>
      <contour>
        <pt x="149" y="872" on="1"/>
        <pt x="149" y="887" on="0"/>
        <pt x="162" y="894" on="1"/>
        <pt x="266" y="950" on="1"/>
        <pt x="274" y="955" on="0"/>
        <pt x="292" y="955" on="0"/>
        <pt x="300" y="950" on="1"/>
        <pt x="404" y="894" on="1"/>
        <pt x="417" y="888" on="0"/>
        <pt x="417" y="871" on="1"/>
        <pt x="417" y="861" on="0"/>
        <pt x="405" y="847" on="0"/>
        <pt x="397" y="847" on="1"/>
        <pt x="396" y="847" on="0"/>
        <pt x="387" y="850" on="1"/>
        <pt x="283" y="905" on="1"/>
        <pt x="179" y="849" on="1"/>
        <pt x="170" y="846" on="1"/>
        <pt x="162" y="846" on="0"/>
        <pt x="149" y="862" on="0"/>
      </contour>
    </TTGlyph>
    <TTGlyph name="Edieresis" xMin="76" yMin="0" xMax="487" yMax="920">
      <contour>
        <pt x="76" y="26" on="1"/>
        <pt x="76" y="706" on="1"/>
        <pt x="76" y="718" on="0"/>
        <pt x="94" y="731" on="0"/>
        <pt x="106" y="731" on="1"/>
        <pt x="462" y="731" on="1"/>
        <pt x="487" y="731" on="0"/>
        <pt x="487" y="702" on="1"/>
        <pt x="487" y="689" on="0"/>
        <pt x="474" y="670" on="0"/>
        <pt x="462" y="670" on="1"/>
        <pt x="142" y="670" on="1"/>
        <pt x="142" y="395" on="1"/>
        <pt x="299" y="395" on="1"/>
        <pt x="311" y="395" on="0"/>
        <pt x="324" y="378" on="0"/>
        <pt x="324" y="365" on="1"/>
        <pt x="324" y="338" on="0"/>
        <pt x="299" y="338" on="1"/>
        <pt x="142" y="338" on="1"/>
        <pt x="142" y="61" on="1"/>
        <pt x="462" y="61" on="1"/>
        <pt x="473" y="61" on="0"/>
        <pt x="487" y="43" on="0"/>
        <pt x="487" y="30" on="1"/>
        <pt x="487" y="0" on="0"/>
        <pt x="462" y="0" on="1"/>
        <pt x="106" y="0" on="1"/>
        <pt x="94" y="0" on="0"/>
        <pt x="76" y="14" on="0"/>
      </contour>
      <contour>
        <pt x="184" y="884" on="1"/>
        <pt x="184" y="900" on="0"/>
        <pt x="205" y="920" on="0"/>
        <pt x="221" y="920" on="1"/>
        <pt x="236" y="920" on="0"/>
        <pt x="257" y="900" on="0"/>
        <pt x="257" y="884" on="1"/>
        <pt x="257" y="869" on="0"/>
        <pt x="236" y="847" on="0"/>
        <pt x="221" y="847" on="1"/>
        <pt x="205" y="847" on="0"/>
        <pt x="184" y="869" on="0"/>
      </contour>
      <contour>
        <pt x="307" y="884" on="1"/>
        <pt x="307" y="900" on="0"/>
        <pt x="328" y="920" on="0"/>
        <pt x="360" y="920" on="0"/>
        <pt x="380" y="900" on="0"/>
        <pt x="380" y="884" on="1"/>
        <pt x="380" y="869" on="0"/>
        <pt x="359" y="847" on="0"/>
        <pt x="344" y="847" on="1"/>
        <pt x="328" y="847" on="0"/>
        <pt x="307" y="869" on="0"/>
      </contour>
    </TTGlyph>
    <TTGlyph name="Edotaccent" xMin="76" yMin="0" xMax="487" yMax="920">
      <contour>
        <pt x="76" y="26" on="1"/>
        <pt x="76" y="706" on="1"/>
        <pt x="76" y="718" on="0"/>
        <pt x="94" y="731" on="0"/>
        <pt x="106" y="731" on="1"/>
        <pt x="462" y="731" on="1"/>
        <pt x="487" y="731" on="0"/>
        <pt x="487" y="702" on="1"/>
        <pt x="487" y="689" on="0"/>
        <pt x="474" y="670" on="0"/>
        <pt x="462" y="670" on="1"/>
        <pt x="142" y="670" on="1"/>
        <pt x="142" y="395" on="1"/>
        <pt x="299" y="395" on="1"/>
        <pt x="311" y="395" on="0"/>
        <pt x="324" y="378" on="0"/>
        <pt x="324" y="365" on="1"/>
        <pt x="324" y="338" on="0"/>
        <pt x="299" y="338" on="1"/>
        <pt x="142" y="338" on="1"/>
        <pt x="142" y="61" on="1"/>
        <pt x="462" y="61" on="1"/>
        <pt x="473" y="61" on="0"/>
        <pt x="487" y="43" on="0"/>
        <pt x="487" y="30" on="1"/>
        <pt x="487" y="0" on="0"/>
        <pt x="462" y="0" on="1"/>
        <pt x="106" y="0" on="1"/>
        <pt x="94" y="0" on="0"/>
        <pt x="76" y="14" on="0"/>
      </contour>
      <contour>
        <pt x="248" y="884" on="1"/>
        <pt x="248" y="900" on="0"/>
        <pt x="269" y="920" on="0"/>
        <pt x="285" y="920" on="1"/>
        <pt x="300" y="920" on="0"/>
        <pt x="321" y="900" on="0"/>
        <pt x="321" y="884" on="1"/>
        <pt x="321" y="869" on="0"/>
        <pt x="300" y="847" on="0"/>
        <pt x="285" y="847" on="1"/>
        <pt x="269" y="847" on="0"/>
        <pt x="248" y="869" on="0"/>
      </contour>
    </TTGlyph>
    <TTGlyph name="Egrave" xMin="76" yMin="0" xMax="487" yMax="955">
      <contour>
        <pt x="76" y="26" on="1"/>
        <pt x="76" y="706" on="1"/>
        <pt x="76" y="718" on="0"/>
        <pt x="94" y="731" on="0"/>
        <pt x="106" y="731" on="1"/>
        <pt x="462" y="731" on="1"/>
        <pt x="487" y="731" on="0"/>
        <pt x="487" y="702" on="1"/>
        <pt x="487" y="689" on="0"/>
        <pt x="474" y="670" on="0"/>
        <pt x="462" y="670" on="1"/>
        <pt x="142" y="670" on="1"/>
        <pt x="142" y="395" on="1"/>
        <pt x="299" y="395" on="1"/>
        <pt x="311" y="395" on="0"/>
        <pt x="324" y="378" on="0"/>
        <pt x="324" y="365" on="1"/>
        <pt x="324" y="338" on="0"/>
        <pt x="299" y="338" on="1"/>
        <pt x="142" y="338" on="1"/>
        <pt x="142" y="61" on="1"/>
        <pt x="462" y="61" on="1"/>
        <pt x="473" y="61" on="0"/>
        <pt x="487" y="43" on="0"/>
        <pt x="487" y="30" on="1"/>
        <pt x="487" y="0" on="0"/>
        <pt x="462" y="0" on="1"/>
        <pt x="106" y="0" on="1"/>
        <pt x="94" y="0" on="0"/>
        <pt x="76" y="14" on="0"/>
      </contour>
      <contour>
        <pt x="202" y="927" on="1"/>
        <pt x="202" y="937" on="0"/>
        <pt x="216" y="955" on="0"/>
        <pt x="226" y="955" on="1"/>
        <pt x="230" y="955" on="0"/>
        <pt x="235" y="952" on="1"/>
        <pt x="346" y="891" on="1"/>
        <pt x="357" y="886" on="0"/>
        <pt x="357" y="873" on="1"/>
        <pt x="357" y="862" on="0"/>
        <pt x="341" y="845" on="0"/>
        <pt x="331" y="845" on="1"/>
        <pt x="326" y="845" on="0"/>
        <pt x="321" y="848" on="1"/>
        <pt x="215" y="905" on="1"/>
        <pt x="202" y="911" on="0"/>
      </contour>
    </TTGlyph>
    <TTGlyph name="Emacron" xMin="76" yMin="0" xMax="487" yMax="940">
      <contour>
        <pt x="76" y="26" on="1"/>
        <pt x="76" y="706" on="1"/>
        <pt x="76" y="718" on="0"/>
        <pt x="94" y="731" on="0"/>
        <pt x="106" y="731" on="1"/>
        <pt x="462" y="731" on="1"/>
        <pt x="487" y="731" on="0"/>
        <pt x="487" y="702" on="1"/>
        <pt x="487" y="689" on="0"/>
        <pt x="474" y="670" on="0"/>
        <pt x="462" y="670" on="1"/>
        <pt x="142" y="670" on="1"/>
        <pt x="142" y="395" on="1"/>
        <pt x="299" y="395" on="1"/>
        <pt x="311" y="395" on="0"/>
        <pt x="324" y="378" on="0"/>
        <pt x="324" y="365" on="1"/>
        <pt x="324" y="338" on="0"/>
        <pt x="299" y="338" on="1"/>
        <pt x="142" y="338" on="1"/>
        <pt x="142" y="61" on="1"/>
        <pt x="462" y="61" on="1"/>
        <pt x="473" y="61" on="0"/>
        <pt x="487" y="43" on="0"/>
        <pt x="487" y="30" on="1"/>
        <pt x="487" y="0" on="0"/>
        <pt x="462" y="0" on="1"/>
        <pt x="106" y="0" on="1"/>
        <pt x="94" y="0" on="0"/>
        <pt x="76" y="14" on="0"/>
      </contour>
      <contour>
        <pt x="150" y="903" on="0"/>
        <pt x="150" y="925" on="0"/>
        <pt x="164" y="940" on="0"/>
        <pt x="175" y="940" on="1"/>
        <pt x="390" y="940" on="1"/>
        <pt x="399" y="940" on="0"/>
        <pt x="415" y="925" on="0"/>
        <pt x="415" y="914" on="1"/>
        <pt x="415" y="904" on="0"/>
        <pt x="399" y="889" on="0"/>
        <pt x="390" y="889" on="1"/>
        <pt x="175" y="889" on="1"/>
        <pt x="164" y="889" on="0"/>
      </contour>
    </TTGlyph>
    <TTGlyph name="Eng" xMin="76" yMin="-232" xMax="497" yMax="731">
      <contour>
        <pt x="76" y="26" on="1"/>
        <pt x="76" y="706" on="1"/>
        <pt x="76" y="731" on="0"/>
        <pt x="109" y="731" on="1"/>
        <pt x="137" y="731" on="0"/>
        <pt x="161" y="685" on="1"/>
        <pt x="431" y="153" on="1"/>
        <pt x="431" y="707" on="1"/>
        <pt x="431" y="731" on="0"/>
        <pt x="497" y="731" on="0"/>
        <pt x="497" y="707" on="1"/>
        <pt x="497" y="-43" on="1"/>
        <pt x="497" y="-232" on="0"/>
        <pt x="366" y="-232" on="1"/>
        <pt x="349" y="-232" on="0"/>
        <pt x="332" y="-215" on="0"/>
        <pt x="332" y="-203" on="1"/>
        <pt x="332" y="-190" on="0"/>
        <pt x="348" y="-173" on="0"/>
        <pt x="360" y="-173" on="1"/>
        <pt x="403" y="-173" on="0"/>
        <pt x="432" y="-108" on="0"/>
        <pt x="432" y="-43" on="1"/>
        <pt x="432" y="2" on="1"/>
        <pt x="432" y="15" on="0"/>
        <pt x="420" y="38" on="1"/>
        <pt x="142" y="579" on="1"/>
        <pt x="142" y="26" on="1"/>
        <pt x="142" y="14" on="0"/>
        <pt x="122" y="0" on="0"/>
        <pt x="109" y="0" on="1"/>
        <pt x="95" y="0" on="0"/>
        <pt x="76" y="14" on="0"/>
      </contour>
    </TTGlyph>
    <TTGlyph name="Eogonek" xMin="76" yMin="-201" xMax="487" yMax="731">
      <contour>
        <pt x="76" y="26" on="1"/>
        <pt x="76" y="706" on="1"/>
        <pt x="76" y="718" on="0"/>
        <pt x="94" y="731" on="0"/>
        <pt x="106" y="731" on="1"/>
        <pt x="462" y="731" on="1"/>
        <pt x="487" y="731" on="0"/>
        <pt x="487" y="702" on="1"/>
        <pt x="487" y="689" on="0"/>
        <pt x="474" y="670" on="0"/>
        <pt x="462" y="670" on="1"/>
        <pt x="142" y="670" on="1"/>
        <pt x="142" y="395" on="1"/>
        <pt x="299" y="395" on="1"/>
        <pt x="311" y="395" on="0"/>
        <pt x="324" y="378" on="0"/>
        <pt x="324" y="365" on="1"/>
        <pt x="324" y="338" on="0"/>
        <pt x="299" y="338" on="1"/>
        <pt x="142" y="338" on="1"/>
        <pt x="142" y="61" on="1"/>
        <pt x="462" y="61" on="1"/>
        <pt x="473" y="61" on="0"/>
        <pt x="487" y="43" on="0"/>
        <pt x="487" y="30" on="1"/>
        <pt x="487" y="9" on="0"/>
        <pt x="472" y="2" on="1"/>
        <pt x="401" y="-60" on="0"/>
        <pt x="401" y="-121" on="1"/>
        <pt x="401" y="-166" on="0"/>
        <pt x="463" y="-166" on="1"/>
        <pt x="483" y="-166" on="0"/>
        <pt x="483" y="-184" on="1"/>
        <pt x="483" y="-201" on="0"/>
        <pt x="458" y="-201" on="1"/>
        <pt x="417" y="-201" on="0"/>
        <pt x="361" y="-164" on="0"/>
        <pt x="361" y="-126" on="1"/>
        <pt x="361" y="-60" on="0"/>
        <pt x="419" y="0" on="1"/>
        <pt x="106" y="0" on="1"/>
        <pt x="94" y="0" on="0"/>
        <pt x="76" y="14" on="0"/>
      </contour>
    </TTGlyph>
    <TTGlyph name="Eth" xMin="-1" yMin="0" xMax="501" yMax="731">
      <contour>
        <pt x="-1" y="384" on="1"/>
        <pt x="-1" y="395" on="0"/>
        <pt x="12" y="411" on="0"/>
        <pt x="22" y="411" on="1"/>
        <pt x="85" y="411" on="1"/>
        <pt x="85" y="707" on="1"/>
        <pt x="85" y="717" on="0"/>
        <pt x="102" y="731" on="0"/>
        <pt x="115" y="731" on="1"/>
        <pt x="292" y="731" on="1"/>
        <pt x="387" y="731" on="0"/>
        <pt x="501" y="628" on="0"/>
        <pt x="501" y="518" on="1"/>
        <pt x="501" y="214" on="1"/>
        <pt x="501" y="103" on="0"/>
        <pt x="387" y="0" on="0"/>
        <pt x="292" y="0" on="1"/>
        <pt x="115" y="0" on="1"/>
        <pt x="102" y="0" on="0"/>
        <pt x="85" y="15" on="0"/>
        <pt x="85" y="25" on="1"/>
        <pt x="85" y="357" on="1"/>
        <pt x="22" y="357" on="1"/>
        <pt x="12" y="357" on="0"/>
        <pt x="-1" y="372" on="0"/>
      </contour>
      <contour>
        <pt x="151" y="61" on="1"/>
        <pt x="292" y="61" on="1"/>
        <pt x="360" y="61" on="0"/>
        <pt x="435" y="138" on="0"/>
        <pt x="435" y="214" on="1"/>
        <pt x="435" y="518" on="1"/>
        <pt x="435" y="594" on="0"/>
        <pt x="360" y="670" on="0"/>
        <pt x="292" y="670" on="1"/>
        <pt x="151" y="670" on="1"/>
        <pt x="151" y="411" on="1"/>
        <pt x="264" y="411" on="1"/>
        <pt x="274" y="411" on="0"/>
        <pt x="287" y="395" on="0"/>
        <pt x="287" y="373" on="0"/>
        <pt x="274" y="357" on="0"/>
        <pt x="264" y="357" on="1"/>
        <pt x="151" y="357" on="1"/>
      </contour>
    </TTGlyph>
    <TTGlyph name="Euro" xMin="32" yMin="-6" xMax="535" yMax="731">
      <contour>
        <pt x="32" y="267" on="0"/>
        <pt x="32" y="289" on="0"/>
        <pt x="46" y="305" on="0"/>
        <pt x="57" y="305" on="1"/>
        <pt x="119" y="305" on="1"/>
        <pt x="119" y="401" on="1"/>
        <pt x="57" y="401" on="1"/>
        <pt x="46" y="401" on="0"/>
        <pt x="32" y="416" on="0"/>
        <pt x="32" y="438" on="0"/>
        <pt x="46" y="454" on="0"/>
        <pt x="57" y="454" on="1"/>
        <pt x="119" y="454" on="1"/>
        <pt x="119" y="518" on="1"/>
        <pt x="119" y="628" on="0"/>
        <pt x="232" y="731" on="0"/>
        <pt x="420" y="731" on="0"/>
        <pt x="535" y="634" on="0"/>
        <pt x="535" y="558" on="1"/>
        <pt x="535" y="525" on="0"/>
        <pt x="469" y="525" on="0"/>
        <pt x="469" y="549" on="1"/>
        <pt x="469" y="605" on="0"/>
        <pt x="392" y="670" on="0"/>
        <pt x="327" y="670" on="1"/>
        <pt x="185" y="670" on="0"/>
        <pt x="185" y="518" on="1"/>
        <pt x="185" y="454" on="1"/>
        <pt x="354" y="454" on="1"/>
        <pt x="364" y="454" on="0"/>
        <pt x="380" y="438" on="0"/>
        <pt x="380" y="416" on="0"/>
        <pt x="364" y="401" on="0"/>
        <pt x="354" y="401" on="1"/>
        <pt x="185" y="401" on="1"/>
        <pt x="185" y="305" on="1"/>
        <pt x="354" y="305" on="1"/>
        <pt x="364" y="305" on="0"/>
        <pt x="380" y="289" on="0"/>
        <pt x="380" y="267" on="0"/>
        <pt x="364" y="252" on="0"/>
        <pt x="354" y="252" on="1"/>
        <pt x="185" y="252" on="1"/>
        <pt x="185" y="203" on="1"/>
        <pt x="185" y="134" on="0"/>
        <pt x="257" y="55" on="0"/>
        <pt x="328" y="55" on="1"/>
        <pt x="392" y="55" on="0"/>
        <pt x="469" y="121" on="0"/>
        <pt x="469" y="178" on="1"/>
        <pt x="470" y="203" on="0"/>
        <pt x="502" y="203" on="1"/>
        <pt x="535" y="203" on="0"/>
        <pt x="535" y="170" on="1"/>
        <pt x="535" y="93" on="0"/>
        <pt x="420" y="-6" on="0"/>
        <pt x="326" y="-6" on="1"/>
        <pt x="231" y="-6" on="0"/>
        <pt x="119" y="99" on="0"/>
        <pt x="119" y="203" on="1"/>
        <pt x="119" y="252" on="1"/>
        <pt x="57" y="252" on="1"/>
        <pt x="46" y="252" on="0"/>
      </contour>
    </TTGlyph>
    <TTGlyph name="F" xMin="76" yMin="0" xMax="485" yMax="731">
      <contour>
        <pt x="76" y="25" on="1"/>
        <pt x="76" y="706" on="1"/>
        <pt x="76" y="718" on="0"/>
        <pt x="94" y="731" on="0"/>
        <pt x="106" y="731" on="1"/>
        <pt x="460" y="731" on="1"/>
        <pt x="472" y="731" on="0"/>
        <pt x="485" y="714" on="0"/>
        <pt x="485" y="702" on="1"/>
        <pt x="485" y="689" on="0"/>
        <pt x="472" y="670" on="0"/>
        <pt x="460" y="670" on="1"/>
        <pt x="142" y="670" on="1"/>
        <pt x="142" y="395" on="1"/>
        <pt x="300" y="395" on="1"/>
        <pt x="311" y="395" on="0"/>
        <pt x="324" y="378" on="0"/>
        <pt x="324" y="365" on="1"/>
        <pt x="324" y="338" on="0"/>
        <pt x="300" y="338" on="1"/>
        <pt x="142" y="338" on="1"/>
        <pt x="142" y="25" on="1"/>
        <pt x="142" y="13" on="0"/>
        <pt x="122" y="0" on="0"/>
        <pt x="109" y="0" on="1"/>
        <pt x="76" y="0" on="0"/>
      </contour>
    </TTGlyph>
    <TTGlyph name="G" xMin="68" yMin="-6" xMax="484" yMax="731">
      <contour>
        <pt x="68" y="208" on="1"/>
        <pt x="68" y="518" on="1"/>
        <pt x="68" y="628" on="0"/>
        <pt x="181" y="731" on="0"/>
        <pt x="275" y="731" on="1"/>
        <pt x="370" y="731" on="0"/>
        <pt x="484" y="634" on="0"/>
        <pt x="484" y="558" on="1"/>
        <pt x="484" y="524" on="0"/>
        <pt x="451" y="524" on="1"/>
        <pt x="419" y="524" on="0"/>
        <pt x="418" y="549" on="1"/>
        <pt x="404" y="670" on="0"/>
        <pt x="276" y="670" on="1"/>
        <pt x="134" y="670" on="0"/>
        <pt x="134" y="518" on="1"/>
        <pt x="134" y="208" on="1"/>
        <pt x="134" y="131" on="0"/>
        <pt x="208" y="55" on="0"/>
        <pt x="344" y="55" on="0"/>
        <pt x="418" y="131" on="0"/>
        <pt x="418" y="208" on="1"/>
        <pt x="418" y="327" on="1"/>
        <pt x="284" y="327" on="1"/>
        <pt x="273" y="327" on="0"/>
        <pt x="260" y="344" on="0"/>
        <pt x="260" y="356" on="1"/>
        <pt x="260" y="367" on="0"/>
        <pt x="273" y="384" on="0"/>
        <pt x="284" y="384" on="1"/>
        <pt x="460" y="384" on="1"/>
        <pt x="484" y="384" on="0"/>
        <pt x="484" y="358" on="1"/>
        <pt x="484" y="208" on="1"/>
        <pt x="484" y="97" on="0"/>
        <pt x="371" y="-6" on="0"/>
        <pt x="181" y="-6" on="0"/>
        <pt x="68" y="97" on="0"/>
      </contour>
    </TTGlyph>
    <TTGlyph name="Gbreve" xMin="68" yMin="-6" xMax="484" yMax="968">
      <contour>
        <pt x="68" y="208" on="1"/>
        <pt x="68" y="518" on="1"/>
        <pt x="68" y="628" on="0"/>
        <pt x="181" y="731" on="0"/>
        <pt x="275" y="731" on="1"/>
        <pt x="370" y="731" on="0"/>
        <pt x="484" y="634" on="0"/>
        <pt x="484" y="558" on="1"/>
        <pt x="484" y="524" on="0"/>
        <pt x="451" y="524" on="1"/>
        <pt x="419" y="524" on="0"/>
        <pt x="418" y="549" on="1"/>
        <pt x="404" y="670" on="0"/>
        <pt x="276" y="670" on="1"/>
        <pt x="134" y="670" on="0"/>
        <pt x="134" y="518" on="1"/>
        <pt x="134" y="208" on="1"/>
        <pt x="134" y="131" on="0"/>
        <pt x="208" y="55" on="0"/>
        <pt x="344" y="55" on="0"/>
        <pt x="418" y="131" on="0"/>
        <pt x="418" y="208" on="1"/>
        <pt x="418" y="327" on="1"/>
        <pt x="284" y="327" on="1"/>
        <pt x="273" y="327" on="0"/>
        <pt x="260" y="344" on="0"/>
        <pt x="260" y="356" on="1"/>
        <pt x="260" y="367" on="0"/>
        <pt x="273" y="384" on="0"/>
        <pt x="284" y="384" on="1"/>
        <pt x="460" y="384" on="1"/>
        <pt x="484" y="384" on="0"/>
        <pt x="484" y="358" on="1"/>
        <pt x="484" y="208" on="1"/>
        <pt x="484" y="97" on="0"/>
        <pt x="371" y="-6" on="0"/>
        <pt x="181" y="-6" on="0"/>
        <pt x="68" y="97" on="0"/>
      </contour>
      <contour>
        <pt x="159" y="968" on="1"/>
        <pt x="203" y="968" on="1"/>
        <pt x="203" y="934" on="0"/>
        <pt x="246" y="887" on="0"/>
        <pt x="276" y="887" on="1"/>
        <pt x="305" y="887" on="0"/>
        <pt x="348" y="934" on="0"/>
        <pt x="348" y="968" on="1"/>
        <pt x="392" y="968" on="1"/>
        <pt x="392" y="921" on="0"/>
        <pt x="321" y="851" on="0"/>
        <pt x="276" y="851" on="1"/>
        <pt x="229" y="851" on="0"/>
        <pt x="159" y="921" on="0"/>
      </contour>
    </TTGlyph>
    <TTGlyph name="Gcircumflex" xMin="68" yMin="-6" xMax="484" yMax="955">
      <contour>
        <pt x="68" y="208" on="1"/>
        <pt x="68" y="518" on="1"/>
        <pt x="68" y="628" on="0"/>
        <pt x="181" y="731" on="0"/>
        <pt x="275" y="731" on="1"/>
        <pt x="370" y="731" on="0"/>
        <pt x="484" y="634" on="0"/>
        <pt x="484" y="558" on="1"/>
        <pt x="484" y="524" on="0"/>
        <pt x="451" y="524" on="1"/>
        <pt x="419" y="524" on="0"/>
        <pt x="418" y="549" on="1"/>
        <pt x="404" y="670" on="0"/>
        <pt x="276" y="670" on="1"/>
        <pt x="134" y="670" on="0"/>
        <pt x="134" y="518" on="1"/>
        <pt x="134" y="208" on="1"/>
        <pt x="134" y="131" on="0"/>
        <pt x="208" y="55" on="0"/>
        <pt x="344" y="55" on="0"/>
        <pt x="418" y="131" on="0"/>
        <pt x="418" y="208" on="1"/>
        <pt x="418" y="327" on="1"/>
        <pt x="284" y="327" on="1"/>
        <pt x="273" y="327" on="0"/>
        <pt x="260" y="344" on="0"/>
        <pt x="260" y="356" on="1"/>
        <pt x="260" y="367" on="0"/>
        <pt x="273" y="384" on="0"/>
        <pt x="284" y="384" on="1"/>
        <pt x="460" y="384" on="1"/>
        <pt x="484" y="384" on="0"/>
        <pt x="484" y="358" on="1"/>
        <pt x="484" y="208" on="1"/>
        <pt x="484" y="97" on="0"/>
        <pt x="371" y="-6" on="0"/>
        <pt x="181" y="-6" on="0"/>
        <pt x="68" y="97" on="0"/>
      </contour>
      <contour>
        <pt x="138" y="872" on="1"/>
        <pt x="138" y="887" on="0"/>
        <pt x="151" y="894" on="1"/>
        <pt x="255" y="950" on="1"/>
        <pt x="263" y="955" on="0"/>
        <pt x="281" y="955" on="0"/>
        <pt x="289" y="950" on="1"/>
        <pt x="393" y="894" on="1"/>
        <pt x="406" y="888" on="0"/>
        <pt x="406" y="871" on="1"/>
        <pt x="406" y="861" on="0"/>
        <pt x="394" y="847" on="0"/>
        <pt x="386" y="847" on="1"/>
        <pt x="385" y="847" on="0"/>
        <pt x="376" y="850" on="1"/>
        <pt x="272" y="905" on="1"/>
        <pt x="168" y="849" on="1"/>
        <pt x="159" y="846" on="1"/>
        <pt x="151" y="846" on="0"/>
        <pt x="138" y="862" on="0"/>
      </contour>
    </TTGlyph>
    <TTGlyph name="Gcommaaccent" xMin="68" yMin="-158" xMax="484" yMax="731">
      <contour>
        <pt x="68" y="208" on="1"/>
        <pt x="68" y="518" on="1"/>
        <pt x="68" y="628" on="0"/>
        <pt x="181" y="731" on="0"/>
        <pt x="275" y="731" on="1"/>
        <pt x="370" y="731" on="0"/>
        <pt x="484" y="634" on="0"/>
        <pt x="484" y="558" on="1"/>
        <pt x="484" y="524" on="0"/>
        <pt x="451" y="524" on="1"/>
        <pt x="419" y="524" on="0"/>
        <pt x="418" y="549" on="1"/>
        <pt x="404" y="670" on="0"/>
        <pt x="276" y="670" on="1"/>
        <pt x="134" y="670" on="0"/>
        <pt x="134" y="518" on="1"/>
        <pt x="134" y="208" on="1"/>
        <pt x="134" y="131" on="0"/>
        <pt x="208" y="55" on="0"/>
        <pt x="344" y="55" on="0"/>
        <pt x="418" y="131" on="0"/>
        <pt x="418" y="208" on="1"/>
        <pt x="418" y="327" on="1"/>
        <pt x="284" y="327" on="1"/>
        <pt x="273" y="327" on="0"/>
        <pt x="260" y="344" on="0"/>
        <pt x="260" y="356" on="1"/>
        <pt x="260" y="367" on="0"/>
        <pt x="273" y="384" on="0"/>
        <pt x="284" y="384" on="1"/>
        <pt x="460" y="384" on="1"/>
        <pt x="484" y="384" on="0"/>
        <pt x="484" y="358" on="1"/>
        <pt x="484" y="208" on="1"/>
        <pt x="484" y="97" on="0"/>
        <pt x="371" y="-6" on="0"/>
        <pt x="181" y="-6" on="0"/>
        <pt x="68" y="97" on="0"/>
      </contour>
      <contour>
        <pt x="197" y="-130" on="1"/>
        <pt x="197" y="-118" on="0"/>
        <pt x="208" y="-112" on="1"/>
        <pt x="319" y="-50" on="1"/>
        <pt x="325" y="-48" on="0"/>
        <pt x="328" y="-48" on="1"/>
        <pt x="338" y="-48" on="0"/>
        <pt x="352" y="-66" on="0"/>
        <pt x="352" y="-76" on="1"/>
        <pt x="352" y="-91" on="0"/>
        <pt x="339" y="-98" on="1"/>
        <pt x="233" y="-155" on="1"/>
        <pt x="227" y="-158" on="0"/>
        <pt x="222" y="-158" on="1"/>
        <pt x="212" y="-158" on="0"/>
        <pt x="197" y="-141" on="0"/>
      </contour>
    </TTGlyph>
    <TTGlyph name="Gdotaccent" xMin="68" yMin="-6" xMax="484" yMax="920">
      <contour>
        <pt x="68" y="208" on="1"/>
        <pt x="68" y="518" on="1"/>
        <pt x="68" y="628" on="0"/>
        <pt x="181" y="731" on="0"/>
        <pt x="275" y="731" on="1"/>
        <pt x="370" y="731" on="0"/>
        <pt x="484" y="634" on="0"/>
        <pt x="484" y="558" on="1"/>
        <pt x="484" y="524" on="0"/>
        <pt x="451" y="524" on="1"/>
        <pt x="419" y="524" on="0"/>
        <pt x="418" y="549" on="1"/>
        <pt x="404" y="670" on="0"/>
        <pt x="276" y="670" on="1"/>
        <pt x="134" y="670" on="0"/>
        <pt x="134" y="518" on="1"/>
        <pt x="134" y="208" on="1"/>
        <pt x="134" y="131" on="0"/>
        <pt x="208" y="55" on="0"/>
        <pt x="344" y="55" on="0"/>
        <pt x="418" y="131" on="0"/>
        <pt x="418" y="208" on="1"/>
        <pt x="418" y="327" on="1"/>
        <pt x="284" y="327" on="1"/>
        <pt x="273" y="327" on="0"/>
        <pt x="260" y="344" on="0"/>
        <pt x="260" y="356" on="1"/>
        <pt x="260" y="367" on="0"/>
        <pt x="273" y="384" on="0"/>
        <pt x="284" y="384" on="1"/>
        <pt x="460" y="384" on="1"/>
        <pt x="484" y="384" on="0"/>
        <pt x="484" y="358" on="1"/>
        <pt x="484" y="208" on="1"/>
        <pt x="484" y="97" on="0"/>
        <pt x="371" y="-6" on="0"/>
        <pt x="181" y="-6" on="0"/>
        <pt x="68" y="97" on="0"/>
      </contour>
      <contour>
        <pt x="239" y="884" on="1"/>
        <pt x="239" y="900" on="0"/>
        <pt x="260" y="920" on="0"/>
        <pt x="276" y="920" on="1"/>
        <pt x="291" y="920" on="0"/>
        <pt x="312" y="900" on="0"/>
        <pt x="312" y="884" on="1"/>
        <pt x="312" y="869" on="0"/>
        <pt x="291" y="847" on="0"/>
        <pt x="276" y="847" on="1"/>
        <pt x="260" y="847" on="0"/>
        <pt x="239" y="869" on="0"/>
      </contour>
    </TTGlyph>
    <TTGlyph name="H" xMin="76" yMin="0" xMax="497" yMax="731">
      <contour>
        <pt x="76" y="26" on="1"/>
        <pt x="76" y="707" on="1"/>
        <pt x="76" y="731" on="0"/>
        <pt x="142" y="731" on="0"/>
        <pt x="142" y="707" on="1"/>
        <pt x="142" y="408" on="1"/>
        <pt x="431" y="408" on="1"/>
        <pt x="431" y="707" on="1"/>
        <pt x="431" y="731" on="0"/>
        <pt x="497" y="731" on="0"/>
        <pt x="497" y="707" on="1"/>
        <pt x="497" y="26" on="1"/>
        <pt x="497" y="14" on="0"/>
        <pt x="477" y="0" on="0"/>
        <pt x="464" y="0" on="1"/>
        <pt x="450" y="0" on="0"/>
        <pt x="431" y="14" on="0"/>
        <pt x="431" y="26" on="1"/>
        <pt x="431" y="351" on="1"/>
        <pt x="142" y="351" on="1"/>
        <pt x="142" y="26" on="1"/>
        <pt x="142" y="14" on="0"/>
        <pt x="122" y="0" on="0"/>
        <pt x="109" y="0" on="1"/>
        <pt x="95" y="0" on="0"/>
        <pt x="76" y="14" on="0"/>
      </contour>
    </TTGlyph>
    <TTGlyph name="Hbar" xMin="19" yMin="0" xMax="553" yMax="731">
      <contour>
        <pt x="19" y="565" on="1"/>
        <pt x="19" y="591" on="0"/>
        <pt x="41" y="591" on="1"/>
        <pt x="76" y="591" on="1"/>
        <pt x="76" y="707" on="1"/>
        <pt x="76" y="731" on="0"/>
        <pt x="142" y="731" on="0"/>
        <pt x="142" y="707" on="1"/>
        <pt x="142" y="591" on="1"/>
        <pt x="431" y="591" on="1"/>
        <pt x="431" y="707" on="1"/>
        <pt x="431" y="731" on="0"/>
        <pt x="497" y="731" on="0"/>
        <pt x="497" y="707" on="1"/>
        <pt x="497" y="591" on="1"/>
        <pt x="530" y="591" on="1"/>
        <pt x="540" y="591" on="0"/>
        <pt x="553" y="576" on="0"/>
        <pt x="553" y="554" on="0"/>
        <pt x="540" y="540" on="0"/>
        <pt x="530" y="540" on="1"/>
        <pt x="497" y="540" on="1"/>
        <pt x="497" y="26" on="1"/>
        <pt x="497" y="14" on="0"/>
        <pt x="477" y="0" on="0"/>
        <pt x="464" y="0" on="1"/>
        <pt x="450" y="0" on="0"/>
        <pt x="431" y="14" on="0"/>
        <pt x="431" y="26" on="1"/>
        <pt x="431" y="351" on="1"/>
        <pt x="142" y="351" on="1"/>
        <pt x="142" y="26" on="1"/>
        <pt x="142" y="14" on="0"/>
        <pt x="122" y="0" on="0"/>
        <pt x="109" y="0" on="1"/>
        <pt x="95" y="0" on="0"/>
        <pt x="76" y="14" on="0"/>
        <pt x="76" y="26" on="1"/>
        <pt x="76" y="540" on="1"/>
        <pt x="41" y="540" on="1"/>
        <pt x="31" y="540" on="0"/>
        <pt x="19" y="555" on="0"/>
      </contour>
      <contour>
        <pt x="142" y="408" on="1"/>
        <pt x="431" y="408" on="1"/>
        <pt x="431" y="540" on="1"/>
        <pt x="142" y="540" on="1"/>
      </contour>
    </TTGlyph>
    <TTGlyph name="Hcircumflex" xMin="76" yMin="0" xMax="497" yMax="955">
      <contour>
        <pt x="76" y="26" on="1"/>
        <pt x="76" y="707" on="1"/>
        <pt x="76" y="731" on="0"/>
        <pt x="142" y="731" on="0"/>
        <pt x="142" y="707" on="1"/>
        <pt x="142" y="408" on="1"/>
        <pt x="431" y="408" on="1"/>
        <pt x="431" y="707" on="1"/>
        <pt x="431" y="731" on="0"/>
        <pt x="497" y="731" on="0"/>
        <pt x="497" y="707" on="1"/>
        <pt x="497" y="26" on="1"/>
        <pt x="497" y="14" on="0"/>
        <pt x="477" y="0" on="0"/>
        <pt x="464" y="0" on="1"/>
        <pt x="450" y="0" on="0"/>
        <pt x="431" y="14" on="0"/>
        <pt x="431" y="26" on="1"/>
        <pt x="431" y="351" on="1"/>
        <pt x="142" y="351" on="1"/>
        <pt x="142" y="26" on="1"/>
        <pt x="142" y="14" on="0"/>
        <pt x="122" y="0" on="0"/>
        <pt x="109" y="0" on="1"/>
        <pt x="95" y="0" on="0"/>
        <pt x="76" y="14" on="0"/>
      </contour>
      <contour>
        <pt x="153" y="872" on="1"/>
        <pt x="153" y="887" on="0"/>
        <pt x="166" y="894" on="1"/>
        <pt x="270" y="950" on="1"/>
        <pt x="278" y="955" on="0"/>
        <pt x="296" y="955" on="0"/>
        <pt x="304" y="950" on="1"/>
        <pt x="408" y="894" on="1"/>
        <pt x="421" y="888" on="0"/>
        <pt x="421" y="871" on="1"/>
        <pt x="421" y="861" on="0"/>
        <pt x="409" y="847" on="0"/>
        <pt x="401" y="847" on="1"/>
        <pt x="400" y="847" on="0"/>
        <pt x="391" y="850" on="1"/>
        <pt x="287" y="905" on="1"/>
        <pt x="183" y="849" on="1"/>
        <pt x="174" y="846" on="1"/>
        <pt x="166" y="846" on="0"/>
        <pt x="153" y="862" on="0"/>
      </contour>
    </TTGlyph>
    <TTGlyph name="I" xMin="76" yMin="0" xMax="142" yMax="731">
      <contour>
        <pt x="76" y="26" on="1"/>
        <pt x="76" y="707" on="1"/>
        <pt x="76" y="731" on="0"/>
        <pt x="142" y="731" on="0"/>
        <pt x="142" y="707" on="1"/>
        <pt x="142" y="26" on="1"/>
        <pt x="142" y="14" on="0"/>
        <pt x="122" y="0" on="0"/>
        <pt x="109" y="0" on="1"/>
        <pt x="95" y="0" on="0"/>
        <pt x="76" y="14" on="0"/>
      </contour>
    </TTGlyph>
    <TTGlyph name="IJ" xMin="76" yMin="-6" xMax="652" yMax="731">
      <contour>
        <pt x="76" y="26" on="1"/>
        <pt x="76" y="707" on="1"/>
        <pt x="76" y="731" on="0"/>
        <pt x="142" y="731" on="0"/>
        <pt x="142" y="707" on="1"/>
        <pt x="142" y="26" on="1"/>
        <pt x="142" y="14" on="0"/>
        <pt x="122" y="0" on="0"/>
        <pt x="109" y="0" on="1"/>
        <pt x="95" y="0" on="0"/>
        <pt x="76" y="14" on="0"/>
      </contour>
      <contour>
        <pt x="236" y="170" on="1"/>
        <pt x="236" y="204" on="0"/>
        <pt x="268" y="204" on="1"/>
        <pt x="302" y="204" on="0"/>
        <pt x="302" y="178" on="1"/>
        <pt x="302" y="121" on="0"/>
        <pt x="379" y="55" on="0"/>
        <pt x="444" y="55" on="1"/>
        <pt x="512" y="55" on="0"/>
        <pt x="586" y="131" on="0"/>
        <pt x="586" y="208" on="1"/>
        <pt x="586" y="670" on="1"/>
        <pt x="445" y="670" on="1"/>
        <pt x="433" y="670" on="0"/>
        <pt x="420" y="689" on="0"/>
        <pt x="420" y="702" on="1"/>
        <pt x="420" y="714" on="0"/>
        <pt x="433" y="731" on="0"/>
        <pt x="445" y="731" on="1"/>
        <pt x="621" y="731" on="1"/>
        <pt x="652" y="731" on="0"/>
        <pt x="652" y="706" on="1"/>
        <pt x="652" y="208" on="1"/>
        <pt x="652" y="97" on="0"/>
        <pt x="539" y="-6" on="0"/>
        <pt x="446" y="-6" on="1"/>
        <pt x="351" y="-6" on="0"/>
        <pt x="236" y="93" on="0"/>
      </contour>
    </TTGlyph>
    <TTGlyph name="Iacute" xMin="33" yMin="0" xMax="188" yMax="955">
      <contour>
        <pt x="33" y="873" on="1"/>
        <pt x="33" y="886" on="0"/>
        <pt x="44" y="891" on="1"/>
        <pt x="156" y="952" on="1"/>
        <pt x="159" y="955" on="0"/>
        <pt x="164" y="955" on="1"/>
        <pt x="175" y="955" on="0"/>
        <pt x="188" y="938" on="0"/>
        <pt x="188" y="927" on="1"/>
        <pt x="188" y="911" on="0"/>
        <pt x="176" y="905" on="1"/>
        <pt x="69" y="848" on="1"/>
        <pt x="64" y="845" on="0"/>
        <pt x="59" y="845" on="1"/>
        <pt x="49" y="845" on="0"/>
        <pt x="33" y="862" on="0"/>
      </contour>
      <contour>
        <pt x="76" y="26" on="1"/>
        <pt x="76" y="707" on="1"/>
        <pt x="76" y="731" on="0"/>
        <pt x="142" y="731" on="0"/>
        <pt x="142" y="707" on="1"/>
        <pt x="142" y="26" on="1"/>
        <pt x="142" y="14" on="0"/>
        <pt x="122" y="0" on="0"/>
        <pt x="109" y="0" on="1"/>
        <pt x="95" y="0" on="0"/>
        <pt x="76" y="14" on="0"/>
      </contour>
    </TTGlyph>
    <TTGlyph name="Ibreve" xMin="-8" yMin="0" xMax="225" yMax="968">
      <contour>
        <pt x="-8" y="968" on="1"/>
        <pt x="36" y="968" on="1"/>
        <pt x="36" y="934" on="0"/>
        <pt x="79" y="887" on="0"/>
        <pt x="109" y="887" on="1"/>
        <pt x="138" y="887" on="0"/>
        <pt x="181" y="934" on="0"/>
        <pt x="181" y="968" on="1"/>
        <pt x="225" y="968" on="1"/>
        <pt x="225" y="921" on="0"/>
        <pt x="154" y="851" on="0"/>
        <pt x="109" y="851" on="1"/>
        <pt x="62" y="851" on="0"/>
        <pt x="-8" y="921" on="0"/>
      </contour>
      <contour>
        <pt x="76" y="26" on="1"/>
        <pt x="76" y="707" on="1"/>
        <pt x="76" y="731" on="0"/>
        <pt x="142" y="731" on="0"/>
        <pt x="142" y="707" on="1"/>
        <pt x="142" y="26" on="1"/>
        <pt x="142" y="14" on="0"/>
        <pt x="122" y="0" on="0"/>
        <pt x="109" y="0" on="1"/>
        <pt x="95" y="0" on="0"/>
        <pt x="76" y="14" on="0"/>
      </contour>
    </TTGlyph>
    <TTGlyph name="Icircumflex" xMin="-25" yMin="0" xMax="243" yMax="955">
      <contour>
        <pt x="-25" y="872" on="1"/>
        <pt x="-25" y="887" on="0"/>
        <pt x="-12" y="894" on="1"/>
        <pt x="92" y="950" on="1"/>
        <pt x="100" y="955" on="0"/>
        <pt x="118" y="955" on="0"/>
        <pt x="126" y="950" on="1"/>
        <pt x="230" y="894" on="1"/>
        <pt x="243" y="888" on="0"/>
        <pt x="243" y="871" on="1"/>
        <pt x="243" y="861" on="0"/>
        <pt x="231" y="847" on="0"/>
        <pt x="223" y="847" on="1"/>
        <pt x="222" y="847" on="0"/>
        <pt x="213" y="850" on="1"/>
        <pt x="109" y="905" on="1"/>
        <pt x="5" y="849" on="1"/>
        <pt x="-4" y="846" on="1"/>
        <pt x="-12" y="846" on="0"/>
        <pt x="-25" y="862" on="0"/>
      </contour>
      <contour>
        <pt x="76" y="26" on="1"/>
        <pt x="76" y="707" on="1"/>
        <pt x="76" y="731" on="0"/>
        <pt x="142" y="731" on="0"/>
        <pt x="142" y="707" on="1"/>
        <pt x="142" y="26" on="1"/>
        <pt x="142" y="14" on="0"/>
        <pt x="122" y="0" on="0"/>
        <pt x="109" y="0" on="1"/>
        <pt x="95" y="0" on="0"/>
        <pt x="76" y="14" on="0"/>
      </contour>
    </TTGlyph>
    <TTGlyph name="Idieresis" xMin="11" yMin="0" xMax="207" yMax="920">
      <contour>
        <pt x="11" y="884" on="1"/>
        <pt x="11" y="900" on="0"/>
        <pt x="32" y="920" on="0"/>
        <pt x="48" y="920" on="1"/>
        <pt x="63" y="920" on="0"/>
        <pt x="84" y="900" on="0"/>
        <pt x="84" y="884" on="1"/>
        <pt x="84" y="869" on="0"/>
        <pt x="63" y="847" on="0"/>
        <pt x="48" y="847" on="1"/>
        <pt x="32" y="847" on="0"/>
        <pt x="11" y="869" on="0"/>
      </contour>
      <contour>
        <pt x="76" y="26" on="1"/>
        <pt x="76" y="707" on="1"/>
        <pt x="76" y="731" on="0"/>
        <pt x="142" y="731" on="0"/>
        <pt x="142" y="707" on="1"/>
        <pt x="142" y="26" on="1"/>
        <pt x="142" y="14" on="0"/>
        <pt x="122" y="0" on="0"/>
        <pt x="109" y="0" on="1"/>
        <pt x="95" y="0" on="0"/>
        <pt x="76" y="14" on="0"/>
      </contour>
      <contour>
        <pt x="134" y="884" on="1"/>
        <pt x="134" y="900" on="0"/>
        <pt x="155" y="920" on="0"/>
        <pt x="187" y="920" on="0"/>
        <pt x="207" y="900" on="0"/>
        <pt x="207" y="884" on="1"/>
        <pt x="207" y="869" on="0"/>
        <pt x="186" y="847" on="0"/>
        <pt x="171" y="847" on="1"/>
        <pt x="155" y="847" on="0"/>
        <pt x="134" y="869" on="0"/>
      </contour>
    </TTGlyph>
    <TTGlyph name="Idotaccent" xMin="72" yMin="0" xMax="145" yMax="920">
      <contour>
        <pt x="72" y="884" on="1"/>
        <pt x="72" y="900" on="0"/>
        <pt x="93" y="920" on="0"/>
        <pt x="109" y="920" on="1"/>
        <pt x="124" y="920" on="0"/>
        <pt x="145" y="900" on="0"/>
        <pt x="145" y="884" on="1"/>
        <pt x="145" y="869" on="0"/>
        <pt x="124" y="847" on="0"/>
        <pt x="109" y="847" on="1"/>
        <pt x="93" y="847" on="0"/>
        <pt x="72" y="869" on="0"/>
      </contour>
      <contour>
        <pt x="76" y="26" on="1"/>
        <pt x="76" y="707" on="1"/>
        <pt x="76" y="731" on="0"/>
        <pt x="142" y="731" on="0"/>
        <pt x="142" y="707" on="1"/>
        <pt x="142" y="26" on="1"/>
        <pt x="142" y="14" on="0"/>
        <pt x="122" y="0" on="0"/>
        <pt x="109" y="0" on="1"/>
        <pt x="95" y="0" on="0"/>
        <pt x="76" y="14" on="0"/>
      </contour>
    </TTGlyph>
    <TTGlyph name="Igrave" xMin="29" yMin="0" xMax="184" yMax="955">
      <contour>
        <pt x="29" y="927" on="1"/>
        <pt x="29" y="937" on="0"/>
        <pt x="43" y="955" on="0"/>
        <pt x="53" y="955" on="1"/>
        <pt x="58" y="955" on="0"/>
        <pt x="62" y="952" on="1"/>
        <pt x="173" y="891" on="1"/>
        <pt x="184" y="886" on="0"/>
        <pt x="184" y="873" on="1"/>
        <pt x="184" y="862" on="0"/>
        <pt x="168" y="845" on="0"/>
        <pt x="158" y="845" on="1"/>
        <pt x="152" y="845" on="0"/>
        <pt x="148" y="848" on="1"/>
        <pt x="42" y="905" on="1"/>
        <pt x="29" y="911" on="0"/>
      </contour>
      <contour>
        <pt x="76" y="26" on="1"/>
        <pt x="76" y="707" on="1"/>
        <pt x="76" y="731" on="0"/>
        <pt x="142" y="731" on="0"/>
        <pt x="142" y="707" on="1"/>
        <pt x="142" y="26" on="1"/>
        <pt x="142" y="14" on="0"/>
        <pt x="122" y="0" on="0"/>
        <pt x="109" y="0" on="1"/>
        <pt x="95" y="0" on="0"/>
        <pt x="76" y="14" on="0"/>
      </contour>
    </TTGlyph>
    <TTGlyph name="Imacron" xMin="-24" yMin="0" xMax="241" yMax="940">
      <contour>
        <pt x="-24" y="903" on="0"/>
        <pt x="-24" y="925" on="0"/>
        <pt x="-10" y="940" on="0"/>
        <pt x="1" y="940" on="1"/>
        <pt x="216" y="940" on="1"/>
        <pt x="225" y="940" on="0"/>
        <pt x="241" y="925" on="0"/>
        <pt x="241" y="914" on="1"/>
        <pt x="241" y="904" on="0"/>
        <pt x="225" y="889" on="0"/>
        <pt x="216" y="889" on="1"/>
        <pt x="1" y="889" on="1"/>
        <pt x="-10" y="889" on="0"/>
      </contour>
      <contour>
        <pt x="76" y="26" on="1"/>
        <pt x="76" y="707" on="1"/>
        <pt x="76" y="731" on="0"/>
        <pt x="142" y="731" on="0"/>
        <pt x="142" y="707" on="1"/>
        <pt x="142" y="26" on="1"/>
        <pt x="142" y="14" on="0"/>
        <pt x="122" y="0" on="0"/>
        <pt x="109" y="0" on="1"/>
        <pt x="95" y="0" on="0"/>
        <pt x="76" y="14" on="0"/>
      </contour>
    </TTGlyph>
    <TTGlyph name="Iogonek" xMin="17" yMin="-197" xMax="142" yMax="731">
      <contour>
        <pt x="17" y="-122" on="1"/>
        <pt x="17" y="-51" on="0"/>
        <pt x="81" y="10" on="1"/>
        <pt x="76" y="17" on="0"/>
        <pt x="76" y="26" on="1"/>
        <pt x="76" y="707" on="1"/>
        <pt x="76" y="731" on="0"/>
        <pt x="142" y="731" on="0"/>
        <pt x="142" y="707" on="1"/>
        <pt x="142" y="26" on="1"/>
        <pt x="142" y="10" on="0"/>
        <pt x="125" y="3" on="1"/>
        <pt x="57" y="-58" on="0"/>
        <pt x="57" y="-117" on="1"/>
        <pt x="57" y="-162" on="0"/>
        <pt x="119" y="-162" on="1"/>
        <pt x="139" y="-162" on="0"/>
        <pt x="139" y="-180" on="1"/>
        <pt x="139" y="-197" on="0"/>
        <pt x="114" y="-197" on="1"/>
        <pt x="73" y="-197" on="0"/>
        <pt x="17" y="-160" on="0"/>
      </contour>
    </TTGlyph>
    <TTGlyph name="Itilde" xMin="-46" yMin="0" xMax="264" yMax="948">
      <contour>
        <pt x="-46" y="866" on="0"/>
        <pt x="-46" y="916" on="0"/>
        <pt x="13" y="948" on="0"/>
        <pt x="42" y="948" on="1"/>
        <pt x="68" y="948" on="0"/>
        <pt x="148" y="914" on="0"/>
        <pt x="200" y="914" on="0"/>
        <pt x="238" y="943" on="0"/>
        <pt x="244" y="943" on="1"/>
        <pt x="253" y="943" on="0"/>
        <pt x="264" y="928" on="0"/>
        <pt x="264" y="920" on="1"/>
        <pt x="264" y="892" on="0"/>
        <pt x="208" y="863" on="0"/>
        <pt x="180" y="863" on="1"/>
        <pt x="153" y="863" on="0"/>
        <pt x="74" y="898" on="0"/>
        <pt x="47" y="898" on="1"/>
        <pt x="22" y="898" on="0"/>
        <pt x="-22" y="866" on="0"/>
        <pt x="-27" y="866" on="1"/>
      </contour>
      <contour>
        <pt x="76" y="26" on="1"/>
        <pt x="76" y="707" on="1"/>
        <pt x="76" y="731" on="0"/>
        <pt x="142" y="731" on="0"/>
        <pt x="142" y="707" on="1"/>
        <pt x="142" y="26" on="1"/>
        <pt x="142" y="14" on="0"/>
        <pt x="122" y="0" on="0"/>
        <pt x="109" y="0" on="1"/>
        <pt x="95" y="0" on="0"/>
        <pt x="76" y="14" on="0"/>
      </contour>
    </TTGlyph>
    <TTGlyph name="J" xMin="23" yMin="-6" xMax="439" yMax="731">
      <contour>
        <pt x="23" y="170" on="1"/>
        <pt x="23" y="204" on="0"/>
        <pt x="55" y="204" on="1"/>
        <pt x="89" y="204" on="0"/>
        <pt x="89" y="178" on="1"/>
        <pt x="89" y="121" on="0"/>
        <pt x="166" y="55" on="0"/>
        <pt x="231" y="55" on="1"/>
        <pt x="299" y="55" on="0"/>
        <pt x="373" y="131" on="0"/>
        <pt x="373" y="208" on="1"/>
        <pt x="373" y="670" on="1"/>
        <pt x="232" y="670" on="1"/>
        <pt x="220" y="670" on="0"/>
        <pt x="207" y="689" on="0"/>
        <pt x="207" y="702" on="1"/>
        <pt x="207" y="714" on="0"/>
        <pt x="220" y="731" on="0"/>
        <pt x="232" y="731" on="1"/>
        <pt x="408" y="731" on="1"/>
        <pt x="439" y="731" on="0"/>
        <pt x="439" y="706" on="1"/>
        <pt x="439" y="208" on="1"/>
        <pt x="439" y="97" on="0"/>
        <pt x="326" y="-6" on="0"/>
        <pt x="233" y="-6" on="1"/>
        <pt x="138" y="-6" on="0"/>
        <pt x="23" y="93" on="0"/>
      </contour>
    </TTGlyph>
    <TTGlyph name="Jcircumflex" xMin="23" yMin="-6" xMax="439" yMax="955">
      <contour>
        <pt x="23" y="170" on="1"/>
        <pt x="23" y="204" on="0"/>
        <pt x="55" y="204" on="1"/>
        <pt x="89" y="204" on="0"/>
        <pt x="89" y="178" on="1"/>
        <pt x="89" y="121" on="0"/>
        <pt x="166" y="55" on="0"/>
        <pt x="231" y="55" on="1"/>
        <pt x="299" y="55" on="0"/>
        <pt x="373" y="131" on="0"/>
        <pt x="373" y="208" on="1"/>
        <pt x="373" y="670" on="1"/>
        <pt x="232" y="670" on="1"/>
        <pt x="220" y="670" on="0"/>
        <pt x="207" y="689" on="0"/>
        <pt x="207" y="702" on="1"/>
        <pt x="207" y="714" on="0"/>
        <pt x="220" y="731" on="0"/>
        <pt x="232" y="731" on="1"/>
        <pt x="408" y="731" on="1"/>
        <pt x="439" y="731" on="0"/>
        <pt x="439" y="706" on="1"/>
        <pt x="439" y="208" on="1"/>
        <pt x="439" y="97" on="0"/>
        <pt x="326" y="-6" on="0"/>
        <pt x="233" y="-6" on="1"/>
        <pt x="138" y="-6" on="0"/>
        <pt x="23" y="93" on="0"/>
      </contour>
      <contour>
        <pt x="122" y="872" on="1"/>
        <pt x="122" y="887" on="0"/>
        <pt x="135" y="894" on="1"/>
        <pt x="239" y="950" on="1"/>
        <pt x="247" y="955" on="0"/>
        <pt x="265" y="955" on="0"/>
        <pt x="273" y="950" on="1"/>
        <pt x="377" y="894" on="1"/>
        <pt x="390" y="888" on="0"/>
        <pt x="390" y="871" on="1"/>
        <pt x="390" y="861" on="0"/>
        <pt x="378" y="847" on="0"/>
        <pt x="370" y="847" on="1"/>
        <pt x="369" y="847" on="0"/>
        <pt x="360" y="850" on="1"/>
        <pt x="256" y="905" on="1"/>
        <pt x="152" y="849" on="1"/>
        <pt x="143" y="846" on="1"/>
        <pt x="135" y="846" on="0"/>
        <pt x="122" y="862" on="0"/>
      </contour>
    </TTGlyph>
    <TTGlyph name="K" xMin="76" yMin="-2" xMax="518" yMax="731">
      <contour>
        <pt x="76" y="26" on="1"/>
        <pt x="76" y="707" on="1"/>
        <pt x="76" y="731" on="0"/>
        <pt x="142" y="731" on="0"/>
        <pt x="142" y="707" on="1"/>
        <pt x="142" y="353" on="1"/>
        <pt x="431" y="721" on="1"/>
        <pt x="438" y="731" on="0"/>
        <pt x="452" y="731" on="1"/>
        <pt x="464" y="731" on="0"/>
        <pt x="488" y="709" on="0"/>
        <pt x="488" y="697" on="1"/>
        <pt x="488" y="688" on="0"/>
        <pt x="483" y="682" on="1"/>
        <pt x="268" y="415" on="1"/>
        <pt x="514" y="45" on="1"/>
        <pt x="518" y="37" on="0"/>
        <pt x="518" y="32" on="1"/>
        <pt x="518" y="19" on="0"/>
        <pt x="494" y="-2" on="0"/>
        <pt x="466" y="-2" on="0"/>
        <pt x="455" y="13" on="1"/>
        <pt x="224" y="360" on="1"/>
        <pt x="142" y="256" on="1"/>
        <pt x="142" y="26" on="1"/>
        <pt x="142" y="14" on="0"/>
        <pt x="122" y="0" on="0"/>
        <pt x="109" y="0" on="1"/>
        <pt x="95" y="0" on="0"/>
        <pt x="76" y="14" on="0"/>
      </contour>
    </TTGlyph>
    <TTGlyph name="Kcommaaccent" xMin="76" yMin="-158" xMax="518" yMax="731">
      <contour>
        <pt x="76" y="26" on="1"/>
        <pt x="76" y="707" on="1"/>
        <pt x="76" y="731" on="0"/>
        <pt x="142" y="731" on="0"/>
        <pt x="142" y="707" on="1"/>
        <pt x="142" y="353" on="1"/>
        <pt x="431" y="721" on="1"/>
        <pt x="438" y="731" on="0"/>
        <pt x="452" y="731" on="1"/>
        <pt x="464" y="731" on="0"/>
        <pt x="488" y="709" on="0"/>
        <pt x="488" y="697" on="1"/>
        <pt x="488" y="688" on="0"/>
        <pt x="483" y="682" on="1"/>
        <pt x="268" y="415" on="1"/>
        <pt x="514" y="45" on="1"/>
        <pt x="518" y="37" on="0"/>
        <pt x="518" y="32" on="1"/>
        <pt x="518" y="19" on="0"/>
        <pt x="494" y="-2" on="0"/>
        <pt x="466" y="-2" on="0"/>
        <pt x="455" y="13" on="1"/>
        <pt x="224" y="360" on="1"/>
        <pt x="142" y="256" on="1"/>
        <pt x="142" y="26" on="1"/>
        <pt x="142" y="14" on="0"/>
        <pt x="122" y="0" on="0"/>
        <pt x="109" y="0" on="1"/>
        <pt x="95" y="0" on="0"/>
        <pt x="76" y="14" on="0"/>
      </contour>
      <contour>
        <pt x="185" y="-130" on="1"/>
        <pt x="185" y="-118" on="0"/>
        <pt x="196" y="-112" on="1"/>
        <pt x="307" y="-50" on="1"/>
        <pt x="313" y="-48" on="0"/>
        <pt x="316" y="-48" on="1"/>
        <pt x="326" y="-48" on="0"/>
        <pt x="340" y="-66" on="0"/>
        <pt x="340" y="-76" on="1"/>
        <pt x="340" y="-91" on="0"/>
        <pt x="327" y="-98" on="1"/>
        <pt x="221" y="-155" on="1"/>
        <pt x="215" y="-158" on="0"/>
        <pt x="210" y="-158" on="1"/>
        <pt x="200" y="-158" on="0"/>
        <pt x="185" y="-141" on="0"/>
      </contour>
    </TTGlyph>
    <TTGlyph name="L" xMin="76" yMin="0" xMax="449" yMax="731">
      <contour>
        <pt x="76" y="26" on="1"/>
        <pt x="76" y="707" on="1"/>
        <pt x="76" y="731" on="0"/>
        <pt x="142" y="731" on="0"/>
        <pt x="142" y="707" on="1"/>
        <pt x="142" y="61" on="1"/>
        <pt x="427" y="61" on="1"/>
        <pt x="449" y="61" on="0"/>
        <pt x="449" y="31" on="1"/>
        <pt x="449" y="0" on="0"/>
        <pt x="427" y="0" on="1"/>
        <pt x="106" y="0" on="1"/>
        <pt x="94" y="0" on="0"/>
        <pt x="76" y="14" on="0"/>
      </contour>
    </TTGlyph>
    <TTGlyph name="Lacute" xMin="76" yMin="0" xMax="449" yMax="955">
      <contour>
        <pt x="76" y="26" on="1"/>
        <pt x="76" y="707" on="1"/>
        <pt x="76" y="731" on="0"/>
        <pt x="142" y="731" on="0"/>
        <pt x="142" y="707" on="1"/>
        <pt x="142" y="61" on="1"/>
        <pt x="427" y="61" on="1"/>
        <pt x="449" y="61" on="0"/>
        <pt x="449" y="31" on="1"/>
        <pt x="449" y="0" on="0"/>
        <pt x="427" y="0" on="1"/>
        <pt x="106" y="0" on="1"/>
        <pt x="94" y="0" on="0"/>
        <pt x="76" y="14" on="0"/>
      </contour>
      <contour>
        <pt x="182" y="873" on="1"/>
        <pt x="182" y="886" on="0"/>
        <pt x="193" y="891" on="1"/>
        <pt x="305" y="952" on="1"/>
        <pt x="308" y="955" on="0"/>
        <pt x="313" y="955" on="1"/>
        <pt x="324" y="955" on="0"/>
        <pt x="337" y="938" on="0"/>
        <pt x="337" y="927" on="1"/>
        <pt x="337" y="911" on="0"/>
        <pt x="325" y="905" on="1"/>
        <pt x="218" y="848" on="1"/>
        <pt x="214" y="845" on="0"/>
        <pt x="208" y="845" on="1"/>
        <pt x="198" y="845" on="0"/>
        <pt x="182" y="862" on="0"/>
      </contour>
    </TTGlyph>
    <TTGlyph name="Lcaron" xMin="76" yMin="0" xMax="449" yMax="741">
      <contour>
        <pt x="76" y="26" on="1"/>
        <pt x="76" y="707" on="1"/>
        <pt x="76" y="731" on="0"/>
        <pt x="142" y="731" on="0"/>
        <pt x="142" y="707" on="1"/>
        <pt x="142" y="61" on="1"/>
        <pt x="427" y="61" on="1"/>
        <pt x="449" y="61" on="0"/>
        <pt x="449" y="31" on="1"/>
        <pt x="449" y="0" on="0"/>
        <pt x="427" y="0" on="1"/>
        <pt x="106" y="0" on="1"/>
        <pt x="94" y="0" on="0"/>
        <pt x="76" y="14" on="0"/>
      </contour>
      <contour>
        <pt x="294" y="695" on="1"/>
        <pt x="294" y="714" on="0"/>
        <pt x="321" y="741" on="0"/>
        <pt x="359" y="741" on="0"/>
        <pt x="386" y="714" on="0"/>
        <pt x="386" y="695" on="1"/>
        <pt x="386" y="672" on="0"/>
        <pt x="345" y="582" on="1"/>
        <pt x="340" y="570" on="0"/>
        <pt x="327" y="570" on="1"/>
        <pt x="318" y="570" on="0"/>
        <pt x="303" y="582" on="0"/>
        <pt x="303" y="591" on="1"/>
        <pt x="303" y="597" on="0"/>
        <pt x="305" y="600" on="1"/>
        <pt x="324" y="652" on="1"/>
        <pt x="294" y="662" on="0"/>
      </contour>
    </TTGlyph>
    <TTGlyph name="Lcommaaccent" xMin="76" yMin="-158" xMax="449" yMax="731">
      <contour>
        <pt x="76" y="26" on="1"/>
        <pt x="76" y="707" on="1"/>
        <pt x="76" y="731" on="0"/>
        <pt x="142" y="731" on="0"/>
        <pt x="142" y="707" on="1"/>
        <pt x="142" y="61" on="1"/>
        <pt x="427" y="61" on="1"/>
        <pt x="449" y="61" on="0"/>
        <pt x="449" y="31" on="1"/>
        <pt x="449" y="0" on="0"/>
        <pt x="427" y="0" on="1"/>
        <pt x="106" y="0" on="1"/>
        <pt x="94" y="0" on="0"/>
        <pt x="76" y="14" on="0"/>
      </contour>
      <contour>
        <pt x="178" y="-130" on="1"/>
        <pt x="178" y="-118" on="0"/>
        <pt x="189" y="-112" on="1"/>
        <pt x="300" y="-50" on="1"/>
        <pt x="306" y="-48" on="0"/>
        <pt x="309" y="-48" on="1"/>
        <pt x="319" y="-48" on="0"/>
        <pt x="333" y="-66" on="0"/>
        <pt x="333" y="-76" on="1"/>
        <pt x="333" y="-91" on="0"/>
        <pt x="320" y="-98" on="1"/>
        <pt x="214" y="-155" on="1"/>
        <pt x="208" y="-158" on="0"/>
        <pt x="203" y="-158" on="1"/>
        <pt x="193" y="-158" on="0"/>
        <pt x="178" y="-141" on="0"/>
      </contour>
    </TTGlyph>
    <TTGlyph name="Ldot" xMin="76" yMin="0" xMax="449" yMax="731">
      <contour>
        <pt x="76" y="26" on="1"/>
        <pt x="76" y="707" on="1"/>
        <pt x="76" y="731" on="0"/>
        <pt x="142" y="731" on="0"/>
        <pt x="142" y="707" on="1"/>
        <pt x="142" y="61" on="1"/>
        <pt x="427" y="61" on="1"/>
        <pt x="449" y="61" on="0"/>
        <pt x="449" y="31" on="1"/>
        <pt x="449" y="0" on="0"/>
        <pt x="427" y="0" on="1"/>
        <pt x="106" y="0" on="1"/>
        <pt x="94" y="0" on="0"/>
        <pt x="76" y="14" on="0"/>
      </contour>
      <contour>
        <pt x="290" y="421" on="1"/>
        <pt x="290" y="440" on="0"/>
        <pt x="317" y="466" on="0"/>
        <pt x="357" y="466" on="0"/>
        <pt x="384" y="440" on="0"/>
        <pt x="384" y="421" on="1"/>
        <pt x="384" y="403" on="0"/>
        <pt x="356" y="376" on="0"/>
        <pt x="337" y="376" on="1"/>
        <pt x="317" y="376" on="0"/>
        <pt x="290" y="403" on="0"/>
      </contour>
    </TTGlyph>
    <TTGlyph name="Lslash" xMin="2" yMin="0" xMax="455" yMax="731">
      <contour>
        <pt x="2" y="294" on="1"/>
        <pt x="2" y="308" on="0"/>
        <pt x="13" y="313" on="1"/>
        <pt x="82" y="351" on="1"/>
        <pt x="82" y="707" on="1"/>
        <pt x="82" y="731" on="0"/>
        <pt x="148" y="731" on="0"/>
        <pt x="148" y="707" on="1"/>
        <pt x="148" y="387" on="1"/>
        <pt x="245" y="440" on="1"/>
        <pt x="248" y="442" on="0"/>
        <pt x="255" y="442" on="1"/>
        <pt x="265" y="442" on="0"/>
        <pt x="281" y="424" on="0"/>
        <pt x="281" y="413" on="1"/>
        <pt x="281" y="399" on="0"/>
        <pt x="269" y="392" on="1"/>
        <pt x="148" y="325" on="1"/>
        <pt x="148" y="61" on="1"/>
        <pt x="433" y="61" on="1"/>
        <pt x="455" y="61" on="0"/>
        <pt x="455" y="31" on="1"/>
        <pt x="455" y="0" on="0"/>
        <pt x="433" y="0" on="1"/>
        <pt x="112" y="0" on="1"/>
        <pt x="100" y="0" on="0"/>
        <pt x="82" y="14" on="0"/>
        <pt x="82" y="26" on="1"/>
        <pt x="82" y="289" on="1"/>
        <pt x="37" y="265" on="1"/>
        <pt x="32" y="262" on="0"/>
        <pt x="27" y="262" on="1"/>
        <pt x="17" y="262" on="0"/>
        <pt x="2" y="282" on="0"/>
      </contour>
    </TTGlyph>
    <TTGlyph name="M" xMin="76" yMin="0" xMax="592" yMax="731">
      <contour>
        <pt x="76" y="26" on="1"/>
        <pt x="76" y="699" on="1"/>
        <pt x="76" y="731" on="0"/>
        <pt x="109" y="731" on="1"/>
        <pt x="138" y="731" on="0"/>
        <pt x="162" y="685" on="1"/>
        <pt x="334" y="353" on="1"/>
        <pt x="506" y="685" on="1"/>
        <pt x="530" y="731" on="0"/>
        <pt x="559" y="731" on="1"/>
        <pt x="592" y="731" on="0"/>
        <pt x="592" y="699" on="1"/>
        <pt x="592" y="26" on="1"/>
        <pt x="592" y="14" on="0"/>
        <pt x="573" y="0" on="0"/>
        <pt x="559" y="0" on="1"/>
        <pt x="546" y="0" on="0"/>
        <pt x="526" y="14" on="0"/>
        <pt x="526" y="26" on="1"/>
        <pt x="526" y="588" on="1"/>
        <pt x="360" y="274" on="1"/>
        <pt x="349" y="253" on="0"/>
        <pt x="333" y="253" on="1"/>
        <pt x="318" y="253" on="0"/>
        <pt x="307" y="274" on="1"/>
        <pt x="142" y="591" on="1"/>
        <pt x="142" y="26" on="1"/>
        <pt x="142" y="14" on="0"/>
        <pt x="122" y="0" on="0"/>
        <pt x="109" y="0" on="1"/>
        <pt x="95" y="0" on="0"/>
        <pt x="76" y="14" on="0"/>
      </contour>
    </TTGlyph>
    <TTGlyph name="N" xMin="76" yMin="0" xMax="497" yMax="731">
      <contour>
        <pt x="76" y="26" on="1"/>
        <pt x="76" y="706" on="1"/>
        <pt x="76" y="731" on="0"/>
        <pt x="109" y="731" on="1"/>
        <pt x="137" y="731" on="0"/>
        <pt x="161" y="685" on="1"/>
        <pt x="431" y="153" on="1"/>
        <pt x="431" y="707" on="1"/>
        <pt x="431" y="731" on="0"/>
        <pt x="497" y="731" on="0"/>
        <pt x="497" y="707" on="1"/>
        <pt x="497" y="26" on="1"/>
        <pt x="497" y="14" on="0"/>
        <pt x="477" y="0" on="0"/>
        <pt x="464" y="0" on="1"/>
        <pt x="439" y="0" on="0"/>
        <pt x="420" y="38" on="1"/>
        <pt x="142" y="579" on="1"/>
        <pt x="142" y="26" on="1"/>
        <pt x="142" y="14" on="0"/>
        <pt x="122" y="0" on="0"/>
        <pt x="109" y="0" on="1"/>
        <pt x="95" y="0" on="0"/>
        <pt x="76" y="14" on="0"/>
      </contour>
    </TTGlyph>
    <TTGlyph name="Nacute" xMin="76" yMin="0" xMax="497" yMax="955">
      <contour>
        <pt x="76" y="26" on="1"/>
        <pt x="76" y="706" on="1"/>
        <pt x="76" y="731" on="0"/>
        <pt x="109" y="731" on="1"/>
        <pt x="137" y="731" on="0"/>
        <pt x="161" y="685" on="1"/>
        <pt x="431" y="153" on="1"/>
        <pt x="431" y="707" on="1"/>
        <pt x="431" y="731" on="0"/>
        <pt x="497" y="731" on="0"/>
        <pt x="497" y="707" on="1"/>
        <pt x="497" y="26" on="1"/>
        <pt x="497" y="14" on="0"/>
        <pt x="477" y="0" on="0"/>
        <pt x="464" y="0" on="1"/>
        <pt x="439" y="0" on="0"/>
        <pt x="420" y="38" on="1"/>
        <pt x="142" y="579" on="1"/>
        <pt x="142" y="26" on="1"/>
        <pt x="142" y="14" on="0"/>
        <pt x="122" y="0" on="0"/>
        <pt x="109" y="0" on="1"/>
        <pt x="95" y="0" on="0"/>
        <pt x="76" y="14" on="0"/>
      </contour>
      <contour>
        <pt x="205" y="873" on="1"/>
        <pt x="205" y="886" on="0"/>
        <pt x="216" y="891" on="1"/>
        <pt x="328" y="952" on="1"/>
        <pt x="331" y="955" on="0"/>
        <pt x="336" y="955" on="1"/>
        <pt x="347" y="955" on="0"/>
        <pt x="360" y="938" on="0"/>
        <pt x="360" y="927" on="1"/>
        <pt x="360" y="911" on="0"/>
        <pt x="348" y="905" on="1"/>
        <pt x="241" y="848" on="1"/>
        <pt x="236" y="845" on="0"/>
        <pt x="231" y="845" on="1"/>
        <pt x="221" y="845" on="0"/>
        <pt x="205" y="862" on="0"/>
      </contour>
    </TTGlyph>
    <TTGlyph name="Ncaron" xMin="76" yMin="0" xMax="497" yMax="985">
      <contour>
        <pt x="76" y="26" on="1"/>
        <pt x="76" y="706" on="1"/>
        <pt x="76" y="731" on="0"/>
        <pt x="109" y="731" on="1"/>
        <pt x="137" y="731" on="0"/>
        <pt x="161" y="685" on="1"/>
        <pt x="431" y="153" on="1"/>
        <pt x="431" y="707" on="1"/>
        <pt x="431" y="731" on="0"/>
        <pt x="497" y="731" on="0"/>
        <pt x="497" y="707" on="1"/>
        <pt x="497" y="26" on="1"/>
        <pt x="497" y="14" on="0"/>
        <pt x="477" y="0" on="0"/>
        <pt x="464" y="0" on="1"/>
        <pt x="439" y="0" on="0"/>
        <pt x="420" y="38" on="1"/>
        <pt x="142" y="579" on="1"/>
        <pt x="142" y="26" on="1"/>
        <pt x="142" y="14" on="0"/>
        <pt x="122" y="0" on="0"/>
        <pt x="109" y="0" on="1"/>
        <pt x="95" y="0" on="0"/>
        <pt x="76" y="14" on="0"/>
      </contour>
      <contour>
        <pt x="152" y="963" on="1"/>
        <pt x="152" y="972" on="0"/>
        <pt x="163" y="985" on="0"/>
        <pt x="171" y="985" on="1"/>
        <pt x="180" y="985" on="0"/>
        <pt x="186" y="979" on="1"/>
        <pt x="286" y="887" on="1"/>
        <pt x="385" y="979" on="1"/>
        <pt x="391" y="985" on="0"/>
        <pt x="400" y="985" on="1"/>
        <pt x="408" y="985" on="0"/>
        <pt x="419" y="972" on="0"/>
        <pt x="419" y="963" on="1"/>
        <pt x="419" y="950" on="0"/>
        <pt x="407" y="940" on="1"/>
        <pt x="306" y="850" on="1"/>
        <pt x="294" y="840" on="0"/>
        <pt x="286" y="840" on="1"/>
        <pt x="276" y="840" on="0"/>
        <pt x="266" y="850" on="1"/>
        <pt x="165" y="940" on="1"/>
        <pt x="152" y="950" on="0"/>
      </contour>
    </TTGlyph>
    <TTGlyph name="Ncommaaccent" xMin="76" yMin="-158" xMax="497" yMax="731">
      <contour>
        <pt x="76" y="26" on="1"/>
        <pt x="76" y="706" on="1"/>
        <pt x="76" y="731" on="0"/>
        <pt x="109" y="731" on="1"/>
        <pt x="137" y="731" on="0"/>
        <pt x="161" y="685" on="1"/>
        <pt x="431" y="153" on="1"/>
        <pt x="431" y="707" on="1"/>
        <pt x="431" y="731" on="0"/>
        <pt x="497" y="731" on="0"/>
        <pt x="497" y="707" on="1"/>
        <pt x="497" y="26" on="1"/>
        <pt x="497" y="14" on="0"/>
        <pt x="477" y="0" on="0"/>
        <pt x="464" y="0" on="1"/>
        <pt x="439" y="0" on="0"/>
        <pt x="420" y="38" on="1"/>
        <pt x="142" y="579" on="1"/>
        <pt x="142" y="26" on="1"/>
        <pt x="142" y="14" on="0"/>
        <pt x="122" y="0" on="0"/>
        <pt x="109" y="0" on="1"/>
        <pt x="95" y="0" on="0"/>
        <pt x="76" y="14" on="0"/>
      </contour>
      <contour>
        <pt x="207" y="-130" on="1"/>
        <pt x="207" y="-118" on="0"/>
        <pt x="218" y="-112" on="1"/>
        <pt x="329" y="-50" on="1"/>
        <pt x="335" y="-48" on="0"/>
        <pt x="338" y="-48" on="1"/>
        <pt x="348" y="-48" on="0"/>
        <pt x="362" y="-66" on="0"/>
        <pt x="362" y="-76" on="1"/>
        <pt x="362" y="-91" on="0"/>
        <pt x="349" y="-98" on="1"/>
        <pt x="243" y="-155" on="1"/>
        <pt x="237" y="-158" on="0"/>
        <pt x="232" y="-158" on="1"/>
        <pt x="222" y="-158" on="0"/>
        <pt x="207" y="-141" on="0"/>
      </contour>
    </TTGlyph>
    <TTGlyph name="Ntilde" xMin="76" yMin="0" xMax="497" yMax="948">
      <contour>
        <pt x="76" y="26" on="1"/>
        <pt x="76" y="706" on="1"/>
        <pt x="76" y="731" on="0"/>
        <pt x="109" y="731" on="1"/>
        <pt x="137" y="731" on="0"/>
        <pt x="161" y="685" on="1"/>
        <pt x="431" y="153" on="1"/>
        <pt x="431" y="707" on="1"/>
        <pt x="431" y="731" on="0"/>
        <pt x="497" y="731" on="0"/>
        <pt x="497" y="707" on="1"/>
        <pt x="497" y="26" on="1"/>
        <pt x="497" y="14" on="0"/>
        <pt x="477" y="0" on="0"/>
        <pt x="464" y="0" on="1"/>
        <pt x="439" y="0" on="0"/>
        <pt x="420" y="38" on="1"/>
        <pt x="142" y="579" on="1"/>
        <pt x="142" y="26" on="1"/>
        <pt x="142" y="14" on="0"/>
        <pt x="122" y="0" on="0"/>
        <pt x="109" y="0" on="1"/>
        <pt x="95" y="0" on="0"/>
        <pt x="76" y="14" on="0"/>
      </contour>
      <contour>
        <pt x="129" y="866" on="0"/>
        <pt x="129" y="916" on="0"/>
        <pt x="188" y="948" on="0"/>
        <pt x="217" y="948" on="1"/>
        <pt x="243" y="948" on="0"/>
        <pt x="323" y="914" on="0"/>
        <pt x="375" y="914" on="0"/>
        <pt x="413" y="943" on="0"/>
        <pt x="419" y="943" on="1"/>
        <pt x="428" y="943" on="0"/>
        <pt x="439" y="928" on="0"/>
        <pt x="439" y="920" on="1"/>
        <pt x="439" y="892" on="0"/>
        <pt x="383" y="863" on="0"/>
        <pt x="355" y="863" on="1"/>
        <pt x="328" y="863" on="0"/>
        <pt x="249" y="898" on="0"/>
        <pt x="222" y="898" on="1"/>
        <pt x="197" y="898" on="0"/>
        <pt x="153" y="866" on="0"/>
        <pt x="148" y="866" on="1"/>
      </contour>
    </TTGlyph>
    <TTGlyph name="O" xMin="68" yMin="-6" xMax="484" yMax="731">
      <contour>
        <pt x="68" y="208" on="1"/>
        <pt x="68" y="518" on="1"/>
        <pt x="68" y="628" on="0"/>
        <pt x="181" y="731" on="0"/>
        <pt x="371" y="731" on="0"/>
        <pt x="484" y="628" on="0"/>
        <pt x="484" y="518" on="1"/>
        <pt x="484" y="208" on="1"/>
        <pt x="484" y="97" on="0"/>
        <pt x="371" y="-6" on="0"/>
        <pt x="181" y="-6" on="0"/>
        <pt x="68" y="97" on="0"/>
      </contour>
      <contour>
        <pt x="134" y="208" on="1"/>
        <pt x="134" y="55" on="0"/>
        <pt x="418" y="55" on="0"/>
        <pt x="418" y="208" on="1"/>
        <pt x="418" y="518" on="1"/>
        <pt x="418" y="670" on="0"/>
        <pt x="134" y="670" on="0"/>
        <pt x="134" y="518" on="1"/>
      </contour>
    </TTGlyph>
    <TTGlyph name="OE" xMin="68" yMin="-6" xMax="818" yMax="731">
      <contour>
        <pt x="68" y="208" on="1"/>
        <pt x="68" y="518" on="1"/>
        <pt x="68" y="628" on="0"/>
        <pt x="176" y="731" on="0"/>
        <pt x="268" y="731" on="1"/>
        <pt x="378" y="731" on="0"/>
        <pt x="424" y="659" on="1"/>
        <pt x="424" y="706" on="1"/>
        <pt x="424" y="718" on="0"/>
        <pt x="443" y="731" on="0"/>
        <pt x="455" y="731" on="1"/>
        <pt x="794" y="731" on="1"/>
        <pt x="818" y="731" on="0"/>
        <pt x="818" y="702" on="1"/>
        <pt x="818" y="670" on="0"/>
        <pt x="794" y="670" on="1"/>
        <pt x="484" y="670" on="1"/>
        <pt x="484" y="395" on="1"/>
        <pt x="631" y="395" on="1"/>
        <pt x="655" y="395" on="0"/>
        <pt x="655" y="365" on="1"/>
        <pt x="655" y="338" on="0"/>
        <pt x="631" y="338" on="1"/>
        <pt x="484" y="338" on="1"/>
        <pt x="484" y="61" on="1"/>
        <pt x="794" y="61" on="1"/>
        <pt x="818" y="61" on="0"/>
        <pt x="818" y="30" on="1"/>
        <pt x="818" y="0" on="0"/>
        <pt x="794" y="0" on="1"/>
        <pt x="455" y="0" on="1"/>
        <pt x="443" y="0" on="0"/>
        <pt x="424" y="14" on="0"/>
        <pt x="424" y="26" on="1"/>
        <pt x="424" y="67" on="1"/>
        <pt x="378" y="-6" on="0"/>
        <pt x="268" y="-6" on="1"/>
        <pt x="176" y="-6" on="0"/>
        <pt x="68" y="97" on="0"/>
      </contour>
      <contour>
        <pt x="134" y="208" on="1"/>
        <pt x="134" y="55" on="0"/>
        <pt x="418" y="55" on="0"/>
        <pt x="418" y="208" on="1"/>
        <pt x="418" y="518" on="1"/>
        <pt x="418" y="670" on="0"/>
        <pt x="134" y="670" on="0"/>
        <pt x="134" y="518" on="1"/>
      </contour>
    </TTGlyph>
    <TTGlyph name="Oacute" xMin="68" yMin="-6" xMax="484" yMax="955">
      <contour>
        <pt x="68" y="208" on="1"/>
        <pt x="68" y="518" on="1"/>
        <pt x="68" y="628" on="0"/>
        <pt x="181" y="731" on="0"/>
        <pt x="371" y="731" on="0"/>
        <pt x="484" y="628" on="0"/>
        <pt x="484" y="518" on="1"/>
        <pt x="484" y="208" on="1"/>
        <pt x="484" y="97" on="0"/>
        <pt x="371" y="-6" on="0"/>
        <pt x="181" y="-6" on="0"/>
        <pt x="68" y="97" on="0"/>
      </contour>
      <contour>
        <pt x="134" y="208" on="1"/>
        <pt x="134" y="55" on="0"/>
        <pt x="418" y="55" on="0"/>
        <pt x="418" y="208" on="1"/>
        <pt x="418" y="518" on="1"/>
        <pt x="418" y="670" on="0"/>
        <pt x="134" y="670" on="0"/>
        <pt x="134" y="518" on="1"/>
      </contour>
      <contour>
        <pt x="210" y="873" on="1"/>
        <pt x="210" y="886" on="0"/>
        <pt x="221" y="891" on="1"/>
        <pt x="333" y="952" on="1"/>
        <pt x="336" y="955" on="0"/>
        <pt x="341" y="955" on="1"/>
        <pt x="352" y="955" on="0"/>
        <pt x="365" y="938" on="0"/>
        <pt x="365" y="927" on="1"/>
        <pt x="365" y="911" on="0"/>
        <pt x="353" y="905" on="1"/>
        <pt x="246" y="848" on="1"/>
        <pt x="242" y="845" on="0"/>
        <pt x="236" y="845" on="1"/>
        <pt x="226" y="845" on="0"/>
        <pt x="210" y="862" on="0"/>
      </contour>
    </TTGlyph>
    <TTGlyph name="Obreve" xMin="68" yMin="-6" xMax="484" yMax="968">
      <contour>
        <pt x="68" y="208" on="1"/>
        <pt x="68" y="518" on="1"/>
        <pt x="68" y="628" on="0"/>
        <pt x="181" y="731" on="0"/>
        <pt x="371" y="731" on="0"/>
        <pt x="484" y="628" on="0"/>
        <pt x="484" y="518" on="1"/>
        <pt x="484" y="208" on="1"/>
        <pt x="484" y="97" on="0"/>
        <pt x="371" y="-6" on="0"/>
        <pt x="181" y="-6" on="0"/>
        <pt x="68" y="97" on="0"/>
      </contour>
      <contour>
        <pt x="134" y="208" on="1"/>
        <pt x="134" y="55" on="0"/>
        <pt x="418" y="55" on="0"/>
        <pt x="418" y="208" on="1"/>
        <pt x="418" y="518" on="1"/>
        <pt x="418" y="670" on="0"/>
        <pt x="134" y="670" on="0"/>
        <pt x="134" y="518" on="1"/>
      </contour>
      <contour>
        <pt x="159" y="968" on="1"/>
        <pt x="203" y="968" on="1"/>
        <pt x="203" y="934" on="0"/>
        <pt x="246" y="887" on="0"/>
        <pt x="276" y="887" on="1"/>
        <pt x="305" y="887" on="0"/>
        <pt x="348" y="934" on="0"/>
        <pt x="348" y="968" on="1"/>
        <pt x="392" y="968" on="1"/>
        <pt x="392" y="921" on="0"/>
        <pt x="321" y="851" on="0"/>
        <pt x="276" y="851" on="1"/>
        <pt x="229" y="851" on="0"/>
        <pt x="159" y="921" on="0"/>
      </contour>
    </TTGlyph>
    <TTGlyph name="Ocircumflex" xMin="68" yMin="-6" xMax="484" yMax="955">
      <contour>
        <pt x="68" y="208" on="1"/>
        <pt x="68" y="518" on="1"/>
        <pt x="68" y="628" on="0"/>
        <pt x="181" y="731" on="0"/>
        <pt x="371" y="731" on="0"/>
        <pt x="484" y="628" on="0"/>
        <pt x="484" y="518" on="1"/>
        <pt x="484" y="208" on="1"/>
        <pt x="484" y="97" on="0"/>
        <pt x="371" y="-6" on="0"/>
        <pt x="181" y="-6" on="0"/>
        <pt x="68" y="97" on="0"/>
      </contour>
      <contour>
        <pt x="134" y="208" on="1"/>
        <pt x="134" y="55" on="0"/>
        <pt x="418" y="55" on="0"/>
        <pt x="418" y="208" on="1"/>
        <pt x="418" y="518" on="1"/>
        <pt x="418" y="670" on="0"/>
        <pt x="134" y="670" on="0"/>
        <pt x="134" y="518" on="1"/>
      </contour>
      <contour>
        <pt x="142" y="872" on="1"/>
        <pt x="142" y="887" on="0"/>
        <pt x="155" y="894" on="1"/>
        <pt x="259" y="950" on="1"/>
        <pt x="267" y="955" on="0"/>
        <pt x="285" y="955" on="0"/>
        <pt x="293" y="950" on="1"/>
        <pt x="397" y="894" on="1"/>
        <pt x="410" y="888" on="0"/>
        <pt x="410" y="871" on="1"/>
        <pt x="410" y="861" on="0"/>
        <pt x="398" y="847" on="0"/>
        <pt x="390" y="847" on="1"/>
        <pt x="389" y="847" on="0"/>
        <pt x="380" y="850" on="1"/>
        <pt x="276" y="905" on="1"/>
        <pt x="172" y="849" on="1"/>
        <pt x="163" y="846" on="1"/>
        <pt x="155" y="846" on="0"/>
        <pt x="142" y="862" on="0"/>
      </contour>
    </TTGlyph>
    <TTGlyph name="Odieresis" xMin="68" yMin="-6" xMax="484" yMax="920">
      <contour>
        <pt x="68" y="208" on="1"/>
        <pt x="68" y="518" on="1"/>
        <pt x="68" y="628" on="0"/>
        <pt x="181" y="731" on="0"/>
        <pt x="371" y="731" on="0"/>
        <pt x="484" y="628" on="0"/>
        <pt x="484" y="518" on="1"/>
        <pt x="484" y="208" on="1"/>
        <pt x="484" y="97" on="0"/>
        <pt x="371" y="-6" on="0"/>
        <pt x="181" y="-6" on="0"/>
        <pt x="68" y="97" on="0"/>
      </contour>
      <contour>
        <pt x="134" y="208" on="1"/>
        <pt x="134" y="55" on="0"/>
        <pt x="418" y="55" on="0"/>
        <pt x="418" y="208" on="1"/>
        <pt x="418" y="518" on="1"/>
        <pt x="418" y="670" on="0"/>
        <pt x="134" y="670" on="0"/>
        <pt x="134" y="518" on="1"/>
      </contour>
      <contour>
        <pt x="178" y="884" on="1"/>
        <pt x="178" y="900" on="0"/>
        <pt x="199" y="920" on="0"/>
        <pt x="215" y="920" on="1"/>
        <pt x="230" y="920" on="0"/>
        <pt x="251" y="900" on="0"/>
        <pt x="251" y="884" on="1"/>
        <pt x="251" y="869" on="0"/>
        <pt x="230" y="847" on="0"/>
        <pt x="215" y="847" on="1"/>
        <pt x="199" y="847" on="0"/>
        <pt x="178" y="869" on="0"/>
      </contour>
      <contour>
        <pt x="301" y="884" on="1"/>
        <pt x="301" y="900" on="0"/>
        <pt x="322" y="920" on="0"/>
        <pt x="354" y="920" on="0"/>
        <pt x="374" y="900" on="0"/>
        <pt x="374" y="884" on="1"/>
        <pt x="374" y="869" on="0"/>
        <pt x="353" y="847" on="0"/>
        <pt x="338" y="847" on="1"/>
        <pt x="322" y="847" on="0"/>
        <pt x="301" y="869" on="0"/>
      </contour>
    </TTGlyph>
    <TTGlyph name="Ograve" xMin="68" yMin="-6" xMax="484" yMax="955">
      <contour>
        <pt x="68" y="208" on="1"/>
        <pt x="68" y="518" on="1"/>
        <pt x="68" y="628" on="0"/>
        <pt x="181" y="731" on="0"/>
        <pt x="371" y="731" on="0"/>
        <pt x="484" y="628" on="0"/>
        <pt x="484" y="518" on="1"/>
        <pt x="484" y="208" on="1"/>
        <pt x="484" y="97" on="0"/>
        <pt x="371" y="-6" on="0"/>
        <pt x="181" y="-6" on="0"/>
        <pt x="68" y="97" on="0"/>
      </contour>
      <contour>
        <pt x="134" y="208" on="1"/>
        <pt x="134" y="55" on="0"/>
        <pt x="418" y="55" on="0"/>
        <pt x="418" y="208" on="1"/>
        <pt x="418" y="518" on="1"/>
        <pt x="418" y="670" on="0"/>
        <pt x="134" y="670" on="0"/>
        <pt x="134" y="518" on="1"/>
      </contour>
      <contour>
        <pt x="195" y="927" on="1"/>
        <pt x="195" y="937" on="0"/>
        <pt x="209" y="955" on="0"/>
        <pt x="219" y="955" on="1"/>
        <pt x="224" y="955" on="0"/>
        <pt x="228" y="952" on="1"/>
        <pt x="339" y="891" on="1"/>
        <pt x="350" y="886" on="0"/>
        <pt x="350" y="873" on="1"/>
        <pt x="350" y="862" on="0"/>
        <pt x="334" y="845" on="0"/>
        <pt x="324" y="845" on="1"/>
        <pt x="318" y="845" on="0"/>
        <pt x="314" y="848" on="1"/>
        <pt x="208" y="905" on="1"/>
        <pt x="195" y="911" on="0"/>
      </contour>
    </TTGlyph>
    <TTGlyph name="Ohungarumlaut" xMin="68" yMin="-6" xMax="484" yMax="955">
      <contour>
        <pt x="68" y="208" on="1"/>
        <pt x="68" y="518" on="1"/>
        <pt x="68" y="628" on="0"/>
        <pt x="181" y="731" on="0"/>
        <pt x="371" y="731" on="0"/>
        <pt x="484" y="628" on="0"/>
        <pt x="484" y="518" on="1"/>
        <pt x="484" y="208" on="1"/>
        <pt x="484" y="97" on="0"/>
        <pt x="371" y="-6" on="0"/>
        <pt x="181" y="-6" on="0"/>
        <pt x="68" y="97" on="0"/>
      </contour>
      <contour>
        <pt x="134" y="208" on="1"/>
        <pt x="134" y="55" on="0"/>
        <pt x="418" y="55" on="0"/>
        <pt x="418" y="208" on="1"/>
        <pt x="418" y="518" on="1"/>
        <pt x="418" y="670" on="0"/>
        <pt x="134" y="670" on="0"/>
        <pt x="134" y="518" on="1"/>
      </contour>
      <contour>
        <pt x="169" y="868" on="1"/>
        <pt x="169" y="878" on="0"/>
        <pt x="177" y="882" on="1"/>
        <pt x="273" y="951" on="1"/>
        <pt x="277" y="955" on="0"/>
        <pt x="284" y="955" on="1"/>
        <pt x="293" y="955" on="0"/>
        <pt x="307" y="940" on="0"/>
        <pt x="307" y="931" on="1"/>
        <pt x="307" y="919" on="0"/>
        <pt x="298" y="913" on="1"/>
        <pt x="207" y="849" on="1"/>
        <pt x="202" y="844" on="0"/>
        <pt x="195" y="844" on="1"/>
        <pt x="185" y="844" on="0"/>
        <pt x="169" y="859" on="0"/>
      </contour>
      <contour>
        <pt x="319" y="868" on="1"/>
        <pt x="319" y="878" on="0"/>
        <pt x="327" y="882" on="1"/>
        <pt x="423" y="951" on="1"/>
        <pt x="427" y="955" on="0"/>
        <pt x="434" y="955" on="1"/>
        <pt x="443" y="955" on="0"/>
        <pt x="457" y="940" on="0"/>
        <pt x="457" y="931" on="1"/>
        <pt x="457" y="919" on="0"/>
        <pt x="448" y="913" on="1"/>
        <pt x="357" y="849" on="1"/>
        <pt x="352" y="844" on="0"/>
        <pt x="345" y="844" on="1"/>
        <pt x="335" y="844" on="0"/>
        <pt x="319" y="859" on="0"/>
      </contour>
    </TTGlyph>
    <TTGlyph name="Omacron" xMin="68" yMin="-6" xMax="484" yMax="940">
      <contour>
        <pt x="68" y="208" on="1"/>
        <pt x="68" y="518" on="1"/>
        <pt x="68" y="628" on="0"/>
        <pt x="181" y="731" on="0"/>
        <pt x="371" y="731" on="0"/>
        <pt x="484" y="628" on="0"/>
        <pt x="484" y="518" on="1"/>
        <pt x="484" y="208" on="1"/>
        <pt x="484" y="97" on="0"/>
        <pt x="371" y="-6" on="0"/>
        <pt x="181" y="-6" on="0"/>
        <pt x="68" y="97" on="0"/>
      </contour>
      <contour>
        <pt x="134" y="208" on="1"/>
        <pt x="134" y="55" on="0"/>
        <pt x="418" y="55" on="0"/>
        <pt x="418" y="208" on="1"/>
        <pt x="418" y="518" on="1"/>
        <pt x="418" y="670" on="0"/>
        <pt x="134" y="670" on="0"/>
        <pt x="134" y="518" on="1"/>
      </contour>
      <contour>
        <pt x="144" y="903" on="0"/>
        <pt x="144" y="925" on="0"/>
        <pt x="158" y="940" on="0"/>
        <pt x="169" y="940" on="1"/>
        <pt x="384" y="940" on="1"/>
        <pt x="393" y="940" on="0"/>
        <pt x="409" y="925" on="0"/>
        <pt x="409" y="914" on="1"/>
        <pt x="409" y="904" on="0"/>
        <pt x="393" y="889" on="0"/>
        <pt x="384" y="889" on="1"/>
        <pt x="169" y="889" on="1"/>
        <pt x="158" y="889" on="0"/>
      </contour>
    </TTGlyph>
    <TTGlyph name="Oslash" xMin="60" yMin="-27" xMax="493" yMax="769">
      <contour>
        <pt x="60" y="-2" on="1"/>
        <pt x="60" y="4" on="0"/>
        <pt x="63" y="10" on="1"/>
        <pt x="98" y="79" on="1"/>
        <pt x="68" y="127" on="0"/>
        <pt x="68" y="208" on="1"/>
        <pt x="68" y="518" on="1"/>
        <pt x="68" y="628" on="0"/>
        <pt x="181" y="731" on="0"/>
        <pt x="276" y="731" on="1"/>
        <pt x="359" y="731" on="0"/>
        <pt x="411" y="692" on="1"/>
        <pt x="444" y="757" on="1"/>
        <pt x="449" y="769" on="0"/>
        <pt x="464" y="769" on="1"/>
        <pt x="474" y="769" on="0"/>
        <pt x="493" y="753" on="0"/>
        <pt x="493" y="742" on="1"/>
        <pt x="493" y="734" on="0"/>
        <pt x="489" y="729" on="1"/>
        <pt x="450" y="652" on="1"/>
        <pt x="484" y="599" on="0"/>
        <pt x="484" y="518" on="1"/>
        <pt x="484" y="208" on="1"/>
        <pt x="484" y="97" on="0"/>
        <pt x="371" y="-6" on="0"/>
        <pt x="276" y="-6" on="1"/>
        <pt x="188" y="-6" on="0"/>
        <pt x="135" y="37" on="1"/>
        <pt x="110" y="-12" on="1"/>
        <pt x="104" y="-27" on="0"/>
        <pt x="86" y="-27" on="1"/>
        <pt x="76" y="-27" on="0"/>
        <pt x="60" y="-12" on="0"/>
      </contour>
      <contour>
        <pt x="134" y="208" on="1"/>
        <pt x="134" y="178" on="0"/>
        <pt x="138" y="158" on="1"/>
        <pt x="380" y="633" on="1"/>
        <pt x="344" y="670" on="0"/>
        <pt x="276" y="670" on="1"/>
        <pt x="134" y="670" on="0"/>
        <pt x="134" y="518" on="1"/>
      </contour>
      <contour>
        <pt x="166" y="98" on="1"/>
        <pt x="202" y="55" on="0"/>
        <pt x="276" y="55" on="1"/>
        <pt x="418" y="55" on="0"/>
        <pt x="418" y="208" on="1"/>
        <pt x="418" y="518" on="1"/>
        <pt x="418" y="546" on="0"/>
        <pt x="411" y="576" on="1"/>
      </contour>
    </TTGlyph>
    <TTGlyph name="Oslashacute" xMin="60" yMin="-27" xMax="493" yMax="955">
      <contour>
        <pt x="60" y="-2" on="1"/>
        <pt x="60" y="4" on="0"/>
        <pt x="63" y="10" on="1"/>
        <pt x="98" y="79" on="1"/>
        <pt x="68" y="127" on="0"/>
        <pt x="68" y="208" on="1"/>
        <pt x="68" y="518" on="1"/>
        <pt x="68" y="628" on="0"/>
        <pt x="181" y="731" on="0"/>
        <pt x="276" y="731" on="1"/>
        <pt x="359" y="731" on="0"/>
        <pt x="411" y="692" on="1"/>
        <pt x="444" y="757" on="1"/>
        <pt x="449" y="769" on="0"/>
        <pt x="464" y="769" on="1"/>
        <pt x="474" y="769" on="0"/>
        <pt x="493" y="753" on="0"/>
        <pt x="493" y="742" on="1"/>
        <pt x="493" y="734" on="0"/>
        <pt x="489" y="729" on="1"/>
        <pt x="450" y="652" on="1"/>
        <pt x="484" y="599" on="0"/>
        <pt x="484" y="518" on="1"/>
        <pt x="484" y="208" on="1"/>
        <pt x="484" y="97" on="0"/>
        <pt x="371" y="-6" on="0"/>
        <pt x="276" y="-6" on="1"/>
        <pt x="188" y="-6" on="0"/>
        <pt x="135" y="37" on="1"/>
        <pt x="110" y="-12" on="1"/>
        <pt x="104" y="-27" on="0"/>
        <pt x="86" y="-27" on="1"/>
        <pt x="76" y="-27" on="0"/>
        <pt x="60" y="-12" on="0"/>
      </contour>
      <contour>
        <pt x="134" y="208" on="1"/>
        <pt x="134" y="178" on="0"/>
        <pt x="138" y="158" on="1"/>
        <pt x="380" y="633" on="1"/>
        <pt x="344" y="670" on="0"/>
        <pt x="276" y="670" on="1"/>
        <pt x="134" y="670" on="0"/>
        <pt x="134" y="518" on="1"/>
      </contour>
      <contour>
        <pt x="166" y="98" on="1"/>
        <pt x="202" y="55" on="0"/>
        <pt x="276" y="55" on="1"/>
        <pt x="418" y="55" on="0"/>
        <pt x="418" y="208" on="1"/>
        <pt x="418" y="518" on="1"/>
        <pt x="418" y="546" on="0"/>
        <pt x="411" y="576" on="1"/>
      </contour>
      <contour>
        <pt x="205" y="873" on="1"/>
        <pt x="205" y="886" on="0"/>
        <pt x="216" y="891" on="1"/>
        <pt x="328" y="952" on="1"/>
        <pt x="331" y="955" on="0"/>
        <pt x="336" y="955" on="1"/>
        <pt x="347" y="955" on="0"/>
        <pt x="360" y="938" on="0"/>
        <pt x="360" y="927" on="1"/>
        <pt x="360" y="911" on="0"/>
        <pt x="348" y="905" on="1"/>
        <pt x="241" y="848" on="1"/>
        <pt x="236" y="845" on="0"/>
        <pt x="231" y="845" on="1"/>
        <pt x="221" y="845" on="0"/>
        <pt x="205" y="862" on="0"/>
      </contour>
    </TTGlyph>
    <TTGlyph name="Otilde" xMin="68" yMin="-6" xMax="484" yMax="948">
      <contour>
        <pt x="68" y="208" on="1"/>
        <pt x="68" y="518" on="1"/>
        <pt x="68" y="628" on="0"/>
        <pt x="181" y="731" on="0"/>
        <pt x="371" y="731" on="0"/>
        <pt x="484" y="628" on="0"/>
        <pt x="484" y="518" on="1"/>
        <pt x="484" y="208" on="1"/>
        <pt x="484" y="97" on="0"/>
        <pt x="371" y="-6" on="0"/>
        <pt x="181" y="-6" on="0"/>
        <pt x="68" y="97" on="0"/>
      </contour>
      <contour>
        <pt x="121" y="866" on="0"/>
        <pt x="121" y="916" on="0"/>
        <pt x="180" y="948" on="0"/>
        <pt x="209" y="948" on="1"/>
        <pt x="235" y="948" on="0"/>
        <pt x="315" y="914" on="0"/>
        <pt x="367" y="914" on="0"/>
        <pt x="405" y="943" on="0"/>
        <pt x="411" y="943" on="1"/>
        <pt x="420" y="943" on="0"/>
        <pt x="431" y="928" on="0"/>
        <pt x="431" y="920" on="1"/>
        <pt x="431" y="892" on="0"/>
        <pt x="375" y="863" on="0"/>
        <pt x="347" y="863" on="1"/>
        <pt x="320" y="863" on="0"/>
        <pt x="241" y="898" on="0"/>
        <pt x="214" y="898" on="1"/>
        <pt x="189" y="898" on="0"/>
        <pt x="145" y="866" on="0"/>
        <pt x="140" y="866" on="1"/>
      </contour>
      <contour>
        <pt x="134" y="208" on="1"/>
        <pt x="134" y="55" on="0"/>
        <pt x="418" y="55" on="0"/>
        <pt x="418" y="208" on="1"/>
        <pt x="418" y="518" on="1"/>
        <pt x="418" y="670" on="0"/>
        <pt x="134" y="670" on="0"/>
        <pt x="134" y="518" on="1"/>
      </contour>
    </TTGlyph>
    <TTGlyph name="P" xMin="76" yMin="0" xMax="494" yMax="731">
      <contour>
        <pt x="76" y="26" on="1"/>
        <pt x="76" y="707" on="1"/>
        <pt x="76" y="729" on="0"/>
        <pt x="104" y="731" on="1"/>
        <pt x="288" y="731" on="1"/>
        <pt x="382" y="731" on="0"/>
        <pt x="494" y="629" on="0"/>
        <pt x="494" y="519" on="1"/>
        <pt x="494" y="509" on="1"/>
        <pt x="494" y="399" on="0"/>
        <pt x="381" y="296" on="0"/>
        <pt x="286" y="296" on="1"/>
        <pt x="142" y="296" on="1"/>
        <pt x="142" y="26" on="1"/>
        <pt x="142" y="14" on="0"/>
        <pt x="122" y="0" on="0"/>
        <pt x="109" y="0" on="1"/>
        <pt x="95" y="0" on="0"/>
        <pt x="76" y="14" on="0"/>
      </contour>
      <contour>
        <pt x="142" y="353" on="1"/>
        <pt x="286" y="353" on="1"/>
        <pt x="354" y="353" on="0"/>
        <pt x="428" y="429" on="0"/>
        <pt x="428" y="506" on="1"/>
        <pt x="428" y="518" on="1"/>
        <pt x="428" y="670" on="0"/>
        <pt x="286" y="670" on="1"/>
        <pt x="142" y="670" on="1"/>
      </contour>
    </TTGlyph>
    <TTGlyph name="Q" xMin="68" yMin="-109" xMax="484" yMax="731">
      <contour>
        <pt x="68" y="208" on="1"/>
        <pt x="68" y="518" on="1"/>
        <pt x="68" y="628" on="0"/>
        <pt x="181" y="731" on="0"/>
        <pt x="371" y="731" on="0"/>
        <pt x="484" y="628" on="0"/>
        <pt x="484" y="518" on="1"/>
        <pt x="484" y="208" on="1"/>
        <pt x="484" y="105" on="0"/>
        <pt x="386" y="1" on="0"/>
        <pt x="302" y="-5" on="1"/>
        <pt x="302" y="-84" on="1"/>
        <pt x="302" y="-96" on="0"/>
        <pt x="287" y="-109" on="0"/>
        <pt x="277" y="-109" on="1"/>
        <pt x="266" y="-109" on="0"/>
        <pt x="251" y="-96" on="0"/>
        <pt x="251" y="-84" on="1"/>
        <pt x="251" y="-5" on="1"/>
        <pt x="166" y="1" on="0"/>
        <pt x="68" y="104" on="0"/>
      </contour>
      <contour>
        <pt x="134" y="208" on="1"/>
        <pt x="134" y="71" on="0"/>
        <pt x="251" y="58" on="1"/>
        <pt x="251" y="132" on="1"/>
        <pt x="251" y="156" on="0"/>
        <pt x="277" y="156" on="1"/>
        <pt x="302" y="156" on="0"/>
        <pt x="302" y="132" on="1"/>
        <pt x="302" y="58" on="1"/>
        <pt x="418" y="72" on="0"/>
        <pt x="418" y="208" on="1"/>
        <pt x="418" y="518" on="1"/>
        <pt x="418" y="670" on="0"/>
        <pt x="134" y="670" on="0"/>
        <pt x="134" y="518" on="1"/>
      </contour>
    </TTGlyph>
    <TTGlyph name="R" xMin="76" yMin="-2" xMax="496" yMax="731">
      <contour>
        <pt x="76" y="26" on="1"/>
        <pt x="76" y="707" on="1"/>
        <pt x="76" y="729" on="0"/>
        <pt x="101" y="731" on="1"/>
        <pt x="278" y="731" on="1"/>
        <pt x="375" y="731" on="0"/>
        <pt x="494" y="639" on="0"/>
        <pt x="494" y="534" on="1"/>
        <pt x="494" y="368" on="0"/>
        <pt x="338" y="341" on="1"/>
        <pt x="492" y="45" on="1"/>
        <pt x="496" y="40" on="0"/>
        <pt x="496" y="32" on="1"/>
        <pt x="496" y="19" on="0"/>
        <pt x="472" y="-2" on="0"/>
        <pt x="458" y="-2" on="1"/>
        <pt x="440" y="-2" on="0"/>
        <pt x="423" y="33" on="1"/>
        <pt x="269" y="333" on="1"/>
        <pt x="142" y="333" on="1"/>
        <pt x="142" y="26" on="1"/>
        <pt x="142" y="14" on="0"/>
        <pt x="122" y="0" on="0"/>
        <pt x="109" y="0" on="1"/>
        <pt x="95" y="0" on="0"/>
        <pt x="76" y="14" on="0"/>
      </contour>
      <contour>
        <pt x="142" y="390" on="1"/>
        <pt x="278" y="390" on="1"/>
        <pt x="428" y="390" on="0"/>
        <pt x="428" y="531" on="1"/>
        <pt x="428" y="670" on="0"/>
        <pt x="278" y="670" on="1"/>
        <pt x="142" y="670" on="1"/>
      </contour>
    </TTGlyph>
    <TTGlyph name="Racute" xMin="76" yMin="-2" xMax="496" yMax="955">
      <contour>
        <pt x="76" y="26" on="1"/>
        <pt x="76" y="707" on="1"/>
        <pt x="76" y="729" on="0"/>
        <pt x="101" y="731" on="1"/>
        <pt x="278" y="731" on="1"/>
        <pt x="375" y="731" on="0"/>
        <pt x="494" y="639" on="0"/>
        <pt x="494" y="534" on="1"/>
        <pt x="494" y="368" on="0"/>
        <pt x="338" y="341" on="1"/>
        <pt x="492" y="45" on="1"/>
        <pt x="496" y="40" on="0"/>
        <pt x="496" y="32" on="1"/>
        <pt x="496" y="19" on="0"/>
        <pt x="472" y="-2" on="0"/>
        <pt x="458" y="-2" on="1"/>
        <pt x="440" y="-2" on="0"/>
        <pt x="423" y="33" on="1"/>
        <pt x="269" y="333" on="1"/>
        <pt x="142" y="333" on="1"/>
        <pt x="142" y="26" on="1"/>
        <pt x="142" y="14" on="0"/>
        <pt x="122" y="0" on="0"/>
        <pt x="109" y="0" on="1"/>
        <pt x="95" y="0" on="0"/>
        <pt x="76" y="14" on="0"/>
      </contour>
      <contour>
        <pt x="142" y="390" on="1"/>
        <pt x="278" y="390" on="1"/>
        <pt x="428" y="390" on="0"/>
        <pt x="428" y="531" on="1"/>
        <pt x="428" y="670" on="0"/>
        <pt x="278" y="670" on="1"/>
        <pt x="142" y="670" on="1"/>
      </contour>
      <contour>
        <pt x="213" y="873" on="1"/>
        <pt x="213" y="886" on="0"/>
        <pt x="224" y="891" on="1"/>
        <pt x="336" y="952" on="1"/>
        <pt x="339" y="955" on="0"/>
        <pt x="344" y="955" on="1"/>
        <pt x="355" y="955" on="0"/>
        <pt x="368" y="938" on="0"/>
        <pt x="368" y="927" on="1"/>
        <pt x="368" y="911" on="0"/>
        <pt x="356" y="905" on="1"/>
        <pt x="249" y="848" on="1"/>
        <pt x="244" y="845" on="0"/>
        <pt x="239" y="845" on="1"/>
        <pt x="229" y="845" on="0"/>
        <pt x="213" y="862" on="0"/>
      </contour>
    </TTGlyph>
    <TTGlyph name="Rcaron" xMin="76" yMin="-2" xMax="496" yMax="985">
      <contour>
        <pt x="76" y="26" on="1"/>
        <pt x="76" y="707" on="1"/>
        <pt x="76" y="729" on="0"/>
        <pt x="101" y="731" on="1"/>
        <pt x="278" y="731" on="1"/>
        <pt x="375" y="731" on="0"/>
        <pt x="494" y="639" on="0"/>
        <pt x="494" y="534" on="1"/>
        <pt x="494" y="368" on="0"/>
        <pt x="338" y="341" on="1"/>
        <pt x="492" y="45" on="1"/>
        <pt x="496" y="40" on="0"/>
        <pt x="496" y="32" on="1"/>
        <pt x="496" y="19" on="0"/>
        <pt x="472" y="-2" on="0"/>
        <pt x="458" y="-2" on="1"/>
        <pt x="440" y="-2" on="0"/>
        <pt x="423" y="33" on="1"/>
        <pt x="269" y="333" on="1"/>
        <pt x="142" y="333" on="1"/>
        <pt x="142" y="26" on="1"/>
        <pt x="142" y="14" on="0"/>
        <pt x="122" y="0" on="0"/>
        <pt x="109" y="0" on="1"/>
        <pt x="95" y="0" on="0"/>
        <pt x="76" y="14" on="0"/>
      </contour>
      <contour>
        <pt x="142" y="390" on="1"/>
        <pt x="278" y="390" on="1"/>
        <pt x="428" y="390" on="0"/>
        <pt x="428" y="531" on="1"/>
        <pt x="428" y="670" on="0"/>
        <pt x="278" y="670" on="1"/>
        <pt x="142" y="670" on="1"/>
      </contour>
      <contour>
        <pt x="143" y="963" on="1"/>
        <pt x="143" y="972" on="0"/>
        <pt x="154" y="985" on="0"/>
        <pt x="162" y="985" on="1"/>
        <pt x="171" y="985" on="0"/>
        <pt x="177" y="979" on="1"/>
        <pt x="277" y="887" on="1"/>
        <pt x="376" y="979" on="1"/>
        <pt x="382" y="985" on="0"/>
        <pt x="391" y="985" on="1"/>
        <pt x="399" y="985" on="0"/>
        <pt x="410" y="972" on="0"/>
        <pt x="410" y="963" on="1"/>
        <pt x="410" y="950" on="0"/>
        <pt x="398" y="940" on="1"/>
        <pt x="297" y="850" on="1"/>
        <pt x="285" y="840" on="0"/>
        <pt x="277" y="840" on="1"/>
        <pt x="267" y="840" on="0"/>
        <pt x="257" y="850" on="1"/>
        <pt x="156" y="940" on="1"/>
        <pt x="143" y="950" on="0"/>
      </contour>
    </TTGlyph>
    <TTGlyph name="Rcommaaccent" xMin="76" yMin="-158" xMax="496" yMax="731">
      <contour>
        <pt x="76" y="26" on="1"/>
        <pt x="76" y="707" on="1"/>
        <pt x="76" y="729" on="0"/>
        <pt x="101" y="731" on="1"/>
        <pt x="278" y="731" on="1"/>
        <pt x="375" y="731" on="0"/>
        <pt x="494" y="639" on="0"/>
        <pt x="494" y="534" on="1"/>
        <pt x="494" y="368" on="0"/>
        <pt x="338" y="341" on="1"/>
        <pt x="492" y="45" on="1"/>
        <pt x="496" y="40" on="0"/>
        <pt x="496" y="32" on="1"/>
        <pt x="496" y="19" on="0"/>
        <pt x="472" y="-2" on="0"/>
        <pt x="458" y="-2" on="1"/>
        <pt x="440" y="-2" on="0"/>
        <pt x="423" y="33" on="1"/>
        <pt x="269" y="333" on="1"/>
        <pt x="142" y="333" on="1"/>
        <pt x="142" y="26" on="1"/>
        <pt x="142" y="14" on="0"/>
        <pt x="122" y="0" on="0"/>
        <pt x="109" y="0" on="1"/>
        <pt x="95" y="0" on="0"/>
        <pt x="76" y="14" on="0"/>
      </contour>
      <contour>
        <pt x="142" y="390" on="1"/>
        <pt x="278" y="390" on="1"/>
        <pt x="428" y="390" on="0"/>
        <pt x="428" y="531" on="1"/>
        <pt x="428" y="670" on="0"/>
        <pt x="278" y="670" on="1"/>
        <pt x="142" y="670" on="1"/>
      </contour>
      <contour>
        <pt x="177" y="-130" on="1"/>
        <pt x="177" y="-118" on="0"/>
        <pt x="188" y="-112" on="1"/>
        <pt x="299" y="-50" on="1"/>
        <pt x="305" y="-48" on="0"/>
        <pt x="308" y="-48" on="1"/>
        <pt x="318" y="-48" on="0"/>
        <pt x="332" y="-66" on="0"/>
        <pt x="332" y="-76" on="1"/>
        <pt x="332" y="-91" on="0"/>
        <pt x="319" y="-98" on="1"/>
        <pt x="213" y="-155" on="1"/>
        <pt x="207" y="-158" on="0"/>
        <pt x="202" y="-158" on="1"/>
        <pt x="192" y="-158" on="0"/>
        <pt x="177" y="-141" on="0"/>
      </contour>
    </TTGlyph>
    <TTGlyph name="S" xMin="36" yMin="-7" xMax="452" yMax="733">
      <contour>
        <pt x="36" y="101" on="1"/>
        <pt x="36" y="113" on="0"/>
        <pt x="55" y="138" on="0"/>
        <pt x="66" y="138" on="1"/>
        <pt x="74" y="138" on="0"/>
        <pt x="86" y="125" on="1"/>
        <pt x="114" y="96" on="1"/>
        <pt x="129" y="80" on="0"/>
        <pt x="194" y="55" on="0"/>
        <pt x="237" y="55" on="1"/>
        <pt x="308" y="55" on="0"/>
        <pt x="386" y="126" on="0"/>
        <pt x="386" y="193" on="1"/>
        <pt x="386" y="238" on="0"/>
        <pt x="349" y="301" on="0"/>
        <pt x="320" y="318" on="1"/>
        <pt x="292" y="336" on="0"/>
        <pt x="256" y="350" on="1"/>
        <pt x="184" y="378" on="1"/>
        <pt x="148" y="392" on="0"/>
        <pt x="91" y="431" on="0"/>
        <pt x="54" y="502" on="0"/>
        <pt x="54" y="551" on="1"/>
        <pt x="54" y="603" on="0"/>
        <pt x="93" y="678" on="0"/>
        <pt x="159" y="716" on="0"/>
        <pt x="228" y="733" on="0"/>
        <pt x="266" y="733" on="1"/>
        <pt x="327" y="733" on="0"/>
        <pt x="434" y="698" on="0"/>
        <pt x="434" y="672" on="1"/>
        <pt x="434" y="660" on="0"/>
        <pt x="417" y="635" on="0"/>
        <pt x="405" y="635" on="1"/>
        <pt x="399" y="635" on="0"/>
        <pt x="365" y="654" on="0"/>
        <pt x="304" y="673" on="0"/>
        <pt x="265" y="673" on="1"/>
        <pt x="202" y="673" on="0"/>
        <pt x="120" y="619" on="0"/>
        <pt x="120" y="557" on="1"/>
        <pt x="120" y="514" on="0"/>
        <pt x="169" y="456" on="0"/>
        <pt x="243" y="430" on="0"/>
        <pt x="329" y="394" on="0"/>
        <pt x="403" y="353" on="0"/>
        <pt x="452" y="264" on="0"/>
        <pt x="452" y="199" on="1"/>
        <pt x="452" y="96" on="0"/>
        <pt x="338" y="-7" on="0"/>
        <pt x="241" y="-7" on="1"/>
        <pt x="154" y="-7" on="0"/>
        <pt x="36" y="68" on="0"/>
      </contour>
    </TTGlyph>
    <TTGlyph name="Sacute" xMin="36" yMin="-7" xMax="452" yMax="955">
      <contour>
        <pt x="36" y="101" on="1"/>
        <pt x="36" y="113" on="0"/>
        <pt x="55" y="138" on="0"/>
        <pt x="66" y="138" on="1"/>
        <pt x="74" y="138" on="0"/>
        <pt x="86" y="125" on="1"/>
        <pt x="114" y="96" on="1"/>
        <pt x="129" y="81" on="0"/>
        <pt x="194" y="55" on="0"/>
        <pt x="237" y="55" on="1"/>
        <pt x="308" y="55" on="0"/>
        <pt x="386" y="126" on="0"/>
        <pt x="386" y="193" on="1"/>
        <pt x="386" y="238" on="0"/>
        <pt x="349" y="301" on="0"/>
        <pt x="291" y="336" on="0"/>
        <pt x="256" y="350" on="1"/>
        <pt x="184" y="378" on="1"/>
        <pt x="149" y="392" on="0"/>
        <pt x="91" y="431" on="0"/>
        <pt x="54" y="502" on="0"/>
        <pt x="54" y="551" on="1"/>
        <pt x="54" y="603" on="0"/>
        <pt x="93" y="678" on="0"/>
        <pt x="159" y="716" on="0"/>
        <pt x="228" y="733" on="0"/>
        <pt x="266" y="733" on="1"/>
        <pt x="327" y="733" on="0"/>
        <pt x="434" y="698" on="0"/>
        <pt x="434" y="672" on="1"/>
        <pt x="434" y="660" on="0"/>
        <pt x="417" y="635" on="0"/>
        <pt x="405" y="635" on="1"/>
        <pt x="399" y="635" on="0"/>
        <pt x="365" y="654" on="0"/>
        <pt x="304" y="673" on="0"/>
        <pt x="265" y="673" on="1"/>
        <pt x="202" y="673" on="0"/>
        <pt x="120" y="619" on="0"/>
        <pt x="120" y="557" on="1"/>
        <pt x="120" y="514" on="0"/>
        <pt x="169" y="456" on="0"/>
        <pt x="243" y="430" on="0"/>
        <pt x="329" y="394" on="0"/>
        <pt x="403" y="353" on="0"/>
        <pt x="452" y="264" on="0"/>
        <pt x="452" y="199" on="1"/>
        <pt x="452" y="96" on="0"/>
        <pt x="338" y="-7" on="0"/>
        <pt x="241" y="-7" on="1"/>
        <pt x="154" y="-7" on="0"/>
        <pt x="36" y="68" on="0"/>
      </contour>
      <contour>
        <pt x="173" y="873" on="1"/>
        <pt x="173" y="886" on="0"/>
        <pt x="184" y="891" on="1"/>
        <pt x="296" y="952" on="1"/>
        <pt x="299" y="955" on="0"/>
        <pt x="304" y="955" on="1"/>
        <pt x="315" y="955" on="0"/>
        <pt x="328" y="938" on="0"/>
        <pt x="328" y="927" on="1"/>
        <pt x="328" y="911" on="0"/>
        <pt x="316" y="905" on="1"/>
        <pt x="209" y="848" on="1"/>
        <pt x="204" y="845" on="0"/>
        <pt x="199" y="845" on="1"/>
        <pt x="189" y="845" on="0"/>
        <pt x="173" y="862" on="0"/>
      </contour>
    </TTGlyph>
    <TTGlyph name="Scaron" xMin="36" yMin="-7" xMax="452" yMax="985">
      <contour>
        <pt x="36" y="101" on="1"/>
        <pt x="36" y="113" on="0"/>
        <pt x="55" y="138" on="0"/>
        <pt x="66" y="138" on="1"/>
        <pt x="74" y="138" on="0"/>
        <pt x="86" y="125" on="1"/>
        <pt x="114" y="96" on="1"/>
        <pt x="129" y="81" on="0"/>
        <pt x="194" y="55" on="0"/>
        <pt x="237" y="55" on="1"/>
        <pt x="308" y="55" on="0"/>
        <pt x="386" y="126" on="0"/>
        <pt x="386" y="193" on="1"/>
        <pt x="386" y="238" on="0"/>
        <pt x="349" y="301" on="0"/>
        <pt x="291" y="336" on="0"/>
        <pt x="256" y="350" on="1"/>
        <pt x="184" y="378" on="1"/>
        <pt x="149" y="392" on="0"/>
        <pt x="91" y="431" on="0"/>
        <pt x="54" y="502" on="0"/>
        <pt x="54" y="551" on="1"/>
        <pt x="54" y="603" on="0"/>
        <pt x="93" y="678" on="0"/>
        <pt x="159" y="716" on="0"/>
        <pt x="228" y="733" on="0"/>
        <pt x="266" y="733" on="1"/>
        <pt x="327" y="733" on="0"/>
        <pt x="434" y="698" on="0"/>
        <pt x="434" y="672" on="1"/>
        <pt x="434" y="660" on="0"/>
        <pt x="417" y="635" on="0"/>
        <pt x="405" y="635" on="1"/>
        <pt x="399" y="635" on="0"/>
        <pt x="365" y="654" on="0"/>
        <pt x="304" y="673" on="0"/>
        <pt x="265" y="673" on="1"/>
        <pt x="202" y="673" on="0"/>
        <pt x="120" y="619" on="0"/>
        <pt x="120" y="557" on="1"/>
        <pt x="120" y="514" on="0"/>
        <pt x="169" y="456" on="0"/>
        <pt x="243" y="430" on="0"/>
        <pt x="329" y="394" on="0"/>
        <pt x="403" y="353" on="0"/>
        <pt x="452" y="264" on="0"/>
        <pt x="452" y="199" on="1"/>
        <pt x="452" y="96" on="0"/>
        <pt x="338" y="-7" on="0"/>
        <pt x="241" y="-7" on="1"/>
        <pt x="154" y="-7" on="0"/>
        <pt x="36" y="68" on="0"/>
      </contour>
      <contour>
        <pt x="110" y="963" on="1"/>
        <pt x="110" y="972" on="0"/>
        <pt x="121" y="985" on="0"/>
        <pt x="129" y="985" on="1"/>
        <pt x="138" y="985" on="0"/>
        <pt x="144" y="979" on="1"/>
        <pt x="244" y="887" on="1"/>
        <pt x="343" y="979" on="1"/>
        <pt x="349" y="985" on="0"/>
        <pt x="358" y="985" on="1"/>
        <pt x="366" y="985" on="0"/>
        <pt x="377" y="972" on="0"/>
        <pt x="377" y="963" on="1"/>
        <pt x="377" y="950" on="0"/>
        <pt x="365" y="940" on="1"/>
        <pt x="264" y="850" on="1"/>
        <pt x="252" y="840" on="0"/>
        <pt x="244" y="840" on="1"/>
        <pt x="234" y="840" on="0"/>
        <pt x="224" y="850" on="1"/>
        <pt x="123" y="940" on="1"/>
        <pt x="110" y="950" on="0"/>
      </contour>
    </TTGlyph>
    <TTGlyph name="Scedilla" xMin="36" yMin="-210" xMax="452" yMax="733">
      <contour>
        <pt x="36" y="101" on="1"/>
        <pt x="36" y="113" on="0"/>
        <pt x="55" y="138" on="0"/>
        <pt x="66" y="138" on="1"/>
        <pt x="74" y="138" on="0"/>
        <pt x="86" y="125" on="1"/>
        <pt x="114" y="96" on="1"/>
        <pt x="129" y="81" on="0"/>
        <pt x="194" y="55" on="0"/>
        <pt x="237" y="55" on="1"/>
        <pt x="308" y="55" on="0"/>
        <pt x="386" y="126" on="0"/>
        <pt x="386" y="193" on="1"/>
        <pt x="386" y="238" on="0"/>
        <pt x="349" y="301" on="0"/>
        <pt x="291" y="336" on="0"/>
        <pt x="256" y="350" on="1"/>
        <pt x="184" y="378" on="1"/>
        <pt x="149" y="392" on="0"/>
        <pt x="91" y="431" on="0"/>
        <pt x="54" y="502" on="0"/>
        <pt x="54" y="551" on="1"/>
        <pt x="54" y="603" on="0"/>
        <pt x="93" y="678" on="0"/>
        <pt x="159" y="716" on="0"/>
        <pt x="228" y="733" on="0"/>
        <pt x="266" y="733" on="1"/>
        <pt x="327" y="733" on="0"/>
        <pt x="434" y="698" on="0"/>
        <pt x="434" y="672" on="1"/>
        <pt x="434" y="660" on="0"/>
        <pt x="417" y="635" on="0"/>
        <pt x="405" y="635" on="1"/>
        <pt x="399" y="635" on="0"/>
        <pt x="365" y="654" on="0"/>
        <pt x="304" y="673" on="0"/>
        <pt x="265" y="673" on="1"/>
        <pt x="202" y="673" on="0"/>
        <pt x="120" y="619" on="0"/>
        <pt x="120" y="557" on="1"/>
        <pt x="120" y="514" on="0"/>
        <pt x="169" y="456" on="0"/>
        <pt x="243" y="430" on="0"/>
        <pt x="329" y="394" on="0"/>
        <pt x="403" y="353" on="0"/>
        <pt x="452" y="264" on="0"/>
        <pt x="452" y="199" on="1"/>
        <pt x="452" y="109" on="0"/>
        <pt x="363" y="7" on="0"/>
        <pt x="286" y="-4" on="1"/>
        <pt x="271" y="-61" on="1"/>
        <pt x="319" y="-62" on="0"/>
        <pt x="367" y="-103" on="0"/>
        <pt x="367" y="-163" on="0"/>
        <pt x="321" y="-210" on="0"/>
        <pt x="278" y="-210" on="1"/>
        <pt x="253" y="-210" on="0"/>
        <pt x="200" y="-196" on="0"/>
        <pt x="200" y="-184" on="1"/>
        <pt x="200" y="-178" on="0"/>
        <pt x="209" y="-160" on="0"/>
        <pt x="216" y="-160" on="1"/>
        <pt x="217" y="-160" on="0"/>
        <pt x="252" y="-174" on="0"/>
        <pt x="272" y="-174" on="1"/>
        <pt x="325" y="-174" on="0"/>
        <pt x="325" y="-135" on="1"/>
        <pt x="325" y="-98" on="0"/>
        <pt x="262" y="-93" on="1"/>
        <pt x="224" y="-90" on="1"/>
        <pt x="246" y="-7" on="1"/>
        <pt x="241" y="-7" on="1"/>
        <pt x="154" y="-7" on="0"/>
        <pt x="36" y="68" on="0"/>
      </contour>
    </TTGlyph>
    <TTGlyph name="Scircumflex" xMin="36" yMin="-7" xMax="452" yMax="955">
      <contour>
        <pt x="36" y="101" on="1"/>
        <pt x="36" y="113" on="0"/>
        <pt x="55" y="138" on="0"/>
        <pt x="66" y="138" on="1"/>
        <pt x="74" y="138" on="0"/>
        <pt x="86" y="125" on="1"/>
        <pt x="114" y="96" on="1"/>
        <pt x="129" y="81" on="0"/>
        <pt x="194" y="55" on="0"/>
        <pt x="237" y="55" on="1"/>
        <pt x="308" y="55" on="0"/>
        <pt x="386" y="126" on="0"/>
        <pt x="386" y="193" on="1"/>
        <pt x="386" y="238" on="0"/>
        <pt x="349" y="301" on="0"/>
        <pt x="291" y="336" on="0"/>
        <pt x="256" y="350" on="1"/>
        <pt x="184" y="378" on="1"/>
        <pt x="149" y="392" on="0"/>
        <pt x="91" y="431" on="0"/>
        <pt x="54" y="502" on="0"/>
        <pt x="54" y="551" on="1"/>
        <pt x="54" y="603" on="0"/>
        <pt x="93" y="678" on="0"/>
        <pt x="159" y="716" on="0"/>
        <pt x="228" y="733" on="0"/>
        <pt x="266" y="733" on="1"/>
        <pt x="327" y="733" on="0"/>
        <pt x="434" y="698" on="0"/>
        <pt x="434" y="672" on="1"/>
        <pt x="434" y="660" on="0"/>
        <pt x="417" y="635" on="0"/>
        <pt x="405" y="635" on="1"/>
        <pt x="399" y="635" on="0"/>
        <pt x="365" y="654" on="0"/>
        <pt x="304" y="673" on="0"/>
        <pt x="265" y="673" on="1"/>
        <pt x="202" y="673" on="0"/>
        <pt x="120" y="619" on="0"/>
        <pt x="120" y="557" on="1"/>
        <pt x="120" y="514" on="0"/>
        <pt x="169" y="456" on="0"/>
        <pt x="243" y="430" on="0"/>
        <pt x="329" y="394" on="0"/>
        <pt x="403" y="353" on="0"/>
        <pt x="452" y="264" on="0"/>
        <pt x="452" y="199" on="1"/>
        <pt x="452" y="96" on="0"/>
        <pt x="338" y="-7" on="0"/>
        <pt x="241" y="-7" on="1"/>
        <pt x="154" y="-7" on="0"/>
        <pt x="36" y="68" on="0"/>
      </contour>
      <contour>
        <pt x="110" y="872" on="1"/>
        <pt x="110" y="887" on="0"/>
        <pt x="123" y="894" on="1"/>
        <pt x="227" y="950" on="1"/>
        <pt x="235" y="955" on="0"/>
        <pt x="253" y="955" on="0"/>
        <pt x="261" y="950" on="1"/>
        <pt x="365" y="894" on="1"/>
        <pt x="378" y="888" on="0"/>
        <pt x="378" y="871" on="1"/>
        <pt x="378" y="861" on="0"/>
        <pt x="366" y="847" on="0"/>
        <pt x="358" y="847" on="1"/>
        <pt x="357" y="847" on="0"/>
        <pt x="348" y="850" on="1"/>
        <pt x="244" y="905" on="1"/>
        <pt x="140" y="849" on="1"/>
        <pt x="131" y="846" on="1"/>
        <pt x="123" y="846" on="0"/>
        <pt x="110" y="862" on="0"/>
      </contour>
    </TTGlyph>
    <TTGlyph name="Scommaaccent" xMin="36" yMin="-158" xMax="452" yMax="733">
      <contour>
        <pt x="36" y="101" on="1"/>
        <pt x="36" y="113" on="0"/>
        <pt x="55" y="138" on="0"/>
        <pt x="66" y="138" on="1"/>
        <pt x="74" y="138" on="0"/>
        <pt x="86" y="125" on="1"/>
        <pt x="114" y="96" on="1"/>
        <pt x="129" y="81" on="0"/>
        <pt x="194" y="55" on="0"/>
        <pt x="237" y="55" on="1"/>
        <pt x="308" y="55" on="0"/>
        <pt x="386" y="126" on="0"/>
        <pt x="386" y="193" on="1"/>
        <pt x="386" y="238" on="0"/>
        <pt x="349" y="301" on="0"/>
        <pt x="291" y="336" on="0"/>
        <pt x="256" y="350" on="1"/>
        <pt x="184" y="378" on="1"/>
        <pt x="149" y="392" on="0"/>
        <pt x="91" y="431" on="0"/>
        <pt x="54" y="502" on="0"/>
        <pt x="54" y="551" on="1"/>
        <pt x="54" y="603" on="0"/>
        <pt x="93" y="678" on="0"/>
        <pt x="159" y="716" on="0"/>
        <pt x="228" y="733" on="0"/>
        <pt x="266" y="733" on="1"/>
        <pt x="327" y="733" on="0"/>
        <pt x="434" y="698" on="0"/>
        <pt x="434" y="672" on="1"/>
        <pt x="434" y="660" on="0"/>
        <pt x="417" y="635" on="0"/>
        <pt x="405" y="635" on="1"/>
        <pt x="399" y="635" on="0"/>
        <pt x="365" y="654" on="0"/>
        <pt x="304" y="673" on="0"/>
        <pt x="265" y="673" on="1"/>
        <pt x="202" y="673" on="0"/>
        <pt x="120" y="619" on="0"/>
        <pt x="120" y="557" on="1"/>
        <pt x="120" y="514" on="0"/>
        <pt x="169" y="456" on="0"/>
        <pt x="243" y="430" on="0"/>
        <pt x="329" y="394" on="0"/>
        <pt x="403" y="353" on="0"/>
        <pt x="452" y="264" on="0"/>
        <pt x="452" y="199" on="1"/>
        <pt x="452" y="96" on="0"/>
        <pt x="338" y="-7" on="0"/>
        <pt x="241" y="-7" on="1"/>
        <pt x="154" y="-7" on="0"/>
        <pt x="36" y="68" on="0"/>
      </contour>
      <contour>
        <pt x="181" y="-130" on="1"/>
        <pt x="181" y="-118" on="0"/>
        <pt x="192" y="-112" on="1"/>
        <pt x="303" y="-50" on="1"/>
        <pt x="309" y="-48" on="0"/>
        <pt x="312" y="-48" on="1"/>
        <pt x="322" y="-48" on="0"/>
        <pt x="336" y="-66" on="0"/>
        <pt x="336" y="-76" on="1"/>
        <pt x="336" y="-91" on="0"/>
        <pt x="323" y="-98" on="1"/>
        <pt x="217" y="-155" on="1"/>
        <pt x="211" y="-158" on="0"/>
        <pt x="206" y="-158" on="1"/>
        <pt x="196" y="-158" on="0"/>
        <pt x="181" y="-141" on="0"/>
      </contour>
    </TTGlyph>
    <TTGlyph name="T" xMin="15" yMin="0" xMax="466" yMax="731">
      <contour>
        <pt x="15" y="700" on="1"/>
        <pt x="15" y="712" on="0"/>
        <pt x="28" y="731" on="0"/>
        <pt x="40" y="731" on="1"/>
        <pt x="441" y="731" on="1"/>
        <pt x="453" y="731" on="0"/>
        <pt x="466" y="713" on="0"/>
        <pt x="466" y="701" on="1"/>
        <pt x="466" y="688" on="0"/>
        <pt x="453" y="669" on="0"/>
        <pt x="441" y="669" on="1"/>
        <pt x="274" y="669" on="1"/>
        <pt x="274" y="26" on="1"/>
        <pt x="274" y="14" on="0"/>
        <pt x="254" y="0" on="0"/>
        <pt x="241" y="0" on="1"/>
        <pt x="227" y="0" on="0"/>
        <pt x="208" y="14" on="0"/>
        <pt x="208" y="26" on="1"/>
        <pt x="208" y="669" on="1"/>
        <pt x="40" y="669" on="1"/>
        <pt x="29" y="669" on="0"/>
        <pt x="15" y="687" on="0"/>
      </contour>
    </TTGlyph>
    <TTGlyph name="Tbar" xMin="15" yMin="0" xMax="466" yMax="731">
      <contour>
        <pt x="15" y="700" on="1"/>
        <pt x="15" y="712" on="0"/>
        <pt x="28" y="731" on="0"/>
        <pt x="40" y="731" on="1"/>
        <pt x="441" y="731" on="1"/>
        <pt x="453" y="731" on="0"/>
        <pt x="466" y="713" on="0"/>
        <pt x="466" y="701" on="1"/>
        <pt x="466" y="688" on="0"/>
        <pt x="453" y="669" on="0"/>
        <pt x="441" y="669" on="1"/>
        <pt x="274" y="669" on="1"/>
        <pt x="274" y="392" on="1"/>
        <pt x="401" y="392" on="1"/>
        <pt x="412" y="392" on="0"/>
        <pt x="424" y="376" on="0"/>
        <pt x="424" y="366" on="1"/>
        <pt x="424" y="338" on="0"/>
        <pt x="401" y="338" on="1"/>
        <pt x="274" y="338" on="1"/>
        <pt x="274" y="26" on="1"/>
        <pt x="274" y="14" on="0"/>
        <pt x="254" y="0" on="0"/>
        <pt x="241" y="0" on="1"/>
        <pt x="227" y="0" on="0"/>
        <pt x="208" y="14" on="0"/>
        <pt x="208" y="26" on="1"/>
        <pt x="208" y="338" on="1"/>
        <pt x="80" y="338" on="1"/>
        <pt x="69" y="338" on="0"/>
        <pt x="57" y="354" on="0"/>
        <pt x="57" y="376" on="0"/>
        <pt x="69" y="392" on="0"/>
        <pt x="80" y="392" on="1"/>
        <pt x="208" y="392" on="1"/>
        <pt x="208" y="669" on="1"/>
        <pt x="40" y="669" on="1"/>
        <pt x="29" y="669" on="0"/>
        <pt x="15" y="687" on="0"/>
      </contour>
    </TTGlyph>
    <TTGlyph name="Tcaron" xMin="15" yMin="0" xMax="466" yMax="985">
      <contour>
        <pt x="15" y="700" on="1"/>
        <pt x="15" y="712" on="0"/>
        <pt x="28" y="731" on="0"/>
        <pt x="40" y="731" on="1"/>
        <pt x="441" y="731" on="1"/>
        <pt x="453" y="731" on="0"/>
        <pt x="466" y="713" on="0"/>
        <pt x="466" y="701" on="1"/>
        <pt x="466" y="688" on="0"/>
        <pt x="453" y="669" on="0"/>
        <pt x="441" y="669" on="1"/>
        <pt x="274" y="669" on="1"/>
        <pt x="274" y="26" on="1"/>
        <pt x="274" y="14" on="0"/>
        <pt x="254" y="0" on="0"/>
        <pt x="241" y="0" on="1"/>
        <pt x="227" y="0" on="0"/>
        <pt x="208" y="14" on="0"/>
        <pt x="208" y="26" on="1"/>
        <pt x="208" y="669" on="1"/>
        <pt x="40" y="669" on="1"/>
        <pt x="29" y="669" on="0"/>
        <pt x="15" y="687" on="0"/>
      </contour>
      <contour>
        <pt x="106" y="963" on="1"/>
        <pt x="106" y="972" on="0"/>
        <pt x="117" y="985" on="0"/>
        <pt x="125" y="985" on="1"/>
        <pt x="134" y="985" on="0"/>
        <pt x="140" y="979" on="1"/>
        <pt x="240" y="887" on="1"/>
        <pt x="339" y="979" on="1"/>
        <pt x="345" y="985" on="0"/>
        <pt x="354" y="985" on="1"/>
        <pt x="362" y="985" on="0"/>
        <pt x="373" y="972" on="0"/>
        <pt x="373" y="963" on="1"/>
        <pt x="373" y="950" on="0"/>
        <pt x="361" y="940" on="1"/>
        <pt x="260" y="850" on="1"/>
        <pt x="248" y="840" on="0"/>
        <pt x="240" y="840" on="1"/>
        <pt x="230" y="840" on="0"/>
        <pt x="220" y="850" on="1"/>
        <pt x="119" y="940" on="1"/>
        <pt x="106" y="950" on="0"/>
      </contour>
    </TTGlyph>
    <TTGlyph name="Tcommaaccent" xMin="15" yMin="-158" xMax="466" yMax="731">
      <contour>
        <pt x="15" y="700" on="1"/>
        <pt x="15" y="712" on="0"/>
        <pt x="28" y="731" on="0"/>
        <pt x="40" y="731" on="1"/>
        <pt x="441" y="731" on="1"/>
        <pt x="453" y="731" on="0"/>
        <pt x="466" y="713" on="0"/>
        <pt x="466" y="701" on="1"/>
        <pt x="466" y="688" on="0"/>
        <pt x="453" y="669" on="0"/>
        <pt x="441" y="669" on="1"/>
        <pt x="274" y="669" on="1"/>
        <pt x="274" y="26" on="1"/>
        <pt x="274" y="14" on="0"/>
        <pt x="254" y="0" on="0"/>
        <pt x="241" y="0" on="1"/>
        <pt x="227" y="0" on="0"/>
        <pt x="208" y="14" on="0"/>
        <pt x="208" y="26" on="1"/>
        <pt x="208" y="669" on="1"/>
        <pt x="40" y="669" on="1"/>
        <pt x="29" y="669" on="0"/>
        <pt x="15" y="687" on="0"/>
      </contour>
      <contour>
        <pt x="163" y="-130" on="1"/>
        <pt x="163" y="-118" on="0"/>
        <pt x="174" y="-112" on="1"/>
        <pt x="285" y="-50" on="1"/>
        <pt x="291" y="-48" on="0"/>
        <pt x="294" y="-48" on="1"/>
        <pt x="304" y="-48" on="0"/>
        <pt x="318" y="-66" on="0"/>
        <pt x="318" y="-76" on="1"/>
        <pt x="318" y="-91" on="0"/>
        <pt x="305" y="-98" on="1"/>
        <pt x="199" y="-155" on="1"/>
        <pt x="193" y="-158" on="0"/>
        <pt x="188" y="-158" on="1"/>
        <pt x="178" y="-158" on="0"/>
        <pt x="163" y="-141" on="0"/>
      </contour>
    </TTGlyph>
    <TTGlyph name="Thorn" xMin="76" yMin="0" xMax="452" yMax="735">
      <contour>
        <pt x="76" y="26" on="1"/>
        <pt x="76" y="712" on="1"/>
        <pt x="76" y="735" on="0"/>
        <pt x="107" y="735" on="1"/>
        <pt x="122" y="735" on="0"/>
        <pt x="141" y="722" on="0"/>
        <pt x="141" y="711" on="1"/>
        <pt x="141" y="543" on="1"/>
        <pt x="182" y="619" on="0"/>
        <pt x="279" y="619" on="1"/>
        <pt x="350" y="619" on="0"/>
        <pt x="452" y="531" on="0"/>
        <pt x="452" y="458" on="1"/>
        <pt x="452" y="297" on="1"/>
        <pt x="452" y="225" on="0"/>
        <pt x="350" y="133" on="0"/>
        <pt x="284" y="133" on="1"/>
        <pt x="237" y="133" on="0"/>
        <pt x="154" y="179" on="0"/>
        <pt x="141" y="212" on="1"/>
        <pt x="141" y="26" on="1"/>
        <pt x="141" y="16" on="0"/>
        <pt x="121" y="0" on="0"/>
        <pt x="95" y="0" on="0"/>
        <pt x="76" y="16" on="0"/>
      </contour>
      <contour>
        <pt x="141" y="293" on="1"/>
        <pt x="141" y="257" on="0"/>
        <pt x="215" y="193" on="0"/>
        <pt x="268" y="193" on="1"/>
        <pt x="316" y="193" on="0"/>
        <pt x="387" y="249" on="0"/>
        <pt x="387" y="297" on="1"/>
        <pt x="387" y="458" on="1"/>
        <pt x="387" y="505" on="0"/>
        <pt x="317" y="559" on="0"/>
        <pt x="268" y="559" on="1"/>
        <pt x="216" y="559" on="0"/>
        <pt x="141" y="502" on="0"/>
        <pt x="141" y="458" on="1"/>
      </contour>
    </TTGlyph>
    <TTGlyph name="U" xMin="73" yMin="-6" xMax="493" yMax="731">
      <contour>
        <pt x="73" y="208" on="1"/>
        <pt x="73" y="707" on="1"/>
        <pt x="73" y="731" on="0"/>
        <pt x="139" y="731" on="0"/>
        <pt x="139" y="707" on="1"/>
        <pt x="139" y="208" on="1"/>
        <pt x="139" y="132" on="0"/>
        <pt x="214" y="55" on="0"/>
        <pt x="352" y="55" on="0"/>
        <pt x="427" y="132" on="0"/>
        <pt x="427" y="208" on="1"/>
        <pt x="427" y="707" on="1"/>
        <pt x="427" y="731" on="0"/>
        <pt x="493" y="731" on="0"/>
        <pt x="493" y="707" on="1"/>
        <pt x="493" y="208" on="1"/>
        <pt x="493" y="97" on="0"/>
        <pt x="378" y="-6" on="0"/>
        <pt x="188" y="-6" on="0"/>
        <pt x="73" y="97" on="0"/>
      </contour>
    </TTGlyph>
    <TTGlyph name="Uacute" xMin="73" yMin="-6" xMax="493" yMax="955">
      <contour>
        <pt x="73" y="208" on="1"/>
        <pt x="73" y="707" on="1"/>
        <pt x="73" y="731" on="0"/>
        <pt x="139" y="731" on="0"/>
        <pt x="139" y="707" on="1"/>
        <pt x="139" y="208" on="1"/>
        <pt x="139" y="132" on="0"/>
        <pt x="214" y="55" on="0"/>
        <pt x="352" y="55" on="0"/>
        <pt x="427" y="132" on="0"/>
        <pt x="427" y="208" on="1"/>
        <pt x="427" y="707" on="1"/>
        <pt x="427" y="731" on="0"/>
        <pt x="493" y="731" on="0"/>
        <pt x="493" y="707" on="1"/>
        <pt x="493" y="208" on="1"/>
        <pt x="493" y="97" on="0"/>
        <pt x="378" y="-6" on="0"/>
        <pt x="188" y="-6" on="0"/>
        <pt x="73" y="97" on="0"/>
      </contour>
      <contour>
        <pt x="212" y="873" on="1"/>
        <pt x="212" y="886" on="0"/>
        <pt x="223" y="891" on="1"/>
        <pt x="335" y="952" on="1"/>
        <pt x="338" y="955" on="0"/>
        <pt x="343" y="955" on="1"/>
        <pt x="354" y="955" on="0"/>
        <pt x="367" y="938" on="0"/>
        <pt x="367" y="927" on="1"/>
        <pt x="367" y="911" on="0"/>
        <pt x="355" y="905" on="1"/>
        <pt x="248" y="848" on="1"/>
        <pt x="244" y="845" on="0"/>
        <pt x="238" y="845" on="1"/>
        <pt x="228" y="845" on="0"/>
        <pt x="212" y="862" on="0"/>
      </contour>
    </TTGlyph>
    <TTGlyph name="Ubreve" xMin="73" yMin="-6" xMax="493" yMax="968">
      <contour>
        <pt x="73" y="208" on="1"/>
        <pt x="73" y="707" on="1"/>
        <pt x="73" y="731" on="0"/>
        <pt x="139" y="731" on="0"/>
        <pt x="139" y="707" on="1"/>
        <pt x="139" y="208" on="1"/>
        <pt x="139" y="132" on="0"/>
        <pt x="214" y="55" on="0"/>
        <pt x="352" y="55" on="0"/>
        <pt x="427" y="132" on="0"/>
        <pt x="427" y="208" on="1"/>
        <pt x="427" y="707" on="1"/>
        <pt x="427" y="731" on="0"/>
        <pt x="493" y="731" on="0"/>
        <pt x="493" y="707" on="1"/>
        <pt x="493" y="208" on="1"/>
        <pt x="493" y="97" on="0"/>
        <pt x="378" y="-6" on="0"/>
        <pt x="188" y="-6" on="0"/>
        <pt x="73" y="97" on="0"/>
      </contour>
      <contour>
        <pt x="165" y="968" on="1"/>
        <pt x="209" y="968" on="1"/>
        <pt x="209" y="934" on="0"/>
        <pt x="252" y="887" on="0"/>
        <pt x="282" y="887" on="1"/>
        <pt x="311" y="887" on="0"/>
        <pt x="354" y="934" on="0"/>
        <pt x="354" y="968" on="1"/>
        <pt x="398" y="968" on="1"/>
        <pt x="398" y="921" on="0"/>
        <pt x="327" y="851" on="0"/>
        <pt x="282" y="851" on="1"/>
        <pt x="235" y="851" on="0"/>
        <pt x="165" y="921" on="0"/>
      </contour>
    </TTGlyph>
    <TTGlyph name="Ucircumflex" xMin="73" yMin="-6" xMax="493" yMax="955">
      <contour>
        <pt x="73" y="208" on="1"/>
        <pt x="73" y="707" on="1"/>
        <pt x="73" y="731" on="0"/>
        <pt x="139" y="731" on="0"/>
        <pt x="139" y="707" on="1"/>
        <pt x="139" y="208" on="1"/>
        <pt x="139" y="132" on="0"/>
        <pt x="214" y="55" on="0"/>
        <pt x="352" y="55" on="0"/>
        <pt x="427" y="132" on="0"/>
        <pt x="427" y="208" on="1"/>
        <pt x="427" y="707" on="1"/>
        <pt x="427" y="731" on="0"/>
        <pt x="493" y="731" on="0"/>
        <pt x="493" y="707" on="1"/>
        <pt x="493" y="208" on="1"/>
        <pt x="493" y="97" on="0"/>
        <pt x="378" y="-6" on="0"/>
        <pt x="188" y="-6" on="0"/>
        <pt x="73" y="97" on="0"/>
      </contour>
      <contour>
        <pt x="147" y="872" on="1"/>
        <pt x="147" y="887" on="0"/>
        <pt x="160" y="894" on="1"/>
        <pt x="264" y="950" on="1"/>
        <pt x="272" y="955" on="0"/>
        <pt x="290" y="955" on="0"/>
        <pt x="298" y="950" on="1"/>
        <pt x="402" y="894" on="1"/>
        <pt x="415" y="888" on="0"/>
        <pt x="415" y="871" on="1"/>
        <pt x="415" y="861" on="0"/>
        <pt x="403" y="847" on="0"/>
        <pt x="395" y="847" on="1"/>
        <pt x="394" y="847" on="0"/>
        <pt x="385" y="850" on="1"/>
        <pt x="281" y="905" on="1"/>
        <pt x="177" y="849" on="1"/>
        <pt x="168" y="846" on="1"/>
        <pt x="160" y="846" on="0"/>
        <pt x="147" y="862" on="0"/>
      </contour>
    </TTGlyph>
    <TTGlyph name="Udieresis" xMin="73" yMin="-6" xMax="493" yMax="920">
      <contour>
        <pt x="73" y="208" on="1"/>
        <pt x="73" y="707" on="1"/>
        <pt x="73" y="731" on="0"/>
        <pt x="139" y="731" on="0"/>
        <pt x="139" y="707" on="1"/>
        <pt x="139" y="208" on="1"/>
        <pt x="139" y="132" on="0"/>
        <pt x="214" y="55" on="0"/>
        <pt x="352" y="55" on="0"/>
        <pt x="427" y="132" on="0"/>
        <pt x="427" y="208" on="1"/>
        <pt x="427" y="707" on="1"/>
        <pt x="427" y="731" on="0"/>
        <pt x="493" y="731" on="0"/>
        <pt x="493" y="707" on="1"/>
        <pt x="493" y="208" on="1"/>
        <pt x="493" y="97" on="0"/>
        <pt x="378" y="-6" on="0"/>
        <pt x="188" y="-6" on="0"/>
        <pt x="73" y="97" on="0"/>
      </contour>
      <contour>
        <pt x="185" y="884" on="1"/>
        <pt x="185" y="900" on="0"/>
        <pt x="206" y="920" on="0"/>
        <pt x="222" y="920" on="1"/>
        <pt x="237" y="920" on="0"/>
        <pt x="258" y="900" on="0"/>
        <pt x="258" y="884" on="1"/>
        <pt x="258" y="869" on="0"/>
        <pt x="237" y="847" on="0"/>
        <pt x="222" y="847" on="1"/>
        <pt x="206" y="847" on="0"/>
        <pt x="185" y="869" on="0"/>
      </contour>
      <contour>
        <pt x="308" y="884" on="1"/>
        <pt x="308" y="900" on="0"/>
        <pt x="329" y="920" on="0"/>
        <pt x="361" y="920" on="0"/>
        <pt x="381" y="900" on="0"/>
        <pt x="381" y="884" on="1"/>
        <pt x="381" y="869" on="0"/>
        <pt x="360" y="847" on="0"/>
        <pt x="345" y="847" on="1"/>
        <pt x="329" y="847" on="0"/>
        <pt x="308" y="869" on="0"/>
      </contour>
    </TTGlyph>
    <TTGlyph name="Ugrave" xMin="73" yMin="-6" xMax="493" yMax="955">
      <contour>
        <pt x="73" y="208" on="1"/>
        <pt x="73" y="707" on="1"/>
        <pt x="73" y="731" on="0"/>
        <pt x="139" y="731" on="0"/>
        <pt x="139" y="707" on="1"/>
        <pt x="139" y="208" on="1"/>
        <pt x="139" y="132" on="0"/>
        <pt x="214" y="55" on="0"/>
        <pt x="352" y="55" on="0"/>
        <pt x="427" y="132" on="0"/>
        <pt x="427" y="208" on="1"/>
        <pt x="427" y="707" on="1"/>
        <pt x="427" y="731" on="0"/>
        <pt x="493" y="731" on="0"/>
        <pt x="493" y="707" on="1"/>
        <pt x="493" y="208" on="1"/>
        <pt x="493" y="97" on="0"/>
        <pt x="378" y="-6" on="0"/>
        <pt x="188" y="-6" on="0"/>
        <pt x="73" y="97" on="0"/>
      </contour>
      <contour>
        <pt x="200" y="927" on="1"/>
        <pt x="200" y="937" on="0"/>
        <pt x="214" y="955" on="0"/>
        <pt x="224" y="955" on="1"/>
        <pt x="228" y="955" on="0"/>
        <pt x="233" y="952" on="1"/>
        <pt x="344" y="891" on="1"/>
        <pt x="355" y="886" on="0"/>
        <pt x="355" y="873" on="1"/>
        <pt x="355" y="862" on="0"/>
        <pt x="339" y="845" on="0"/>
        <pt x="329" y="845" on="1"/>
        <pt x="324" y="845" on="0"/>
        <pt x="319" y="848" on="1"/>
        <pt x="213" y="905" on="1"/>
        <pt x="200" y="911" on="0"/>
      </contour>
    </TTGlyph>
    <TTGlyph name="Uhungarumlaut" xMin="73" yMin="-6" xMax="493" yMax="955">
      <contour>
        <pt x="73" y="208" on="1"/>
        <pt x="73" y="707" on="1"/>
        <pt x="73" y="731" on="0"/>
        <pt x="139" y="731" on="0"/>
        <pt x="139" y="707" on="1"/>
        <pt x="139" y="208" on="1"/>
        <pt x="139" y="132" on="0"/>
        <pt x="214" y="55" on="0"/>
        <pt x="352" y="55" on="0"/>
        <pt x="427" y="132" on="0"/>
        <pt x="427" y="208" on="1"/>
        <pt x="427" y="707" on="1"/>
        <pt x="427" y="731" on="0"/>
        <pt x="493" y="731" on="0"/>
        <pt x="493" y="707" on="1"/>
        <pt x="493" y="208" on="1"/>
        <pt x="493" y="97" on="0"/>
        <pt x="378" y="-6" on="0"/>
        <pt x="188" y="-6" on="0"/>
        <pt x="73" y="97" on="0"/>
      </contour>
      <contour>
        <pt x="182" y="868" on="1"/>
        <pt x="182" y="878" on="0"/>
        <pt x="190" y="882" on="1"/>
        <pt x="286" y="951" on="1"/>
        <pt x="290" y="955" on="0"/>
        <pt x="297" y="955" on="1"/>
        <pt x="306" y="955" on="0"/>
        <pt x="320" y="940" on="0"/>
        <pt x="320" y="931" on="1"/>
        <pt x="320" y="919" on="0"/>
        <pt x="311" y="913" on="1"/>
        <pt x="220" y="849" on="1"/>
        <pt x="215" y="844" on="0"/>
        <pt x="208" y="844" on="1"/>
        <pt x="198" y="844" on="0"/>
        <pt x="182" y="859" on="0"/>
      </contour>
      <contour>
        <pt x="332" y="868" on="1"/>
        <pt x="332" y="878" on="0"/>
        <pt x="340" y="882" on="1"/>
        <pt x="436" y="951" on="1"/>
        <pt x="440" y="955" on="0"/>
        <pt x="447" y="955" on="1"/>
        <pt x="456" y="955" on="0"/>
        <pt x="470" y="940" on="0"/>
        <pt x="470" y="931" on="1"/>
        <pt x="470" y="919" on="0"/>
        <pt x="461" y="913" on="1"/>
        <pt x="370" y="849" on="1"/>
        <pt x="365" y="844" on="0"/>
        <pt x="358" y="844" on="1"/>
        <pt x="348" y="844" on="0"/>
        <pt x="332" y="859" on="0"/>
      </contour>
    </TTGlyph>
    <TTGlyph name="Umacron" xMin="73" yMin="-6" xMax="493" yMax="940">
      <contour>
        <pt x="73" y="208" on="1"/>
        <pt x="73" y="707" on="1"/>
        <pt x="73" y="731" on="0"/>
        <pt x="139" y="731" on="0"/>
        <pt x="139" y="707" on="1"/>
        <pt x="139" y="208" on="1"/>
        <pt x="139" y="132" on="0"/>
        <pt x="214" y="55" on="0"/>
        <pt x="352" y="55" on="0"/>
        <pt x="427" y="132" on="0"/>
        <pt x="427" y="208" on="1"/>
        <pt x="427" y="707" on="1"/>
        <pt x="427" y="731" on="0"/>
        <pt x="493" y="731" on="0"/>
        <pt x="493" y="707" on="1"/>
        <pt x="493" y="208" on="1"/>
        <pt x="493" y="97" on="0"/>
        <pt x="378" y="-6" on="0"/>
        <pt x="188" y="-6" on="0"/>
        <pt x="73" y="97" on="0"/>
      </contour>
      <contour>
        <pt x="150" y="903" on="0"/>
        <pt x="150" y="925" on="0"/>
        <pt x="164" y="940" on="0"/>
        <pt x="175" y="940" on="1"/>
        <pt x="390" y="940" on="1"/>
        <pt x="399" y="940" on="0"/>
        <pt x="415" y="925" on="0"/>
        <pt x="415" y="914" on="1"/>
        <pt x="415" y="904" on="0"/>
        <pt x="399" y="889" on="0"/>
        <pt x="390" y="889" on="1"/>
        <pt x="175" y="889" on="1"/>
        <pt x="164" y="889" on="0"/>
      </contour>
    </TTGlyph>
    <TTGlyph name="Uogonek" xMin="73" yMin="-201" xMax="493" yMax="731">
      <contour>
        <pt x="73" y="208" on="1"/>
        <pt x="73" y="707" on="1"/>
        <pt x="73" y="731" on="0"/>
        <pt x="139" y="731" on="0"/>
        <pt x="139" y="707" on="1"/>
        <pt x="139" y="208" on="1"/>
        <pt x="139" y="132" on="0"/>
        <pt x="214" y="55" on="0"/>
        <pt x="352" y="55" on="0"/>
        <pt x="427" y="132" on="0"/>
        <pt x="427" y="208" on="1"/>
        <pt x="427" y="707" on="1"/>
        <pt x="427" y="731" on="0"/>
        <pt x="493" y="731" on="0"/>
        <pt x="493" y="707" on="1"/>
        <pt x="493" y="208" on="1"/>
        <pt x="493" y="41" on="0"/>
        <pt x="359" y="4" on="1"/>
        <pt x="285" y="-61" on="0"/>
        <pt x="285" y="-121" on="1"/>
        <pt x="285" y="-166" on="0"/>
        <pt x="347" y="-166" on="1"/>
        <pt x="367" y="-166" on="0"/>
        <pt x="367" y="-184" on="1"/>
        <pt x="367" y="-201" on="0"/>
        <pt x="342" y="-201" on="1"/>
        <pt x="301" y="-201" on="0"/>
        <pt x="245" y="-164" on="0"/>
        <pt x="245" y="-126" on="1"/>
        <pt x="245" y="-63" on="0"/>
        <pt x="298" y="-5" on="1"/>
        <pt x="296" y="-5" on="0"/>
        <pt x="286" y="-6" on="0"/>
        <pt x="283" y="-6" on="1"/>
        <pt x="188" y="-6" on="0"/>
        <pt x="73" y="97" on="0"/>
      </contour>
    </TTGlyph>
    <TTGlyph name="Uring" xMin="73" yMin="-6" xMax="493" yMax="1022">
      <contour>
        <pt x="73" y="208" on="1"/>
        <pt x="73" y="707" on="1"/>
        <pt x="73" y="731" on="0"/>
        <pt x="139" y="731" on="0"/>
        <pt x="139" y="707" on="1"/>
        <pt x="139" y="208" on="1"/>
        <pt x="139" y="132" on="0"/>
        <pt x="214" y="55" on="0"/>
        <pt x="352" y="55" on="0"/>
        <pt x="427" y="132" on="0"/>
        <pt x="427" y="208" on="1"/>
        <pt x="427" y="707" on="1"/>
        <pt x="427" y="731" on="0"/>
        <pt x="493" y="731" on="0"/>
        <pt x="493" y="707" on="1"/>
        <pt x="493" y="208" on="1"/>
        <pt x="493" y="97" on="0"/>
        <pt x="378" y="-6" on="0"/>
        <pt x="188" y="-6" on="0"/>
        <pt x="73" y="97" on="0"/>
      </contour>
      <contour>
        <pt x="190" y="929" on="1"/>
        <pt x="190" y="966" on="0"/>
        <pt x="244" y="1022" on="0"/>
        <pt x="282" y="1022" on="1"/>
        <pt x="319" y="1022" on="0"/>
        <pt x="375" y="966" on="0"/>
        <pt x="375" y="929" on="1"/>
        <pt x="375" y="891" on="0"/>
        <pt x="319" y="833" on="0"/>
        <pt x="245" y="833" on="0"/>
        <pt x="190" y="891" on="0"/>
      </contour>
      <contour>
        <pt x="223" y="929" on="1"/>
        <pt x="223" y="905" on="0"/>
        <pt x="259" y="866" on="0"/>
        <pt x="283" y="866" on="1"/>
        <pt x="306" y="866" on="0"/>
        <pt x="341" y="905" on="0"/>
        <pt x="341" y="929" on="1"/>
        <pt x="341" y="951" on="0"/>
        <pt x="306" y="987" on="0"/>
        <pt x="283" y="987" on="1"/>
        <pt x="258" y="987" on="0"/>
        <pt x="223" y="951" on="0"/>
      </contour>
    </TTGlyph>
    <TTGlyph name="Utilde" xMin="73" yMin="-6" xMax="493" yMax="948">
      <contour>
        <pt x="73" y="208" on="1"/>
        <pt x="73" y="707" on="1"/>
        <pt x="73" y="731" on="0"/>
        <pt x="139" y="731" on="0"/>
        <pt x="139" y="707" on="1"/>
        <pt x="139" y="208" on="1"/>
        <pt x="139" y="132" on="0"/>
        <pt x="214" y="55" on="0"/>
        <pt x="352" y="55" on="0"/>
        <pt x="427" y="132" on="0"/>
        <pt x="427" y="208" on="1"/>
        <pt x="427" y="707" on="1"/>
        <pt x="427" y="731" on="0"/>
        <pt x="493" y="731" on="0"/>
        <pt x="493" y="707" on="1"/>
        <pt x="493" y="208" on="1"/>
        <pt x="493" y="97" on="0"/>
        <pt x="378" y="-6" on="0"/>
        <pt x="188" y="-6" on="0"/>
        <pt x="73" y="97" on="0"/>
      </contour>
      <contour>
        <pt x="126" y="866" on="0"/>
        <pt x="126" y="916" on="0"/>
        <pt x="185" y="948" on="0"/>
        <pt x="214" y="948" on="1"/>
        <pt x="240" y="948" on="0"/>
        <pt x="320" y="914" on="0"/>
        <pt x="372" y="914" on="0"/>
        <pt x="410" y="943" on="0"/>
        <pt x="416" y="943" on="1"/>
        <pt x="425" y="943" on="0"/>
        <pt x="436" y="928" on="0"/>
        <pt x="436" y="920" on="1"/>
        <pt x="436" y="892" on="0"/>
        <pt x="380" y="863" on="0"/>
        <pt x="352" y="863" on="1"/>
        <pt x="325" y="863" on="0"/>
        <pt x="246" y="898" on="0"/>
        <pt x="219" y="898" on="1"/>
        <pt x="194" y="898" on="0"/>
        <pt x="150" y="866" on="0"/>
        <pt x="145" y="866" on="1"/>
      </contour>
    </TTGlyph>
    <TTGlyph name="V" xMin="20" yMin="-6" xMax="518" yMax="731">
      <contour>
        <pt x="20" y="703" on="1"/>
        <pt x="20" y="715" on="0"/>
        <pt x="44" y="731" on="0"/>
        <pt x="58" y="731" on="1"/>
        <pt x="80" y="731" on="0"/>
        <pt x="84" y="714" on="1"/>
        <pt x="269" y="100" on="1"/>
        <pt x="453" y="714" on="1"/>
        <pt x="459" y="731" on="0"/>
        <pt x="478" y="731" on="1"/>
        <pt x="492" y="731" on="0"/>
        <pt x="518" y="714" on="0"/>
        <pt x="518" y="702" on="1"/>
        <pt x="518" y="701" on="0"/>
        <pt x="517" y="697" on="0"/>
        <pt x="517" y="696" on="1"/>
        <pt x="309" y="18" on="1"/>
        <pt x="302" y="-6" on="0"/>
        <pt x="269" y="-6" on="1"/>
        <pt x="237" y="-6" on="0"/>
        <pt x="230" y="18" on="1"/>
        <pt x="21" y="696" on="1"/>
        <pt x="20" y="698" on="0"/>
      </contour>
    </TTGlyph>
    <TTGlyph name="W" xMin="22" yMin="-6" xMax="765" yMax="731">
      <contour>
        <pt x="22" y="704" on="1"/>
        <pt x="22" y="715" on="0"/>
        <pt x="46" y="731" on="0"/>
        <pt x="60" y="731" on="1"/>
        <pt x="81" y="731" on="0"/>
        <pt x="86" y="714" on="1"/>
        <pt x="259" y="100" on="1"/>
        <pt x="359" y="473" on="1"/>
        <pt x="364" y="496" on="0"/>
        <pt x="394" y="496" on="1"/>
        <pt x="421" y="496" on="0"/>
        <pt x="428" y="473" on="1"/>
        <pt x="528" y="100" on="1"/>
        <pt x="701" y="714" on="1"/>
        <pt x="706" y="731" on="0"/>
        <pt x="727" y="731" on="1"/>
        <pt x="741" y="731" on="0"/>
        <pt x="765" y="715" on="0"/>
        <pt x="765" y="704" on="1"/>
        <pt x="765" y="699" on="0"/>
        <pt x="764" y="696" on="1"/>
        <pt x="568" y="18" on="1"/>
        <pt x="560" y="-6" on="0"/>
        <pt x="528" y="-6" on="1"/>
        <pt x="495" y="-6" on="0"/>
        <pt x="489" y="18" on="1"/>
        <pt x="394" y="371" on="1"/>
        <pt x="299" y="18" on="1"/>
        <pt x="293" y="-6" on="0"/>
        <pt x="227" y="-6" on="0"/>
        <pt x="220" y="18" on="1"/>
        <pt x="23" y="696" on="1"/>
        <pt x="22" y="699" on="0"/>
      </contour>
    </TTGlyph>
    <TTGlyph name="Wacute" xMin="22" yMin="-6" xMax="765" yMax="955">
      <contour>
        <pt x="22" y="704" on="1"/>
        <pt x="22" y="715" on="0"/>
        <pt x="46" y="731" on="0"/>
        <pt x="60" y="731" on="1"/>
        <pt x="81" y="731" on="0"/>
        <pt x="86" y="714" on="1"/>
        <pt x="259" y="100" on="1"/>
        <pt x="359" y="473" on="1"/>
        <pt x="364" y="496" on="0"/>
        <pt x="394" y="496" on="1"/>
        <pt x="421" y="496" on="0"/>
        <pt x="428" y="473" on="1"/>
        <pt x="528" y="100" on="1"/>
        <pt x="701" y="714" on="1"/>
        <pt x="706" y="731" on="0"/>
        <pt x="727" y="731" on="1"/>
        <pt x="741" y="731" on="0"/>
        <pt x="765" y="715" on="0"/>
        <pt x="765" y="704" on="1"/>
        <pt x="765" y="699" on="0"/>
        <pt x="764" y="696" on="1"/>
        <pt x="568" y="18" on="1"/>
        <pt x="560" y="-6" on="0"/>
        <pt x="528" y="-6" on="1"/>
        <pt x="495" y="-6" on="0"/>
        <pt x="489" y="18" on="1"/>
        <pt x="394" y="371" on="1"/>
        <pt x="299" y="18" on="1"/>
        <pt x="293" y="-6" on="0"/>
        <pt x="227" y="-6" on="0"/>
        <pt x="220" y="18" on="1"/>
        <pt x="23" y="696" on="1"/>
        <pt x="22" y="699" on="0"/>
      </contour>
      <contour>
        <pt x="321" y="873" on="1"/>
        <pt x="321" y="886" on="0"/>
        <pt x="332" y="891" on="1"/>
        <pt x="444" y="952" on="1"/>
        <pt x="447" y="955" on="0"/>
        <pt x="452" y="955" on="1"/>
        <pt x="463" y="955" on="0"/>
        <pt x="476" y="938" on="0"/>
        <pt x="476" y="927" on="1"/>
        <pt x="476" y="911" on="0"/>
        <pt x="464" y="905" on="1"/>
        <pt x="357" y="848" on="1"/>
        <pt x="352" y="845" on="0"/>
        <pt x="347" y="845" on="1"/>
        <pt x="337" y="845" on="0"/>
        <pt x="321" y="862" on="0"/>
      </contour>
    </TTGlyph>
    <TTGlyph name="Wcircumflex" xMin="22" yMin="-6" xMax="765" yMax="955">
      <contour>
        <pt x="22" y="704" on="1"/>
        <pt x="22" y="715" on="0"/>
        <pt x="46" y="731" on="0"/>
        <pt x="60" y="731" on="1"/>
        <pt x="81" y="731" on="0"/>
        <pt x="86" y="714" on="1"/>
        <pt x="259" y="100" on="1"/>
        <pt x="359" y="473" on="1"/>
        <pt x="364" y="496" on="0"/>
        <pt x="394" y="496" on="1"/>
        <pt x="421" y="496" on="0"/>
        <pt x="428" y="473" on="1"/>
        <pt x="528" y="100" on="1"/>
        <pt x="701" y="714" on="1"/>
        <pt x="706" y="731" on="0"/>
        <pt x="727" y="731" on="1"/>
        <pt x="741" y="731" on="0"/>
        <pt x="765" y="715" on="0"/>
        <pt x="765" y="704" on="1"/>
        <pt x="765" y="699" on="0"/>
        <pt x="764" y="696" on="1"/>
        <pt x="568" y="18" on="1"/>
        <pt x="560" y="-6" on="0"/>
        <pt x="528" y="-6" on="1"/>
        <pt x="495" y="-6" on="0"/>
        <pt x="489" y="18" on="1"/>
        <pt x="394" y="371" on="1"/>
        <pt x="299" y="18" on="1"/>
        <pt x="293" y="-6" on="0"/>
        <pt x="227" y="-6" on="0"/>
        <pt x="220" y="18" on="1"/>
        <pt x="23" y="696" on="1"/>
        <pt x="22" y="699" on="0"/>
      </contour>
      <contour>
        <pt x="259" y="872" on="1"/>
        <pt x="259" y="887" on="0"/>
        <pt x="272" y="894" on="1"/>
        <pt x="376" y="950" on="1"/>
        <pt x="384" y="955" on="0"/>
        <pt x="402" y="955" on="0"/>
        <pt x="410" y="950" on="1"/>
        <pt x="514" y="894" on="1"/>
        <pt x="527" y="888" on="0"/>
        <pt x="527" y="871" on="1"/>
        <pt x="527" y="861" on="0"/>
        <pt x="515" y="847" on="0"/>
        <pt x="507" y="847" on="1"/>
        <pt x="506" y="847" on="0"/>
        <pt x="497" y="850" on="1"/>
        <pt x="393" y="905" on="1"/>
        <pt x="289" y="849" on="1"/>
        <pt x="280" y="846" on="1"/>
        <pt x="272" y="846" on="0"/>
        <pt x="259" y="862" on="0"/>
      </contour>
    </TTGlyph>
    <TTGlyph name="Wdieresis" xMin="22" yMin="-6" xMax="765" yMax="920">
      <contour>
        <pt x="22" y="704" on="1"/>
        <pt x="22" y="715" on="0"/>
        <pt x="46" y="731" on="0"/>
        <pt x="60" y="731" on="1"/>
        <pt x="81" y="731" on="0"/>
        <pt x="86" y="714" on="1"/>
        <pt x="259" y="100" on="1"/>
        <pt x="359" y="473" on="1"/>
        <pt x="364" y="496" on="0"/>
        <pt x="394" y="496" on="1"/>
        <pt x="421" y="496" on="0"/>
        <pt x="428" y="473" on="1"/>
        <pt x="528" y="100" on="1"/>
        <pt x="701" y="714" on="1"/>
        <pt x="706" y="731" on="0"/>
        <pt x="727" y="731" on="1"/>
        <pt x="741" y="731" on="0"/>
        <pt x="765" y="715" on="0"/>
        <pt x="765" y="704" on="1"/>
        <pt x="765" y="699" on="0"/>
        <pt x="764" y="696" on="1"/>
        <pt x="568" y="18" on="1"/>
        <pt x="560" y="-6" on="0"/>
        <pt x="528" y="-6" on="1"/>
        <pt x="495" y="-6" on="0"/>
        <pt x="489" y="18" on="1"/>
        <pt x="394" y="371" on="1"/>
        <pt x="299" y="18" on="1"/>
        <pt x="293" y="-6" on="0"/>
        <pt x="227" y="-6" on="0"/>
        <pt x="220" y="18" on="1"/>
        <pt x="23" y="696" on="1"/>
        <pt x="22" y="699" on="0"/>
      </contour>
      <contour>
        <pt x="295" y="884" on="1"/>
        <pt x="295" y="900" on="0"/>
        <pt x="316" y="920" on="0"/>
        <pt x="332" y="920" on="1"/>
        <pt x="347" y="920" on="0"/>
        <pt x="368" y="900" on="0"/>
        <pt x="368" y="884" on="1"/>
        <pt x="368" y="869" on="0"/>
        <pt x="347" y="847" on="0"/>
        <pt x="332" y="847" on="1"/>
        <pt x="316" y="847" on="0"/>
        <pt x="295" y="869" on="0"/>
      </contour>
      <contour>
        <pt x="418" y="884" on="1"/>
        <pt x="418" y="900" on="0"/>
        <pt x="439" y="920" on="0"/>
        <pt x="471" y="920" on="0"/>
        <pt x="491" y="900" on="0"/>
        <pt x="491" y="884" on="1"/>
        <pt x="491" y="869" on="0"/>
        <pt x="470" y="847" on="0"/>
        <pt x="455" y="847" on="1"/>
        <pt x="439" y="847" on="0"/>
        <pt x="418" y="869" on="0"/>
      </contour>
    </TTGlyph>
    <TTGlyph name="Wgrave" xMin="22" yMin="-6" xMax="765" yMax="955">
      <contour>
        <pt x="22" y="704" on="1"/>
        <pt x="22" y="715" on="0"/>
        <pt x="46" y="731" on="0"/>
        <pt x="60" y="731" on="1"/>
        <pt x="81" y="731" on="0"/>
        <pt x="86" y="714" on="1"/>
        <pt x="259" y="100" on="1"/>
        <pt x="359" y="473" on="1"/>
        <pt x="364" y="496" on="0"/>
        <pt x="394" y="496" on="1"/>
        <pt x="421" y="496" on="0"/>
        <pt x="428" y="473" on="1"/>
        <pt x="528" y="100" on="1"/>
        <pt x="701" y="714" on="1"/>
        <pt x="706" y="731" on="0"/>
        <pt x="727" y="731" on="1"/>
        <pt x="741" y="731" on="0"/>
        <pt x="765" y="715" on="0"/>
        <pt x="765" y="704" on="1"/>
        <pt x="765" y="699" on="0"/>
        <pt x="764" y="696" on="1"/>
        <pt x="568" y="18" on="1"/>
        <pt x="560" y="-6" on="0"/>
        <pt x="528" y="-6" on="1"/>
        <pt x="495" y="-6" on="0"/>
        <pt x="489" y="18" on="1"/>
        <pt x="394" y="371" on="1"/>
        <pt x="299" y="18" on="1"/>
        <pt x="293" y="-6" on="0"/>
        <pt x="227" y="-6" on="0"/>
        <pt x="220" y="18" on="1"/>
        <pt x="23" y="696" on="1"/>
        <pt x="22" y="699" on="0"/>
      </contour>
      <contour>
        <pt x="311" y="927" on="1"/>
        <pt x="311" y="937" on="0"/>
        <pt x="325" y="955" on="0"/>
        <pt x="335" y="955" on="1"/>
        <pt x="340" y="955" on="0"/>
        <pt x="344" y="952" on="1"/>
        <pt x="455" y="891" on="1"/>
        <pt x="466" y="886" on="0"/>
        <pt x="466" y="873" on="1"/>
        <pt x="466" y="862" on="0"/>
        <pt x="450" y="845" on="0"/>
        <pt x="440" y="845" on="1"/>
        <pt x="434" y="845" on="0"/>
        <pt x="430" y="848" on="1"/>
        <pt x="324" y="905" on="1"/>
        <pt x="311" y="911" on="0"/>
      </contour>
    </TTGlyph>
    <TTGlyph name="X" xMin="24" yMin="-2" xMax="460" yMax="733">
      <contour>
        <pt x="24" y="31" on="1"/>
        <pt x="24" y="39" on="0"/>
        <pt x="28" y="47" on="1"/>
        <pt x="200" y="366" on="1"/>
        <pt x="31" y="683" on="1"/>
        <pt x="25" y="694" on="0"/>
        <pt x="25" y="704" on="1"/>
        <pt x="25" y="716" on="0"/>
        <pt x="48" y="733" on="0"/>
        <pt x="80" y="733" on="0"/>
        <pt x="98" y="699" on="1"/>
        <pt x="242" y="424" on="1"/>
        <pt x="386" y="699" on="1"/>
        <pt x="404" y="733" on="0"/>
        <pt x="436" y="733" on="0"/>
        <pt x="459" y="716" on="0"/>
        <pt x="459" y="704" on="1"/>
        <pt x="459" y="694" on="0"/>
        <pt x="453" y="683" on="1"/>
        <pt x="283" y="366" on="1"/>
        <pt x="456" y="47" on="1"/>
        <pt x="460" y="39" on="0"/>
        <pt x="460" y="31" on="1"/>
        <pt x="460" y="18" on="0"/>
        <pt x="435" y="-2" on="0"/>
        <pt x="421" y="-2" on="1"/>
        <pt x="406" y="-2" on="0"/>
        <pt x="390" y="30" on="1"/>
        <pt x="242" y="310" on="1"/>
        <pt x="94" y="30" on="1"/>
        <pt x="78" y="-2" on="0"/>
        <pt x="63" y="-2" on="1"/>
        <pt x="49" y="-2" on="0"/>
        <pt x="24" y="18" on="0"/>
      </contour>
    </TTGlyph>
    <TTGlyph name="Y" xMin="19" yMin="0" xMax="512" yMax="731">
      <contour>
        <pt x="19" y="703" on="1"/>
        <pt x="19" y="715" on="0"/>
        <pt x="42" y="731" on="0"/>
        <pt x="55" y="731" on="1"/>
        <pt x="71" y="731" on="0"/>
        <pt x="81" y="711" on="1"/>
        <pt x="265" y="346" on="1"/>
        <pt x="450" y="711" on="1"/>
        <pt x="460" y="731" on="0"/>
        <pt x="476" y="731" on="1"/>
        <pt x="489" y="731" on="0"/>
        <pt x="512" y="715" on="0"/>
        <pt x="512" y="703" on="1"/>
        <pt x="512" y="694" on="0"/>
        <pt x="508" y="685" on="1"/>
        <pt x="300" y="288" on="1"/>
        <pt x="298" y="282" on="0"/>
        <pt x="298" y="280" on="1"/>
        <pt x="298" y="26" on="1"/>
        <pt x="298" y="14" on="0"/>
        <pt x="279" y="0" on="0"/>
        <pt x="265" y="0" on="1"/>
        <pt x="252" y="0" on="0"/>
        <pt x="232" y="14" on="0"/>
        <pt x="232" y="26" on="1"/>
        <pt x="232" y="280" on="1"/>
        <pt x="232" y="285" on="0"/>
        <pt x="231" y="288" on="1"/>
        <pt x="24" y="685" on="1"/>
        <pt x="19" y="694" on="0"/>
      </contour>
    </TTGlyph>
</ttFont>
